<svg width="95" height="85" fill="none" xmlns="http://www.w3.org/2000/svg"><path d="M37 76V37.51a4.827 4.827 0 0 1 1.59-3.21A5.093 5.093 0 0 1 42 33c1.264 0 2.482.465 3.41 1.3A4.827 4.827 0 0 1 47 37.51v25.512" fill="#fff"/><path d="M49.5 59a9.5 9.5 0 1 0 0-19 9.5 9.5 0 0 0 0 19z" stroke="#454545" stroke-width="1.19" stroke-linecap="round" stroke-linejoin="round"/><path d="M93 22H2v57h91V22z" stroke="#515151" stroke-width="2.38" stroke-linecap="round" stroke-linejoin="round"/><path d="M2 84h91" stroke="#515151" stroke-width="1.19" stroke-linecap="round" stroke-linejoin="round"/><path d="M72.93 18.756a9.022 9.022 0 0 1-2.637 7.547A9.437 9.437 0 0 1 63.711 29H37.275a9.436 9.436 0 0 1-6.571-2.702A9.021 9.021 0 0 1 28 19.848c-.005-.365.018-.73.07-1.092a9.014 9.014 0 0 1 2.198-4.916 9.347 9.347 0 0 1 4.645-2.854 9.041 9.041 0 0 1 2.766-6.34A9.453 9.453 0 0 1 44.188 2a9.273 9.273 0 0 1 6.362 2.489 10.655 10.655 0 0 1 5.443-1.48c2.394.013 4.714.814 6.587 2.273a10.4 10.4 0 0 1 3.733 5.773 9.364 9.364 0 0 1 4.489 2.88 9.038 9.038 0 0 1 2.127 4.82z" fill="#B69538"/><path d="M28.071 18.756a9.014 9.014 0 0 1 2.198-4.916 9.347 9.347 0 0 1 4.645-2.854 9.027 9.027 0 0 1 2.762-6.343A9.439 9.439 0 0 1 44.188 2a9.273 9.273 0 0 1 6.362 2.489 10.655 10.655 0 0 1 5.443-1.48c2.394.013 4.714.814 6.587 2.273a10.4 10.4 0 0 1 3.733 5.773 9.364 9.364 0 0 1 4.489 2.88 9.038 9.038 0 0 1 2.127 4.82c.045.363.069.728.071 1.093a9.022 9.022 0 0 1-2.708 6.455A9.437 9.437 0 0 1 63.712 29H37.275a9.436 9.436 0 0 1-6.571-2.702A9.021 9.021 0 0 1 28 19.848c-.005-.365.018-.73.07-1.092z" stroke="#454545" stroke-width="2.38" stroke-linecap="round" stroke-linejoin="round"/><path d="M52.44 48.476l-3.778-2.317a1.053 1.053 0 0 0-1.107 0 1.15 1.15 0 0 0-.406.432c-.097.18-.148.384-.149.592v4.634c0 .208.052.412.15.592.097.18.237.33.405.433a1.053 1.053 0 0 0 1.107 0l3.778-2.305a1.15 1.15 0 0 0 .41-.434 1.25 1.25 0 0 0 0-1.193 1.149 1.149 0 0 0-.41-.434z" fill="#B69538"/><path d="M52.44 48.476l-3.778-2.317a1.053 1.053 0 0 0-1.107 0 1.15 1.15 0 0 0-.406.432c-.097.18-.148.384-.149.592v4.634c0 .208.052.412.15.592.097.18.237.33.405.433a1.053 1.053 0 0 0 1.107 0l3.778-2.305a1.15 1.15 0 0 0 .41-.434 1.25 1.25 0 0 0 0-1.193 1.149 1.149 0 0 0-.41-.434z" stroke="#454545" stroke-width="1.19" stroke-linecap="round" stroke-linejoin="round"/><path d="M62 13c-.584-1.43-1.662-2.676-3.09-3.569C57.48 8.538 55.767 8.04 54 8" stroke="#454545" stroke-width="2.38" stroke-linecap="round" stroke-linejoin="round"/></svg>