<svg width="63" height="91" fill="none" xmlns="http://www.w3.org/2000/svg"><path d="M58.985 3.14a2.64 2.64 0 0 1 1.868 4.512 2.641 2.641 0 1 1-3.736-3.737 2.641 2.641 0 0 1 1.868-.774zM45.501 5.28a2.64 2.64 0 0 1 1.867 4.511 2.64 2.64 0 0 1-4.509-1.868 2.643 2.643 0 0 1 2.642-2.643zM32.028 1a2.64 2.64 0 0 1 2.59 3.158 2.643 2.643 0 0 1-4.786.953A2.644 2.644 0 0 1 32.028 1zM7.673 5.757a2.643 2.643 0 0 1-3.156 2.591 2.64 2.64 0 0 1-1.925-3.603 2.642 2.642 0 0 1 5.081 1.012z" fill="#988FDC"/><path d="M51.445 38.1a8.256 8.256 0 0 0 3.697-6.421v-.462a8.153 8.153 0 0 0-8.042-8.232 8.067 8.067 0 0 0-5.045 1.784m-17.224 5.84a8.71 8.71 0 0 0-.859-3.277l-.356-.66a7.556 7.556 0 0 0-6.432-3.74 7.921 7.921 0 0 0-7.19 5.12 7.93 7.93 0 0 0-.51 3.059v.29m14.489-4.082a9.25 9.25 0 0 1 7.94-8.035 9.242 9.242 0 0 1 9.783 5.644c.132.356.25.74.357 1.136.164.706.248 1.428.25 2.154a8.946 8.946 0 0 1-.58 3.17" stroke="#454545" stroke-width="2" stroke-linecap="round" stroke-linejoin="round"/><path d="M15.6 34.004a8.266 8.266 0 0 0-6.009-2.643h-.106a8.516 8.516 0 0 0-6.013 2.52 8.524 8.524 0 0 0 6.08 14.524h43.832a8.543 8.543 0 0 0 8.318-7.66 8.551 8.551 0 0 0-6.561-9.212M31.5 1.621a2.64 2.64 0 0 1 2.59 3.158 2.643 2.643 0 0 1-4.787.953 2.643 2.643 0 0 1 2.197-4.11zm-.013 14.547V9.126M44.97 5.901A2.64 2.64 0 0 1 47.56 9.06a2.643 2.643 0 0 1-3.601 1.926 2.642 2.642 0 0 1 1.01-5.084zm13.473-2.14a2.64 2.64 0 0 1 2.59 3.159 2.643 2.643 0 0 1-4.786.952 2.643 2.643 0 0 1 2.196-4.11zm-40.441 2.14a2.64 2.64 0 0 0-1.868 4.511 2.64 2.64 0 1 0 3.735-3.737 2.64 2.64 0 0 0-1.867-.774zM4.53 3.761a2.64 2.64 0 0 0-2.59 3.159 2.643 2.643 0 0 0 4.787.952 2.643 2.643 0 0 0-2.196-4.11zm53.912 7.505v8.099l-3.724 3.739m-9.762-9.698v3.885l-2.773 2.8M4.53 11.267v8.786l4.2 4.24m9.285-10.886v2.801l5.058 5.1" stroke="#454545" stroke-width="2" stroke-linecap="round" stroke-linejoin="round"/><path d="M40.295 68.37h-21.13v21.139h21.13v-21.14z" fill="#B69538"/><path d="M40.295 68.37h-21.13v21.139h21.13v-21.14z" stroke="#515151" stroke-width="2" stroke-linecap="round" stroke-linejoin="round"/><path d="M31.052 56.478a1.322 1.322 0 1 1-2.644 0 1.322 1.322 0 0 1 2.643 0z" fill="#515151"/><path d="M32.371 53.73l14.686 10.834a3.965 3.965 0 0 1 1.162 2.802v10.252a7.93 7.93 0 0 1-3.962 6.857M33.891 64.406l-4.266-2.642m.105-13.213v3.963" stroke="#515151" stroke-width="2" stroke-linecap="round" stroke-linejoin="round"/><path d="M24.753 64.406l7.62-5.39a3.74 3.74 0 0 0-2.667-6.294 3.736 3.736 0 0 0-2.616 1.008L12.404 64.564a3.964 3.964 0 0 0-1.162 2.814v10.24a7.93 7.93 0 0 0 3.962 6.857" stroke="#515151" stroke-width="2" stroke-linecap="round" stroke-linejoin="round"/><path d="M22.215 75.957l-.026-1.083h1.143l-.025 1.083-.137 3.395-.827.051-.128-3.446zm.529 5.127c-.222 0-.381-.043-.478-.128-.09-.091-.136-.248-.136-.47 0-.221.045-.38.136-.477.097-.102.253-.153.47-.153.221 0 .38.045.477.136.097.085.145.236.145.452 0 .228-.045.392-.136.495-.091.097-.25.145-.478.145zm1.681-4.171c-.017-.21-.054-.597-.11-1.16-.058-.58-.086-.973-.086-1.177h1.186c0 .21-.02.528-.06.955a1254.665 1254.665 0 0 1-.102 1.066c-.012.097-.023.202-.035.316h-.793zm1.604 0c-.017-.21-.054-.597-.111-1.16-.057-.58-.085-.973-.085-1.177h1.185c0 .21-.02.528-.06.955a1254.665 1254.665 0 0 1-.102 1.066c-.011.097-.023.202-.034.316h-.793z" fill="#515151"/></svg>