<svg width="103" height="80" fill="none" xmlns="http://www.w3.org/2000/svg"><path d="M32.836 13.889h-4.29v38.406h4.29V13.89z" fill="#B69538"/><path d="M32.836 13.889h-4.29v38.406h4.29V13.89z" stroke="#515151" stroke-width=".85" stroke-linecap="round" stroke-linejoin="round"/><path d="M76.598 13.889h-4.29v38.406h4.29V13.89z" fill="#B69538"/><path d="M76.598 13.889h-4.29v38.406h4.29V13.89z" stroke="#515151" stroke-width=".85" stroke-linecap="round" stroke-linejoin="round"/><path d="M102 1H1v63.112h101V1z" stroke="#515151" stroke-width="1.7" stroke-linecap="round" stroke-linejoin="round"/><path d="M71.854 42.18H32.836v28.46h39.018V42.18z" fill="#fff"/><path d="M67.412 8.495H37.738a4.903 4.903 0 0 0-4.902 4.904v60.675a4.903 4.903 0 0 0 4.902 4.904h29.674a4.903 4.903 0 0 0 4.902-4.904V13.399a4.903 4.903 0 0 0-4.902-4.904zM33.23 16.449h38.636m.046 54.805H33.23m23.961-58.851h-9.207" stroke="#515151" stroke-width="1.7" stroke-linecap="round" stroke-linejoin="round"/><path d="M62.059 58.395h3.4v-3.05m-25.87 0v3.05h3.402m.276-26.927H39.59v3.296m26.147-.093v-3.05h-3.401" stroke="#515151" stroke-width=".85" stroke-linecap="round" stroke-linejoin="round"/><path d="M62.817 34.44H42.289v20.538h20.528V34.44z" fill="#B69538"/><path d="M62.817 34.44H42.289v20.538h20.528V34.44z" stroke="#515151" stroke-width=".85" stroke-linecap="round" stroke-linejoin="round"/><path d="M55.583 38.395h-4.09m4.75 5.135V41.72m3.292-1.686v2.789m-5.358 7.28h-1.501m-3.004-5.134v2.805m3.75-2.56v2.804m-5.347 3.77h-2.712m6.79-10.283v1.333m-6.606 3.542v1.961m6.268 3.954H49.96m8.945-15.172v.904m-9.884-.17H45.04v4.338h3.983v-4.338zm11.152 9.105h-3.983V51.3h3.983v-4.337z" stroke="#333" stroke-width=".85" stroke-miterlimit="10"/><path d="M1 69.951h101" stroke="#515151" stroke-width=".85" stroke-linecap="round" stroke-linejoin="round"/></svg>