<svg width="103" height="80" viewBox="0 0 103 80" fill="none" xmlns="http://www.w3.org/2000/svg">
<path d="M32.8362 13.8889H28.5469V52.2955H32.8362V13.8889Z" fill="#B69538"/>
<path d="M32.8362 13.8889H28.5469V52.2955H32.8362V13.8889Z" stroke="#515151" stroke-width="0.85" stroke-linecap="round" stroke-linejoin="round"/>
<path d="M76.598 13.8889H72.3086V52.2955H76.598V13.8889Z" fill="#B69538"/>
<path d="M76.598 13.8889H72.3086V52.2955H76.598V13.8889Z" stroke="#515151" stroke-width="0.85" stroke-linecap="round" stroke-linejoin="round"/>
<path d="M102 1H1V64.1119H102V1Z" stroke="#515151" stroke-width="1.7" stroke-linecap="round" stroke-linejoin="round"/>
<path d="M71.8541 42.1802H32.8359V70.6403H71.8541V42.1802Z" fill="white"/>
<path d="M67.4116 8.49463H37.7381C35.0307 8.49463 32.8359 10.6903 32.8359 13.3989V74.074C32.8359 76.7826 35.0307 78.9783 37.7381 78.9783H67.4116C70.119 78.9783 72.3138 76.7826 72.3138 74.074V13.3989C72.3138 10.6903 70.119 8.49463 67.4116 8.49463Z" stroke="#515151" stroke-width="1.7" stroke-linecap="round" stroke-linejoin="round"/>
<path d="M33.2305 16.449H71.8656" stroke="#515151" stroke-width="1.7" stroke-linecap="round" stroke-linejoin="round"/>
<path d="M71.9117 71.2542H33.2305" stroke="#515151" stroke-width="1.7" stroke-linecap="round" stroke-linejoin="round"/>
<path d="M57.1912 12.4026H47.9844" stroke="#515151" stroke-width="1.7" stroke-linecap="round" stroke-linejoin="round"/>
<path d="M62.0586 58.3953H65.4594V55.3455" stroke="#515151" stroke-width="0.85" stroke-linecap="round" stroke-linejoin="round"/>
<path d="M39.5898 55.3455V58.3953H42.9907" stroke="#515151" stroke-width="0.85" stroke-linecap="round" stroke-linejoin="round"/>
<path d="M43.2665 31.4685H39.5898V34.7636" stroke="#515151" stroke-width="0.85" stroke-linecap="round" stroke-linejoin="round"/>
<path d="M65.7367 34.6714V31.6216H62.3359" stroke="#515151" stroke-width="0.85" stroke-linecap="round" stroke-linejoin="round"/>
<path d="M62.8169 34.4409H42.2891V54.9776H62.8169V34.4409Z" fill="#B69538"/>
<path d="M62.8169 34.4409H42.2891V54.9776H62.8169V34.4409Z" stroke="#515151" stroke-width="0.85" stroke-linecap="round" stroke-linejoin="round"/>
<path d="M55.5825 38.3955H51.4922" stroke="#333333" stroke-width="0.85" stroke-miterlimit="10"/>
<path d="M56.2422 43.5299V41.7214" stroke="#333333" stroke-width="0.85" stroke-miterlimit="10"/>
<path d="M59.5352 40.0347V42.824" stroke="#333333" stroke-width="0.85" stroke-miterlimit="10"/>
<path d="M54.177 50.104H52.6758" stroke="#333333" stroke-width="0.85" stroke-miterlimit="10"/>
<path d="M49.6719 44.9702V47.7748" stroke="#333333" stroke-width="0.85" stroke-miterlimit="10"/>
<path d="M53.4219 45.2148V48.0195" stroke="#333333" stroke-width="0.85" stroke-miterlimit="10"/>
<path d="M48.0749 51.7896H45.3633" stroke="#333333" stroke-width="0.85" stroke-miterlimit="10"/>
<path d="M52.1523 41.5061V42.8394" stroke="#333333" stroke-width="0.85" stroke-miterlimit="10"/>
<path d="M45.5469 46.3806V48.3423" stroke="#333333" stroke-width="0.85" stroke-miterlimit="10"/>
<path d="M51.8146 52.2959H49.9609" stroke="#333333" stroke-width="0.85" stroke-miterlimit="10"/>
<path d="M58.9062 37.1235V38.0278" stroke="#333333" stroke-width="0.85" stroke-miterlimit="10"/>
<path d="M49.0221 37.8584H45.0391V42.1956H49.0221V37.8584Z" stroke="#333333" stroke-width="0.85" stroke-miterlimit="10"/>
<path d="M60.1743 46.9626H56.1914V51.2999H60.1743V46.9626Z" stroke="#333333" stroke-width="0.85" stroke-miterlimit="10"/>
<path d="M1 69.9514H102" stroke="#515151" stroke-width="0.85" stroke-linecap="round" stroke-linejoin="round"/>
</svg>
