<svg width="24" height="23" viewBox="0 0 24 23" fill="none" xmlns="http://www.w3.org/2000/svg">
<path fill-rule="evenodd" clip-rule="evenodd" d="M12.3382 23C18.7166 23 23.8874 17.8513 23.8874 11.5C23.8874 5.14873 18.7166 0 12.3382 0C5.95979 0 0.789062 5.14873 0.789062 11.5C0.789062 17.8513 5.95979 23 12.3382 23ZM3.55208 11.5C3.55208 6.67432 7.48152 2.75753 12.3347 2.75753C17.1879 2.75753 21.1174 6.67432 21.1174 11.5C21.1174 16.3256 17.1879 20.2424 12.3347 20.2424C7.48152 20.2424 3.55208 16.3256 3.55208 11.5ZM12.3347 1.42419C6.75051 1.42419 2.21875 5.93259 2.21875 11.5C2.21875 17.0673 6.75051 21.5757 12.3347 21.5757C17.9189 21.5757 22.4507 17.0673 22.4507 11.5C22.4507 5.93259 17.9189 1.42419 12.3347 1.42419ZM11.1595 7.75575C11.6012 7.49729 12.1208 7.40266 12.6261 7.48898C13.1315 7.57529 13.5893 7.83682 13.9187 8.22649C14.2481 8.6161 14.428 9.10975 14.4272 9.61813C14.4272 10.2038 13.977 10.7355 13.3078 11.1798C12.9939 11.3882 12.6751 11.5473 12.4323 11.6548C12.3118 11.7081 12.2123 11.7477 12.1445 11.7734C12.1106 11.7863 12.0848 11.7956 12.0685 11.8014L12.0512 11.8074L12.0482 11.8084C11.6993 11.9248 11.5105 12.3017 11.6264 12.6509C11.7424 13.0003 12.1206 13.1893 12.47 13.0733L12.4711 13.0729L12.4742 13.0719L12.4833 13.0688L12.5135 13.0583C12.5386 13.0494 12.5737 13.0366 12.6174 13.0201C12.7046 12.987 12.8266 12.9384 12.9719 12.8741C13.2605 12.7463 13.6505 12.5527 14.0452 12.2906C14.7934 11.7939 15.7604 10.9144 15.7606 9.61846C15.7617 8.79386 15.4697 7.99586 14.9369 7.36568C14.4041 6.73541 13.6649 6.31376 12.8506 6.17468C12.0363 6.0356 11.1988 6.18791 10.4861 6.60498C9.77332 7.02209 9.23117 7.67731 8.95638 8.45515C8.83373 8.80232 9.01574 9.18317 9.3629 9.30582C9.71006 9.42846 10.0909 9.24646 10.2136 8.89929C10.3831 8.41946 10.7179 8.01416 11.1595 7.75575ZM12.2686 12.4694L12.47 13.0733C12.4698 13.0734 12.4691 13.0736 12.2686 12.4694ZM12.3347 15.5378C11.9665 15.5378 11.6681 15.8363 11.6681 16.2045C11.6681 16.5727 11.9665 16.8712 12.3347 16.8712H12.3442C12.7124 16.8712 13.0108 16.5727 13.0108 16.2045C13.0108 15.8363 12.7124 15.5378 12.3442 15.5378H12.3347Z" fill="#878787"/>
</svg>
