<svg width="224" height="224" fill="none" xmlns="http://www.w3.org/2000/svg"><path d="M129.023 223.609H95.537a8.32 8.32 0 0 1-8.276-7.444l-2.48-23.346a84.709 84.709 0 0 1-10.123-4.194L56.415 203.38a8.323 8.323 0 0 1-11.094-.588l-23.68-23.68a8.318 8.318 0 0 1-.588-11.093l14.76-18.266a84.45 84.45 0 0 1-4.198-10.123l-23.386-2.496a8.323 8.323 0 0 1-7.444-8.271V95.371a8.32 8.32 0 0 1 7.444-8.27l23.347-2.48a84.389 84.389 0 0 1 4.199-10.123l-14.76-18.266a8.32 8.32 0 0 1 .588-11.093l23.68-23.68a8.32 8.32 0 0 1 11.093-.588l18.266 14.755a84.737 84.737 0 0 1 10.123-4.194l2.48-23.346A8.32 8.32 0 0 1 95.536.625h33.486a8.319 8.319 0 0 1 8.276 7.444l2.474 23.347a84.816 84.816 0 0 1 10.129 4.193l18.26-14.755a8.32 8.32 0 0 1 11.094.588l23.679 23.68a8.317 8.317 0 0 1 .588 11.094l-14.76 18.266a85.291 85.291 0 0 1 4.199 10.123l23.347 2.48a8.318 8.318 0 0 1 7.438 8.27v33.492a8.32 8.32 0 0 1-7.416 8.287l-23.347 2.479a85.13 85.13 0 0 1-4.199 10.123l14.761 18.266a8.32 8.32 0 0 1-.588 11.094l-23.68 23.696a8.321 8.321 0 0 1-11.094.588l-18.26-14.755a84.786 84.786 0 0 1-10.129 4.194l-2.474 23.346a8.316 8.316 0 0 1-8.298 7.444zm-26.014-16.64h18.521l2.268-21.389a8.32 8.32 0 0 1 6.135-7.161 68.215 68.215 0 0 0 16.729-6.95 8.318 8.318 0 0 1 9.43.726l16.729 13.518 13.097-13.096-13.54-16.679a8.329 8.329 0 0 1-1.834-4.602 8.332 8.332 0 0 1 1.107-4.828 67.992 67.992 0 0 0 6.928-16.718 8.321 8.321 0 0 1 7.167-6.135l21.383-2.275v-18.521l-21.383-2.274a8.323 8.323 0 0 1-7.167-6.135 68.026 68.026 0 0 0-6.928-16.723 8.323 8.323 0 0 1 .727-9.43l13.517-16.73-13.096-13.096L156.07 51.99a8.32 8.32 0 0 1-9.43.727 68.213 68.213 0 0 0-16.718-6.928 8.324 8.324 0 0 1-6.135-7.161l-2.246-21.361h-18.532l-2.269 21.388a8.325 8.325 0 0 1-6.14 7.161 68.111 68.111 0 0 0-16.702 6.95 8.32 8.32 0 0 1-9.43-.726l-16.713-13.54-13.09 13.096 13.523 16.73a8.321 8.321 0 0 1 .721 9.43 68.456 68.456 0 0 0-6.928 16.718 8.32 8.32 0 0 1-7.16 6.134l-21.39 2.275v18.515l21.39 2.274a8.323 8.323 0 0 1 7.16 6.135 68.456 68.456 0 0 0 6.923 16.702 8.32 8.32 0 0 1-.722 9.43l-13.517 16.701 13.096 13.096 16.735-13.517a8.316 8.316 0 0 1 9.43-.727 68.123 68.123 0 0 0 16.712 6.928 8.326 8.326 0 0 1 6.141 7.161l2.23 21.389z" fill="white"/><path d="M112.276 162.794a50.676 50.676 0 1 1 50.682-50.676 50.733 50.733 0 0 1-50.682 50.676zm0-84.712a34.035 34.035 0 1 0 34.041 34.036 34.073 34.073 0 0 0-34.041-34.036z" fill="white"/></svg>