<svg width="207" height="57" viewBox="0 0 207 57" fill="none" xmlns="http://www.w3.org/2000/svg">
<path d="M194.244 24.2712C191.673 25.2133 193.817 21.5387 194.587 20.5849C196.54 18.1651 199.373 15.0581 201.344 12.802C201.392 12.7476 201.35 12.6663 201.276 12.667C196.869 12.7373 192.004 13.5698 188.08 14.1206C184.105 14.6787 179.84 15.0076 175.873 15.7617C167.212 17.4095 158.617 18.9194 150.096 21.22C132.798 25.8905 116.033 32.3137 100.21 40.519C80.3459 50.8206 58.3426 60.9993 35.556 54.5826C21.8038 50.7095 10.1829 41.8442 1.00133 31.4698C0.41584 30.8077 -0.0530993 29.7491 0.67177 29.2029C1.21259 28.796 10.8817 37.7256 11.9194 38.5588C20.74 45.6442 32.1206 51.7529 43.982 53.3152C56.0006 54.8978 68.1652 51.6317 79.205 47.2791C96.2007 40.5787 111.861 30.7489 129.12 24.4211C140.947 20.0852 153.128 16.7774 165.537 14.5905C171.663 13.5111 177.821 12.6134 183.983 11.7638C186.705 11.3881 189.815 10.9359 192.676 10.4944C194 10.2903 199.319 9.48065 201.188 9.39946C201.321 9.39377 201.396 9.24737 201.315 9.14908C199.121 6.51743 195.084 3.32951 194.388 1.11333C194.258 0.698932 194.694 0.318834 195.132 0.441557C198.449 1.37342 204.436 7.81178 206.531 10.3565C207.533 11.5742 197.637 21.3088 195.735 23.1753C195.31 23.592 194.606 24.1378 194.244 24.2712Z" fill="#B69538"/>
</svg>
