<svg width="418" height="126" fill="none" xmlns="http://www.w3.org/2000/svg"><path d="M224.399 89.54c.274-.225.547-.453.819-.68.659-.551 1.954-.901 2.1-.07a.866.866 0 0 1-.229.73c-7.687 8.24-17.895 14.048-28.836 16.407-10.828 2.336-22.327 1.285-32.522-2.971-22.527-9.404-35.517-31.952-56.692-43.336-4.373-2.352-8.33-3.785-13.22-4.712-6.667-1.264-14.01-2.176-20.79-2.072-9.781.15-19.517 1.49-29.307 1.293-10.734-.217-19.918-3.222-28.986-8.927-2.652-1.668-6.14-4.49-9.083-5.765a.196.196 0 0 0-.269.143c-.473 2.345-.179 5.292-.473 7.687-.094.764-.524 2.018-1.548 1.789-.462-.103-.528-.843-.598-1.316-.328-2.25-.076-3.69.052-7.457.062-1.842-.722-3.171 1.03-4.358 2.135-1.446 4.403-2.493 6.777-3.454 1.337-.541 3.662-1.744 5.068-1.915.812-.099 1.307 1.265.503 2.084-.384.393-.906.61-1.412.816-1.783.729-3.683 1.328-5.407 2.18-.784.387-2.015 1.008-2.802 1.481a.095.095 0 0 0-.008.157c2.305 1.72 4.71 3.101 6.55 4.167 6.62 3.828 11.592 6.94 18.4 8.87 6.906 1.958 14.373 1.66 21.505 1.349 5.897-.258 11.908-1.017 17.782-1.118 6.34-.108 12.739.173 19.009 1.118 3.793.571 7.548 1.399 11.205 2.558 11.334 3.588 21.779 13.727 29.909 20.94 7.56 6.708 13.092 13.191 21.487 18.976 8.351 5.755 17.91 9.905 28.071 10.841 8.555.788 17.322-.72 25.163-4.33 6.092-2.804 11.564-6.814 16.752-11.104zm13.655-17.423c.033.27-.118.528-.453.771-.44.316-.697.51-.752.588-.245.396-.53.853-.864 1.368a60.18 60.18 0 0 0 1.626 2.394 119.32 119.32 0 0 0 3.943 5.268c.095.134.264.268.511.416.248.148.413.261.478.354.089.121.128.269.11.43-.003.428-.218.791-.631 1.084a2.397 2.397 0 0 1-1.228.433c-.46.038-.808-.057-1.049-.297-.13-.123-.17-.334-.122-.632.049-.299.017-.539-.101-.7a165.665 165.665 0 0 1-3.584-4.867 48.432 48.432 0 0 1-1.399-2.074 6.53 6.53 0 0 0-.295.422 1.607 1.607 0 0 1-.337.39.738.738 0 0 1-.521.134 8.326 8.326 0 0 1-.927-.113c-.274-.062-.477-.186-.606-.382a1.89 1.89 0 0 1-.133-.25c-.058-.153.433-.913 1.503-2.272 1.145-1.47 1.746-2.281 1.804-2.441.076-.113.135-.273.173-.502.035-.219.119-.392.261-.516.195-.16.57-.225 1.115-.164.609.059 1.046.274 1.302.634.087.162.152.328.176.524zm12.515 3.224c.239.177.381.293.433.36.154.183.174.43.062.73a1.79 1.79 0 0 1-.545.765c-.38.324-.742.381-1.093.192a1.22 1.22 0 0 1-.316-.232c-.092-.111-.153-.287-.163-.499-.006-.22-.061-.384-.162-.498-.284-.546-.788-1.263-1.521-2.122-1.269-1.502-2.025-2.18-2.265-2.044-.18.113-.227.58-.131 1.402.1.877.314 1.757.649 2.652.39 1.059.872 1.884 1.438 2.463.018.078.052.14.097.196.069.084.201.165.396.245.193.09.325.172.403.258a.506.506 0 0 1 .12.33c.053.548-.038.918-.276 1.117-.25.206-.649.211-1.208.021-.329-.12-1.503-1.385-3.541-3.799-.746-.884-2.419-2.916-5.019-6.096a3.982 3.982 0 0 0-.222-.234 3.912 3.912 0 0 1-.228-.247.755.755 0 0 1-.126-.31c-.055-.267.068-.533.389-.801a1.85 1.85 0 0 1 .966-.429c.359-.048.599.056.723.303.034.062.046.16.027.29-.018.13.004.231.066.302l3.605 4.278c-.448-1.556-.214-2.781.707-3.683.502-.485 1.263-.443 2.282.126.931.512 1.865 1.328 2.794 2.435.716.843 1.265 1.689 1.659 2.529zm5.897-6.406c.251.38.368.926.347 1.651.038.148-.066.493-.313 1.034-.274.628-.581 1.089-.936 1.4-.645.577-1.482.72-2.497.413-.938-.284-1.856-.875-2.75-1.752-.976-.953-1.649-1.972-2.031-3.06-.41-1.2-.342-2.182.228-2.96.116-.143.232-.285.352-.406.966-.982 2.1-.931 3.402.153.602.495.995 1.304 1.166 2.432a5.913 5.913 0 0 1-.479 3.512c.421.232.704.37.854.425.318.086.576.028.77-.164.185-.195.31-.47.376-.826.051-.309.061-.546.011-.728.015-.048-.042-.17-.181-.368a.69.69 0 0 1-.106-.618.45.45 0 0 1 .137-.209c.197-.202.476-.295.852-.296.355.003.63.128.798.367zm-6.274-2.328c-.32.332-.357.833-.089 1.5.357.89.871 1.61 1.531 2.155.258-.507.319-1.157.187-1.928-.132-.772-.379-1.338-.733-1.685-.31-.324-.61-.331-.896-.042zm7.165-9.24c.202.123.348.335.45.616.156.486.243.753.266.78.547 1.128 1.457 2.918 2.718 5.38.62 1.159 1.264 2.106 1.923 2.828.049.077.205.218.448.417.201.166.312.314.348.471.066.302-.031.587-.273.869-.432.496-.899.657-1.407.472a1.012 1.012 0 0 1-.296-.163.687.687 0 0 1-.203-.364c-.045-.16-.1-.291-.152-.36l-1.365-1.74-7.057-2.847a5.6 5.6 0 0 0-.619-.166 1.294 1.294 0 0 1-.512-.239c-.059-.049-.111-.117-.164-.185-.235-.364-.136-.794.309-1.296.273-.315.542-.515.812-.611.323-.1.667-.028 1.028.227.581.427.907.662.981.695l3.471 1.51-2.204-4.282c-.023-.028-.177-.242-.469-.623-.181-.232-.25-.452-.206-.668a.765.765 0 0 1 .186-.372c.224-.256.536-.423.938-.51.422-.082.771-.028 1.049.16zm9.005-7.796c.119.297.06.561-.158.798s-.44.452-.652.67l-.723 1.077 3.65 4.302c.193.226.462.37.799.43s.555.137.646.248a.504.504 0 0 1 .12.224c.135.417.013.788-.383 1.128a1.842 1.842 0 0 1-.867.416c-.322.06-.589.01-.795-.136-.249-.18-.522-.45-.823-.803l-3.518-4.116c-.111.228-.27.41-.491.552-.677.443-1.193.454-1.536.036a1.032 1.032 0 0 1-.217-.494c-.022-.132.08-.33.309-.606.346-.418.557-.699.644-.85-1.109-1.339-1.799-2.373-2.083-3.128-.393-1.049-.272-2.068.352-3.06a.706.706 0 0 1 .187-.204c.241-.209.576-.348.975-.425.406-.066.648-.034.718.112.123.215.083.485-.123.82-.235.399-.35.709-.351.918.009.66.158 1.239.413 1.744.204.396.568.883 1.1 1.472.043-.07.203-.325.479-.753.176-.271.367-.485.571-.643.232-.18.508-.264.847-.245.339.02.602.12.769.327.061.04.113.108.141.189zm6.578-4.82c.117.13.189.308.23.519.049.286.102.49.162.603 1.349 1.997 2.199 3.434 2.568 4.32.751 1.867.548 3.195-.607 3.974-1.68 1.132-3.551.168-5.614-2.89a24.345 24.345 0 0 1-1.582-2.747 2.597 2.597 0 0 1-.501-.517 1.188 1.188 0 0 1-.202-.887c.04-.27.214-.5.515-.7.236-.159.499-.268.782-.307.275-.042.484-.01.607.1a.57.57 0 0 1 .164.185c.089.121.162.363.247.702.083.349.184.6.325.757.266.603.679 1.313 1.226 2.126.555.826 1.069 1.473 1.551 1.953.566.548.96.73 1.205.574.407-.274.206-1.129-.587-2.58-.397-.727-1.095-1.837-2.098-3.321a6.04 6.04 0 0 0-.321-.39 2.847 2.847 0 0 1-.314-.377c-.149-.233-.177-.45-.066-.647.067-.115.184-.226.355-.342a2.31 2.31 0 0 1 1.017-.392c.394-.058.719.04.938.284zm8.043 5.297c.017.496-.251.896-.793 1.202-.504.286-.95.308-1.351.081a.704.704 0 0 1-.28-.283c-.054-.1-.113-.285-.177-.555a2.736 2.736 0 0 0-.217-.63l-5.569-9.73-.463-.82c-.039-.147.038-.333.244-.563.206-.23.45-.418.73-.584.415-.23.72-.304.912-.215.192.09.341.218.431.37.06.113.123.32.188.622s.141.534.228.696l5.111 9.07c.09.152.237.322.467.528.221.203.374.353.434.466a.506.506 0 0 1 .105.345zm3.31-10.867c.04.315-.086.559-.357.728-.27.168-.538.328-.803.477l-.979.853 2.404 5.106c.128.268.346.48.666.63.321.15.498.286.556.408.03.072.058.154.054.236.024.436-.201.765-.666.99a1.816 1.816 0 0 1-.95.172c-.327-.026-.574-.142-.725-.334a5.694 5.694 0 0 1-.587-.993l-2.322-4.893a1.366 1.366 0 0 1-.615.41c-.765.248-1.262.13-1.497-.37a.967.967 0 0 1-.078-.536c.009-.133.165-.305.454-.5.441-.316.723-.523.846-.653-.724-1.577-1.115-2.772-1.188-3.567-.101-1.117.272-2.07 1.138-2.863a1.12 1.12 0 0 1 .234-.149c.293-.14.643-.191 1.049-.152.406.04.627.138.672.297.064.24-.052.486-.333.756-.329.33-.524.594-.585.795-.163.64-.175 1.232-.052 1.792.088.434.313 1.004.671 1.718.059-.056.287-.258.661-.594.244-.219.48-.377.717-.473.266-.118.56-.123.883-.014.322.108.542.279.659.513.039.043.057.121.073.21zm2.183-5.941c.045.023.084.067.112.148.034.094.071.283.097.542.038.324.066.542.085.652.016.12.123.351.31.7.089.225.078.4-.033.523-.11.123-.266.223-.469.307-.294.11-.615.17-.96.17-.424-.014-.69-.136-.783-.384-.03-.072-.037-.189-.028-.353a1.169 1.169 0 0 0-.011-.38c-.012-.097-.094-.31-.252-.65-.131-.26-.14-.471-.046-.61.122-.193.407-.378.846-.549.478-.2.857-.242 1.132-.117zm1.734 3.868c.058.153.062.416.019.8-.043.383-.029.68.046.88l1.828 4.765c.082.213.258.496.527.849s.434.602.495.745c.082.213.062.416-.072.584a1.767 1.767 0 0 1-.777.6c-.414.158-.759.127-1.04-.084-.362-.256-.867-1.245-1.528-2.96-.157-.413-.403-1.051-.712-1.929-.319-.88-.555-1.515-.705-1.916a5.272 5.272 0 0 0-.275-.575 4.114 4.114 0 0 1-.255-.505 1.372 1.372 0 0 1 .034-1.077c.065-.147.242-.281.536-.39.294-.11.596-.176.928-.2.328-.016.55.01.679.1a.734.734 0 0 1 .272.313zm6.9 7.03c-.085.486-.42.834-1.012 1.03-.546.18-.997.117-1.334-.183a.72.72 0 0 1-.215-.327c-.041-.106-.056-.299-.064-.583-.01-.275-.036-.502-.091-.665l-3.573-10.631c-.19-.58-.287-.881-.294-.894-.016-.151.099-.325.341-.503.245-.187.516-.324.829-.428.452-.145.758-.157.942-.039a.96.96 0 0 1 .354.453c.038.115.067.333.066.646.002.304.031.553.093.728l3.264 9.89c.055.163.172.366.349.608.178.241.29.422.338.54.016.12.022.237.007.358zm8.341-10.368c-.091.024-.237.022-.446-.01-.21-.032-.365-.037-.469-.006a.76.76 0 0 0-.231.108l-.547.461 1.319 5.79c.05.214.225.466.536.748.312.282.465.538.464.746.004.263-.119.497-.36.706-.241.21-.525.353-.839.425-.594.134-1.067-.03-1.413-.51-.102-.147-.258-.633-.461-1.478a72.163 72.163 0 0 1-.59-2.644c-.287-1.362-.466-2.22-.555-2.582-.066.043-.158.14-.292.309a.72.72 0 0 1-.425.3 1.734 1.734 0 0 1-.494.007c-.85-.09-1.305-.28-1.376-.563a.653.653 0 0 1-.003-.23c.039-.198.165-.337.375-.41.319-.122.5-.203.568-.256.236-.158.657-.512 1.259-1.05l-.339-1.472a1.5 1.5 0 0 0-.195-.424c-.106-.168-.17-.302-.185-.39a.516.516 0 0 1 .02-.308c.188-.518.534-.831 1.027-.943.573-.13 1.035 0 1.375.395.128.164.214.295.233.405.032.135-.005.291-.111.468-.106.177-.139.324-.107.459l.187.83c.186-.132.374-.337.572-.611.155-.204.304-.315.439-.348a.48.48 0 0 1 .19-.005c.754.03 1.213.378 1.355 1.048.05.213.027.426-.052.653a.59.59 0 0 1-.429.382zm10.038 4.837c.115.275.177.45.195.529.041.242-.066.46-.324.654a1.926 1.926 0 0 1-.865.376c-.495.08-.84-.056-1.03-.396a.893.893 0 0 1-.14-.366c-.026-.154.013-.32.122-.506.099-.19.142-.365.122-.507.04-.615-.022-1.48-.205-2.6-.311-1.944-.6-2.92-.882-2.921-.209-.001-.489.374-.845 1.133-.367.798-.64 1.666-.819 2.605-.21 1.106-.228 2.062-.038 2.851-.023.077-.034.146-.023.213.022.1.083.244.208.418.125.173.186.317.205.427a.51.51 0 0 1-.073.344c-.233.494-.513.764-.822.817-.318.05-.665-.15-1.048-.61-.222-.266-.576-1.961-1.071-5.089-.178-1.14-.57-3.745-1.145-7.816a2.371 2.371 0 0 0-.072-.315c-.029-.145-.06-.248-.066-.333a.764.764 0 0 1 .057-.328c.088-.255.337-.42.743-.486a1.876 1.876 0 0 1 1.048.13c.333.142.487.356.457.63-.001.072-.047.152-.122.265-.086.11-.115.206-.1.294l.878 5.521c.422-1.565 1.256-2.493 2.517-2.79.682-.15 1.307.27 1.889 1.282.535.925.912 2.094 1.136 3.53.183 1.122.214 2.124.113 3.044zm6.296-8.293c.855.698 1.39 1.967 1.603 3.818.16 1.438.03 2.695-.399 3.766-.479 1.203-1.254 1.867-2.326 1.991-1.06.119-1.935-.303-2.617-1.262-.602-.84-.987-1.95-1.143-3.334-.132-1.22-.068-2.33.217-3.34.296-1.08.761-1.755 1.381-2.006a3.706 3.706 0 0 1 1.018-.256c.886-.098 1.638.11 2.266.623zm-1.872 1.042c-.379.01-.675.402-.859 1.182a6.622 6.622 0 0 0-.126 2.177c.121 1.081.256 1.843.395 2.282.253.787.631 1.194 1.147 1.215.33.016.579-.462.745-1.425.165-.922.188-1.897.071-2.925-.18-1.685-.639-2.514-1.373-2.506zm10.845 4.997c.048.809-.208 1.515-.748 2.125-.549.606-1.211.928-1.997.972-.5.027-1.021-.183-1.587-.626a6.565 6.565 0 0 1-1.204-1.336c-.317-.472-.458-.766-.43-.893.112-.3.506-.463 1.175-.501.278-.02.497.015.664.086.282.138.448.313.502.55.046.264.12.432.207.49.269.353.489.524.688.522.149-.008.288-.122.412-.325.127-.212.177-.448.16-.735a1.743 1.743 0 0 0-.116-.516c-.064-.165-.394-.422-.976-.744-.707-.392-1.209-.732-1.522-1.046a2.857 2.857 0 0 1-.856-1.9c-.05-.872.163-1.643.641-2.324.468-.684 1.1-1.046 1.886-1.09.809-.048 1.446.229 1.905.817.378.48.553.972.522 1.485.137.135.216.358.232.686.019.351-.093.652-.336.902-.246.26-.495.393-.761.407-.391.017-.749-.217-1.067-.72-.086-.13-.135-.313-.148-.547a4.674 4.674 0 0 1-.003-.44 3.241 3.241 0 0 0-.001-.407c-.015-.297-.136-.449-.351-.43-.341.022-.483.355-.443 1.015.038.67.286 1.194.746 1.574.185.15.57.36 1.166.635.516.229.883.465 1.099.719.32.358.499.903.541 1.595zm7.609.476c-.092.442-.411.91-.938 1.408-.082.132-.403.296-.957.505-.639.245-1.193.349-1.652.314-.872-.055-1.557-.554-2.045-1.496-.448-.867-.68-1.93-.674-3.192.007-1.367.255-2.567.764-3.593.563-1.136 1.33-1.77 2.272-1.914.186-.027.366-.035.543-.034 1.38 0 2.137.845 2.273 2.537.069.773-.24 1.62-.923 2.531-.744 1.008-1.689 1.714-2.846 2.117.13.467.227.768.291.903.163.29.379.438.664.43.262-.004.554-.103.848-.317.252-.175.428-.341.518-.502.05-.027.087-.151.138-.387.05-.235.166-.41.365-.516a.665.665 0 0 1 .245-.051c.282.002.545.134.806.411.264.268.366.55.308.846zm-2.723-6.122c-.459-.003-.842.33-1.124.987-.381.877-.54 1.748-.475 2.604.543-.17 1.044-.583 1.507-1.216.463-.633.697-1.2.693-1.702.007-.437-.196-.665-.601-.673zm14.466-.02c-.073.24-.306.389-.706.435-.47.067-.774.173-.921.316l-3.128 2.982-.253 2.63c-.025.253.021.518.148.786.115.275.168.48.16.613a1.009 1.009 0 0 1-.168.45c-.242.418-.651.597-1.251.541-.415-.042-.733-.2-.947-.495a.946.946 0 0 1-.18-.682c.007-.092.031-.241.073-.448.042-.207.072-.375.078-.499l.618-6.458c.009-.101-.023-.236-.1-.396-.077-.159-.112-.285-.105-.376a.559.559 0 0 1 .091-.234c.173-.26.651-.357 1.444-.284.609.06.943.234.999.533.026.122.028.217.024.3a.332.332 0 0 1-.169.282c-.103.064-.152.122-.162.192l-.024.63 1.634-1.428c.191-.182.391-.362.602-.539a1.07 1.07 0 0 1 .698-.269c.395.005.766.127 1.111.368.345.24.498.527.47.863-.001.073-.019.13-.036.188zm5.455 8.004c-.159.422-.544.829-1.149 1.24-.098.117-.446.232-1.025.349-.67.142-1.226.151-1.675.046-.85-.194-1.443-.791-1.787-1.794-.304-.928-.363-2.012-.163-3.257.219-1.344.658-2.486 1.319-3.425.74-1.03 1.583-1.537 2.542-1.53.187.005.368.029.539.05 1.357.211 1.975 1.172 1.841 2.855-.057.777-.494 1.564-1.307 2.352-.893.88-1.938 1.43-3.14 1.64.054.477.104.795.146.933.116.307.311.491.581.531.258.047.559-.018.887-.17.281-.134.48-.273.596-.415.047-.017.116-.142.196-.37a.694.694 0 0 1 .439-.451.526.526 0 0 1 .244-.01c.279.043.518.22.736.536.224.33.283.619.18.89zm-1.724-6.456c-.457-.076-.883.192-1.275.795-.515.805-.808 1.636-.87 2.495.561-.092 1.128-.411 1.682-.964.554-.554.881-1.081.956-1.57.07-.44-.092-.697-.493-.756zm10.863.907a.668.668 0 0 1-.007.3c-.025.119-.107.25-.245.397-.129.149-.214.29-.251.415l-2.369 9.585a1.66 1.66 0 0 0-.023.557c.026.227.015.401-.011.52a1.12 1.12 0 0 1-.163.367c-.237.368-.638.486-1.193.35-.681-.165-1.081-.536-1.191-1.103a.743.743 0 0 1 .002-.354c.034-.146.165-.337.376-.586.212-.25.348-.46.391-.634l.538-2.157c-.666.613-1.223.863-1.688.743-.815-.205-1.379-.898-1.684-2.098-.262-1.103-.249-2.249.05-3.443.318-1.293.739-2.305 1.278-3.05.686-.953 1.495-1.314 2.428-1.084.701.17 1.212.691 1.543 1.564a3.474 3.474 0 0 0-.002-.407 1.61 1.61 0 0 1 .005-.396.379.379 0 0 1 .143-.229c.189-.14.508-.16.944-.048.698.18 1.078.441 1.129.791zm-3.429 3.873a7.692 7.692 0 0 0 .203-2.154c-.034-.752-.181-1.162-.433-1.228-.554-.137-.988.432-1.297 1.697-.034.146-.085.35-.157.621-.055.286-.106.49-.132.608-.173.71-.275 1.358-.287 1.95-.012.728.11 1.12.374 1.18.223.056.55-.263.964-.942.381-.637.64-1.216.765-1.732zm11.239-.297c-.031.168-.134.336-.284.489-.2.21-.332.37-.388.488-.792 2.268-1.438 3.817-1.937 4.638-1.053 1.719-2.235 2.343-3.548 1.883-1.907-.672-2.259-2.753-1.04-6.229a23.04 23.04 0 0 1 1.257-2.91c.012-.279.052-.517.123-.715.108-.323.31-.544.594-.688.237-.126.531-.131.87-.008.275.094.513.239.712.445.201.197.292.381.284.546a.647.647 0 0 1-.051.236c-.053.14-.189.35-.416.615-.227.266-.372.504-.414.71-.319.573-.652 1.329-.975 2.255-.325.936-.546 1.736-.644 2.407-.099.774-.011 1.208.264 1.302.463.161 1.032-.513 1.715-2.01.353-.75.815-1.967 1.411-3.657.034-.115.081-.269.119-.497.044-.217.072-.376.113-.478.091-.265.248-.405.488-.437.129-.014.288.014.489.075.358.129.667.316.921.581.287.328.401.644.337.959zm4.483 9.318c-.265.359-.754.66-1.437.882-.128.076-.491.102-1.074.061-.675-.047-1.22-.18-1.631-.41-.762-.418-1.177-1.15-1.232-2.212-.049-.976.19-2.042.724-3.187.573-1.236 1.299-2.218 2.196-2.94.994-.796 1.948-1.05 2.86-.784.182.055.352.117.506.195 1.246.575 1.586 1.66 1.001 3.249-.264.735-.895 1.37-1.895 1.913a5.903 5.903 0 0 1-3.473.735c-.081.477-.114.791-.106.94.025.331.167.552.414.668.237.114.544.134.907.076.308-.052.531-.131.679-.243.054-.005.146-.102.289-.3a.708.708 0 0 1 .545-.315.666.666 0 0 1 .245.053c.247.117.437.352.561.703.124.383.098.677-.079.916zm.083-6.693c-.423-.19-.903-.054-1.437.433-.716.64-1.218 1.365-1.512 2.164.565.067 1.196-.087 1.878-.476.692-.386 1.133-.806 1.342-1.255.184-.404.094-.692-.271-.866zm6.309 9.904c-.42.698-1.022 1.132-1.813 1.331-.789.19-1.52.084-2.201-.321-.425-.254-.742-.726-.954-1.407a6.357 6.357 0 0 1-.242-1.787c.003-.563.051-.893.152-.988.255-.184.678-.098 1.254.244.238.145.403.289.502.444.16.268.198.52.103.732-.107.25-.147.415-.115.518.012.443.108.712.275.815.132.082.306.061.524-.04.219-.1.398-.276.543-.515.087-.15.156-.308.192-.495.042-.175-.089-.57-.39-1.163-.368-.718-.59-1.297-.671-1.718a2.815 2.815 0 0 1 .36-2.054c.445-.743 1.063-1.266 1.83-1.557.77-.3 1.496-.247 2.175.168.688.417 1.065 1.002 1.111 1.747.036.606-.095 1.11-.407 1.517.037.189-.032.418-.199.692a1.133 1.133 0 0 1-.785.556c-.346.073-.631.05-.86-.093-.334-.206-.497-.6-.473-1.198.005-.155.061-.337.185-.54.057-.087.136-.21.246-.364.109-.155.195-.265.228-.339.151-.257.133-.44-.051-.558-.292-.173-.603.026-.939.582-.341.576-.433 1.155-.271 1.726.066.229.27.625.605 1.176.295.476.464.882.499 1.216.1.532-.056 1.08-.413 1.673zm9.228-.039c-.078-.055-.167-.176-.279-.356-.113-.18-.211-.304-.289-.359a.69.69 0 0 0-.227-.11l-.713-.133-3.611 4.716c-.137.178-.215.468-.238.89-.023.42-.116.695-.283.833-.198.17-.466.225-.774.173a1.957 1.957 0 0 1-.858-.374c-.482-.376-.653-.846-.511-1.42.043-.174.328-.6.843-1.3.342-.472.901-1.18 1.662-2.141a161.827 161.827 0 0 0 1.631-2.077 1.494 1.494 0 0 0-.421-.023.811.811 0 0 1-.513-.134c-.1-.083-.211-.2-.324-.38-.472-.718-.624-1.182-.45-1.411a.53.53 0 0 1 .179-.144.51.51 0 0 1 .545.029c.293.172.476.259.555.272.278.084.812.183 1.612.3l.916-1.196a1.35 1.35 0 0 0 .2-.42c.068-.188.128-.316.182-.394a.58.58 0 0 1 .255-.184c.516-.189.977-.122 1.384.19.466.36.658.794.565 1.309-.042.207-.095.347-.165.441-.086.11-.223.184-.431.215-.208.03-.345.104-.418.207l-.519.68c.223.056.502.067.84.055.253-.007.441.029.551.114.042.034.09.08.133.145.457.598.482 1.17.067 1.713a1.019 1.019 0 0 1-.54.37c-.195.055-.398.036-.556-.096zm1.678 9.128c-.553.585-1.241.889-2.053.914-.809.017-1.503-.246-2.081-.786-.367-.341-.575-.864-.63-1.58a6.406 6.406 0 0 1 .147-1.795c.127-.557.241-.867.354-.927.287-.122.684.05 1.172.511.204.187.336.373.401.54.096.3.084.547-.056.735-.159.213-.23.38-.22.487-.08.435-.041.72.096.854.104.105.285.129.521.075.236-.054.453-.187.641-.392.123-.13.217-.268.301-.441.08-.164.037-.574-.132-1.22-.202-.783-.302-1.388-.285-1.822a2.802 2.802 0 0 1 .791-1.923 3.638 3.638 0 0 1 2.12-1.134c.822-.128 1.511.081 2.089.622.585.553.828 1.201.718 1.941-.087.6-.334 1.07-.723 1.39-.005.187-.113.405-.34.64a1.15 1.15 0 0 1-.888.378c-.354-.003-.622-.084-.817-.268-.283-.274-.355-.693-.21-1.276.037-.156.137-.313.294-.485.074-.072.178-.176.32-.3.142-.125.244-.22.303-.274.202-.221.226-.402.073-.553-.244-.23-.595-.107-1.043.374-.461.487-.667 1.03-.629 1.627.013.234.133.668.343 1.285.185.526.264.957.235 1.294-.078.498-.336 1.005-.812 1.509z" fill="#B69538"/><path d="M413.498 75.5c2 2.4 3.834 7.333 4.5 9.5v-9.5c-1.5-1.333-4.5-4.3-4.5-5.5 0-1.5-6.5-7-10-8.5s1 4 3.5 5.5 4 5.5 6.5 8.5z" fill="#5C4B1C"/></svg>