<svg width="551" height="214" fill="none" xmlns="http://www.w3.org/2000/svg"><path d="M169.186 39.097a2.457 2.457 0 0 0-.105-.055c-.563-.273-1.172-.258-1.74-.232-14.242.611-30.749 1.707-44.09 4.487-40.362 8.411-72.165 34.583-84.258 68.958-4.221 12.002-5.877 25.181-4.712 38.761.566 6.604 2.172 13.731 4.313 20.582 2.094 6.695 5.181 14.318 7.654 21.32.058.166-.151.262-.334.179-2.133-.974-12.089-4.134-12.85-4.312-3.42-.799-4.248 1.411-.607 3.048 4.284 1.925 7.922 3.181 12.248 4.74 1.451.524 4.47 1.892 5.82 1.664 1.598-.27 2.112-1.742 2.876-2.924 1.725-2.661 3.89-5.551 5.145-8.501 1.155-2.719-.62-7.01-3.192-2.934-1.683 2.667-3.554 5.653-5.049 8.46-.054.103-.242.059-.285-.067-.964-2.787-3.026-7.711-4.127-10.139-17.355-38.279-4.134-82.048 22.338-106.513A113.56 113.56 0 0 1 85.29 62.642c22.502-14.016 54.785-19.3 80.668-20.187 1.265-.044 2.687.122 3.574-.52.861-.624.803-2.192-.345-2.838zm366.775-.314c-2.342-.874-.404 2.503.295 3.38 1.771 2.226 4.341 5.086 6.13 7.162.043.05.005.124-.063.123-4.024-.082-8.461-.865-12.042-1.386-3.627-.528-7.52-.847-11.138-1.554-7.9-1.546-15.74-2.965-23.509-5.108-15.771-4.352-31.046-10.307-45.452-17.893-18.086-9.523-38.126-18.943-58.965-13.154-12.577 3.494-23.233 11.572-31.67 21.044-.538.604-.971 1.572-.312 2.076.492.375 9.366-7.77 10.318-8.53 8.09-6.458 18.513-12.01 29.352-13.394 10.982-1.402 22.073 1.642 32.131 5.676 15.485 6.211 29.734 15.285 45.461 21.155a194.15 194.15 0 0 0 33.202 9.16c5.589 1.014 11.207 1.862 16.83 2.666 2.483.355 5.32.782 7.93 1.198 1.208.193 6.061.957 7.767 1.039.122.006.189.14.115.23-2.017 2.403-5.719 5.308-6.367 7.337-.12.38.276.73.677.619 3.033-.84 8.533-6.718 10.459-9.042.921-1.112-8.066-10.075-9.793-11.793-.386-.384-1.026-.887-1.356-1.01zm-337.242-4.138c.113.199.156.387.152.548-.001.152-.078.332-.211.546-.17.268-.281.474-.32.6l-2.885 8.33c-.086.24-.137.525-.157.866-.002.152-.003.364.008.638.01.274.021.478.012.608-.022.634-.248 1.076-.687 1.315-.43.24-.881.356-1.363.336-.624-.02-1.165-.261-1.623-.722-.283-.274-.414-.627-.394-1.038.009-.13.028-.33.09-.614.052-.285.083-.503.087-.664.009-.2-.006-.375-.052-.543l-1.292-5.333-2 6.074c-.04.136.016.306.168.51.152.204.219.366.213.476-.045.933-.315 1.672-.817 2.205-.251.266-.584.4-1.005.378-.624-.02-1.08-.289-1.382-.778a1.118 1.118 0 0 1-.136-.596 6.05 6.05 0 0 0-.022-.68l-2.087-10.886a2.7 2.7 0 0 0-.185-.533 1.109 1.109 0 0 1-.14-.495c.016-.311.204-.566.566-.756a1.87 1.87 0 0 1 .982-.22c.372.014.68.12.924.316.199.161.305.399.318.724.014.326.018.64.033.955l1.011 6.767 2.257-7.138c.023-.088.012-.22-.024-.388a1.435 1.435 0 0 1-.069-.364c.002-.15.075-.302.21-.464.233-.28.636-.412 1.229-.386.704.022 1.207.247 1.499.664.117.168.183.34.168.51-.001.08-.028.197-.073.362a1.742 1.742 0 0 0-.073.364.802.802 0 0 0 .027.226l1.684 6.876 2.381-7.03c.03-.066.057-.386.11-.954.035-.379.164-.643.38-.803.395-.286.85-.422 1.371-.396.524.016.899.212 1.117.587zm4.789 13.506c-.173.419-.564.817-1.178 1.212-.107.106-.446.218-1.028.325-.665.125-1.232.133-1.679.007-.847-.215-1.425-.825-1.743-1.831-.288-.932-.32-2.028-.088-3.268.246-1.338.705-2.474 1.395-3.393.764-1.01 1.624-1.501 2.58-1.473.191.008.369.034.538.059 1.358.249 1.944 1.214 1.779 2.898-.073.777-.52 1.55-1.361 2.327a5.94 5.94 0 0 1-3.181 1.576c.04.481.086.791.125.939.107.308.301.498.567.547.266.05.556 0 .891-.152.281-.121.484-.263.604-.397.053-.013.121-.134.205-.364a.682.682 0 0 1 .448-.44.471.471 0 0 1 .244-.005c.275.05.511.236.718.55.207.313.273.616.164.883zm-1.587-6.498c-.452-.087-.885.174-1.285.772-.532.802-.844 1.625-.929 2.482.566-.07 1.137-.38 1.701-.924.575-.542.903-1.06.985-1.554.085-.442-.068-.707-.472-.776zm11.336 9.135a2.823 2.823 0 0 1-1.516 1.658c-.738.347-1.48.38-2.219.11-.47-.17-.878-.563-1.209-1.197a6.157 6.157 0 0 1-.58-1.702c-.112-.552-.123-.887-.047-.997.216-.231.64-.23 1.275-.006.258.098.454.208.577.337.209.233.295.468.252.694-.059.264-.063.435-.007.534.099.43.244.683.436.751.144.052.312.006.505-.138a1.29 1.29 0 0 0 .433-.614c.055-.164.091-.34.097-.521.006-.181-.205-.536-.612-1.07-.493-.638-.832-1.152-.985-1.559a2.79 2.79 0 0 1-.04-2.077c.292-.817.789-1.452 1.489-1.885.701-.443 1.421-.53 2.16-.26.759.272 1.242.768 1.439 1.494.157.588.121 1.109-.108 1.57.076.173.051.412-.055.72a1.176 1.176 0 0 1-.658.702c-.325.145-.61.164-.86.077-.375-.136-.606-.493-.701-1.083-.028-.156-.001-.344.072-.566.035-.096.096-.238.171-.41l.166-.37c.102-.287.046-.457-.154-.537-.317-.117-.586.137-.809.761-.224.634-.207 1.213.07 1.738.111.209.382.562.828 1.041.384.41.625.769.729 1.097.141.486.098 1.055-.139 1.708zm6.547 3.818c-.284.352-.778.623-1.475.825-.131.072-.486.08-1.083.013-.677-.068-1.21-.227-1.609-.467-.744-.443-1.129-1.196-1.145-2.26-.009-.981.276-2.031.844-3.15.622-1.214 1.389-2.173 2.317-2.856 1.02-.75 1.982-.973 2.898-.668.172.066.344.132.494.214 1.223.623 1.516 1.728.873 3.291-.288.726-.953 1.336-1.966 1.835a5.818 5.818 0 0 1-3.502.59c-.099.47-.146.787-.147.938.011.335.141.556.395.684.235.116.532.16.903.112.308-.035.532-.114.688-.212.051-.003.156-.099.305-.29a.71.71 0 0 1 .558-.292.555.555 0 0 1 .243.066c.244.127.422.365.53.735.097.367.055.654-.121.892zm.35-6.68c-.414-.212-.896-.09-1.458.363-.736.61-1.273 1.31-1.602 2.11.563.093 1.198-.037 1.898-.4.698-.352 1.162-.76 1.388-1.201.21-.394.131-.689-.226-.872zm6.669 12.465c-.17.198-.433.27-.793.238a1.977 1.977 0 0 1-1.004-.39c-.457-.329-.675-.704-.635-1.113 2.144-2.85 3.115-4.375 2.894-4.59-.213-.202-1.707.68-4.513 2.666l-.61.85c-.251.338-.519.51-.793.521a1.063 1.063 0 0 1-.711-.184c-.339-.242-.566-.69-.696-1.325-.044-.178.409-.93 1.354-2.278-.575.825.516-.693 3.273-4.555a2.7 2.7 0 0 0 .215-.362c.084-.16.151-.272.2-.335a.924.924 0 0 1 .478-.365c.235-.087.471-.042.72.126.256.179.459.45.631.8.17.358.232.62.185.805a.785.785 0 0 1-.148.322c-.064.091-.202.203-.4.315a1.273 1.273 0 0 0-.414.344l-1.396 1.948c1.496-.832 2.541-1.346 3.126-1.544 1.036-.313 1.878-.2 2.519.328.388.32.404.898.058 1.747-.255.64-.766 1.505-1.529 2.576-.609.85-1.208 1.693-1.817 2.544-.031.076-.046.246-.052.497.029.146-.031.279-.142.414zm5.037 5.689c-.305.147-.737-.007-1.284-.481-.341-.292-.514-.56-.511-.792-.008-.082.023-.159.096-.239.049-.063.151-.14.317-.236.156-.099.268-.173.338-.234-.892.223-1.613.108-2.162-.356-.727-.622-.914-1.488-.538-2.606.285-.847.857-1.785 1.723-2.8.793-.935 1.712-1.62 2.764-2.042 1.149-.458 2.052-.417 2.69.13.359.306.483.91.37 1.824l1.452-1.708c.122-.144.216-.373.292-.685.076-.313.159-.533.257-.65a.78.78 0 0 1 .293-.21c.52-.237 1.05-.13 1.59.324.44.377.576.76.415 1.172-.05.134-.128.254-.203.354-.085.099-.222.2-.42.313a1.813 1.813 0 0 0-.444.34l-6.407 7.532c-.085.098-.146.241-.195.436-.048.195-.11.338-.184.428a.918.918 0 0 1-.249.186zm1.142-5.048c.342-.405.665-.954.967-1.637.311-.743.376-1.189.195-1.336-.207-.172-.589-.046-1.179.393a8.434 8.434 0 0 0-1.413 1.37c-.085.099-.219.251-.422.464-.183.216-.318.378-.414.485-.843.999-1.053 1.676-.622 2.042.207.172.631.042 1.29-.388a6.819 6.819 0 0 0 1.598-1.393zm9.681 12.734c-.476.355-.988.33-1.537-.063-.182-.138-.313-.278-.382-.43-.07-.212-.029-.489.143-.838.272-.617.466-1.114.572-1.493-.406.497-1.059.816-1.979.954-.92.139-1.649.012-2.188-.38-.686-.495-.831-1.294-.428-2.397.15-.403.334-.76.55-1.062.632-.868 1.613-1.29 2.954-1.266 1.046.102 2.092.205 3.136.327.15-.13.282-.272.396-.427.214-.292.257-.519.131-.689a1.738 1.738 0 0 0-.35-.374.805.805 0 0 0-.623-.162c-.218.039-.425.07-.621.101-.171-.004-.433.058-.809.206-.3.117-.532.114-.719.016-.262-.15-.428-.396-.479-.737-.051-.341.012-.635.203-.9a.936.936 0 0 1 .411-.325c.474-.203 1.02-.275 1.64-.225.937.087 1.9.48 2.888 1.19.63.457.843 1.074.64 1.843-.146.514-.581 1.35-1.306 2.507-.892 1.396-1.5 2.449-1.827 3.16-.069.13-.101.348-.092.632.007.294-.044.51-.145.646a.8.8 0 0 1-.179.186zm.067-5.225a23.325 23.325 0 0 0-1.172-.141 4.09 4.09 0 0 0-1.224.074c-.617.142-1.021.346-1.222.62-.165.228-.248.52-.261.881.001.202.052.341.172.42.247.177.704.092 1.389-.242.676-.336 1.451-.87 2.318-1.612zm15.071 3.638c-.141.202-.404.275-.808.206-.474-.08-.798-.077-.973.019l-3.893 1.877-1.051 2.423c-.106.237-.134.496-.106.793.027.297.016.508-.042.63a1.31 1.31 0 0 1-.298.382c-.351.322-.812.366-1.364.134-.38-.167-.636-.417-.748-.757a.93.93 0 0 1 .041-.7c.033-.087.103-.218.211-.405.107-.176.179-.327.228-.451l2.579-5.96c.044-.095.054-.235.018-.402-.025-.175-.016-.305.017-.391.03-.067.08-.13.161-.2.251-.195.737-.134 1.46.174.561.243.824.514.781.811a1.314 1.314 0 0 1-.073.293.337.337 0 0 1-.244.217c-.115.023-.183.074-.211.13l-.217.586 1.995-.861c.238-.107.487-.222.735-.327a1.07 1.07 0 0 1 .744-.043 1.9 1.9 0 0 1 .94.693c.253.34.307.662.182.967a.255.255 0 0 1-.064.162zm4.023 8.431c-.21.394-.638.766-1.292 1.095-.117.104-.47.174-1.053.22-.675.053-1.233.002-1.676-.154-.816-.291-1.334-.963-1.556-2.006-.193-.958-.115-2.048.234-3.26.374-1.31.957-2.397 1.728-3.245.854-.936 1.762-1.339 2.712-1.2.188.027.365.063.528.117 1.319.385 1.816 1.408 1.482 3.067-.152.766-.672 1.489-1.582 2.184a5.834 5.834 0 0 1-3.325 1.242c-.01.484.005.8.034.945.074.324.247.521.509.6.251.077.558.051.908-.06.297-.097.505-.208.636-.34.052-.013.129-.123.241-.34a.708.708 0 0 1 .492-.392.674.674 0 0 1 .251.016c.261.079.484.283.658.612.193.341.21.637.071.9zm-.922-6.623c-.447-.125-.901.08-1.357.64-.613.74-1.002 1.532-1.176 2.376.569-.018 1.171-.264 1.787-.75.617-.486 1-.965 1.141-1.44.125-.446-.007-.718-.395-.826zm10.439.647c.023.114.03.206.016.305-.018.119-.088.25-.213.414-.125.163-.196.305-.214.433l-1.656 9.733c-.021.149-.018.331.02.559.037.228.042.4.025.519a1.184 1.184 0 0 1-.137.384c-.208.384-.593.53-1.165.436-.7-.122-1.116-.456-1.269-1.004a.75.75 0 0 1-.028-.358c.022-.148.133-.354.331-.608.201-.264.313-.48.341-.668l.37-2.19c-.612.66-1.16.953-1.622.865-.828-.141-1.44-.796-1.835-1.966-.347-1.082-.413-2.223-.205-3.436.222-1.311.566-2.353 1.044-3.132.611-1.002 1.4-1.422 2.346-1.254.71.124 1.257.599 1.658 1.446a2.433 2.433 0 0 0-.031-.41 1.57 1.57 0 0 1-.024-.387.387.387 0 0 1 .127-.244c.174-.156.494-.2.938-.126.711.114 1.102.343 1.183.689zm-3.129 4.12c.121-.69.136-1.415.043-2.166-.092-.751-.266-1.15-.533-1.19-.563-.092-.952.498-1.171 1.79-.022.148-.062.354-.103.632-.042.286-.062.496-.091.623-.125.72-.17 1.37-.136 1.97.045.725.191 1.11.458 1.15.228.032.529-.297.896-1.012.332-.679.55-1.274.637-1.797zm10.892-2.622a.93.93 0 0 1-.14.545c-.128.254-.218.454-.245.57-.16 2.403-.371 4.06-.637 4.981-.555 1.93-1.53 2.859-2.92 2.757-2.022-.134-2.905-2.042-2.658-5.735.064-.991.217-2.04.438-3.14a2.67 2.67 0 0 1-.076-.718c.018-.331.15-.615.383-.823.198-.184.473-.265.833-.242.29.022.552.1.804.238.243.137.383.289.419.456a.704.704 0 0 1 .015.244c-.012.15-.086.382-.235.704-.148.322-.216.585-.207.798-.164.633-.272 1.446-.335 2.427-.064.992-.064 1.82.02 2.49.11.773.315 1.167.595 1.188.48.03.859-.764 1.118-2.394.138-.808.268-2.113.389-3.904.007-.12 0-.283-.017-.508a4.537 4.537 0 0 1-.02-.488c.021-.28.139-.465.354-.555.119-.053.283-.07.492-.049.381.025.73.127 1.036.313.368.246.571.518.594.845zm7.602 6.478c-.085.442-.376.915-.897 1.435-.08.13-.388.307-.936.53-.625.263-1.178.384-1.639.357-.864-.035-1.563-.511-2.084-1.437-.471-.857-.731-1.915-.769-3.174-.033-1.37.183-2.57.659-3.613.531-1.145 1.275-1.804 2.218-1.97.186-.023.361-.048.534-.053 1.38-.04 2.16.78 2.346 2.475.09.771-.187 1.63-.849 2.564-.717 1.028-1.642 1.761-2.788 2.2.146.456.244.753.324.897.17.287.393.42.667.41.265-.011.544-.122.837-.332.248-.176.416-.354.511-.522.044-.023.084-.16.129-.395a.71.71 0 0 1 .349-.525.432.432 0 0 1 .241-.056c.274-.01.548.12.823.383.265.261.377.53.324.826zm-2.888-6.031c-.467.012-.83.353-1.099 1.021-.352.889-.49 1.758-.393 2.621.542-.183 1.028-.608 1.477-1.26.449-.651.665-1.226.646-1.724-.025-.448-.235-.671-.631-.658zm10.75 4.522c.115.805-.081 1.524-.569 2.17-.489.647-1.131 1.028-1.905 1.137-.495.07-1.038-.091-1.626-.49a6.264 6.264 0 0 1-1.315-1.234c-.351-.435-.521-.723-.501-.861.084-.301.457-.5 1.127-.593.279-.04.5-.028.674.027.296.114.474.282.542.504.073.264.152.416.245.47.294.337.536.483.731.461.144-.02.273-.142.376-.36.102-.217.139-.464.099-.743a1.92 1.92 0 0 0-.159-.508c-.077-.163-.428-.386-1.036-.657-.739-.33-1.272-.63-1.605-.912a2.844 2.844 0 0 1-1.006-1.824c-.118-.856.029-1.654.437-2.372.419-.717 1.015-1.135 1.789-1.244.805-.115 1.461.102 1.967.651.41.444.623.92.639 1.438.143.122.243.338.287.658.052.341-.034.652-.257.933-.223.28-.457.428-.726.47-.392.053-.766-.153-1.121-.63-.103-.125-.167-.307-.195-.533a6.117 6.117 0 0 1-.036-.44 9.368 9.368 0 0 0-.032-.409c-.037-.298-.169-.429-.386-.4-.329.043-.452.399-.365 1.048.095.661.385 1.168.882 1.504.192.139.601.31 1.216.531.528.189.912.396 1.161.625.34.373.567.891.668 1.583zm6.408-7.269c-.095.027-.236.026-.444-.004a1.26 1.26 0 0 0-.465.002.659.659 0 0 0-.219.11l-.534.478 1.494 5.746c.06.211.246.46.561.73.314.267.479.524.488.737.012.265-.103.5-.347.718-.234.218-.509.37-.823.445-.599.155-1.071-.004-1.427-.47-.112-.138-.273-.627-.503-1.47-.161-.558-.377-1.429-.668-2.623-.328-1.352-.537-2.201-.626-2.558-.067.041-.154.15-.279.313-.125.164-.262.275-.419.313a1.475 1.475 0 0 1-.498.018c-.85-.064-1.32-.233-1.39-.516a.527.527 0 0 1-.006-.234.5.5 0 0 1 .353-.413c.312-.126.497-.22.555-.273.227-.169.644-.532 1.22-1.085l-.383-1.46a1.423 1.423 0 0 0-.21-.425c-.107-.168-.179-.3-.197-.383a.543.543 0 0 1 .015-.31c.177-.52.508-.846 1.002-.976.567-.15 1.035-.03 1.383.354.14.151.221.285.245.4.031.135.007.293-.089.471-.097.178-.13.335-.097.451l.214.82c.183-.145.365-.351.557-.626.152-.21.291-.332.426-.362a.535.535 0 0 1 .194-.013c.757.01 1.224.341 1.39 1.002.06.21.048.431-.035.652-.097.248-.239.39-.438.441zm10.411-4.694a.698.698 0 0 1-.369.724c-.276.162-.542.325-.806.468l-.991.835 2.352 5.135c.122.27.343.484.655.631.313.147.495.285.556.415a.78.78 0 0 1 .056.24c.017.438-.202.76-.679.983a1.894 1.894 0 0 1-.954.163c-.328-.037-.565-.143-.717-.347-.187-.24-.38-.581-.572-.993l-2.273-4.92c-.169.187-.371.33-.615.405-.773.24-1.27.117-1.49-.38a1.031 1.031 0 0 1-.074-.536c.019-.129.165-.3.457-.5.45-.308.733-.519.852-.643-.707-1.589-1.089-2.777-1.155-3.575-.089-1.114.293-2.069 1.165-2.851.068-.05.146-.1.234-.148.293-.139.642-.179 1.051-.14.409.04.626.143.664.3.055.24-.051.488-.342.748-.341.325-.53.58-.591.793-.163.633-.191 1.236-.069 1.789.087.437.307 1.005.657 1.723.068-.05.289-.25.663-.59.243-.217.489-.373.725-.47.269-.112.562-.11.891-.011.318.107.535.28.652.52.029.074.049.148.067.231zm4.721-3.898c1.077.238 2.128 1.14 3.133 2.701.782 1.216 1.226 2.393 1.32 3.549.103 1.298-.286 2.232-1.19 2.817-.893.577-1.866.597-2.906.04-.921-.478-1.75-1.306-2.509-2.469-.669-1.027-1.094-2.06-1.297-3.09-.213-1.102-.106-1.905.343-2.415.23-.26.495-.484.797-.682.745-.468 1.517-.628 2.309-.451zm-1.209 1.774c-.34.182-.419.656-.251 1.439.171.701.457 1.37.859 2.005.594.915 1.049 1.538 1.376 1.858.581.59 1.098.787 1.574.574.293-.139.31-.672.033-1.612a10.021 10.021 0 0 0-1.24-2.647c-.926-1.409-1.706-1.948-2.351-1.617zm8.314-7.375c.119.22.06.484-.18.812-.278.384-.422.676-.421.879l-.075 4.314 1.695 2.027c.163.195.383.349.661.45.277.111.465.21.549.323.086.103.155.255.21.435.134.464-.029.885-.499 1.271-.322.266-.662.378-1.018.326a.931.931 0 0 1-.606-.351 3.984 3.984 0 0 1-.259-.371 4.175 4.175 0 0 0-.294-.407l-4.176-4.966c-.069-.081-.18-.148-.354-.204-.164-.054-.285-.122-.336-.19a.69.69 0 0 1-.108-.229c-.066-.312.206-.717.816-1.224.472-.396.831-.505 1.08-.338a.844.844 0 0 1 .224.195.364.364 0 0 1 .085.315c-.027.118-.019.2.025.247l.428.456.126-2.174c.008-.262.017-.533.037-.803.019-.27.123-.498.302-.684a1.944 1.944 0 0 1 1.038-.535c.415-.071.726.015.941.268.042.057.075.112.109.158zm13.923-2.604c.288.517.195 1.019-.272 1.517-.156.169-.313.277-.471.315-.219.049-.489-.041-.812-.25a12.718 12.718 0 0 0-1.403-.771c.437.468.659 1.157.675 2.09.015.931-.209 1.636-.673 2.114-.585.612-1.398.645-2.43.1a4.587 4.587 0 0 1-.971-.688c-.781-.74-1.063-1.783-.851-3.096.239-1.016.49-2.04.741-3.065a2.638 2.638 0 0 0-.369-.448c-.257-.25-.478-.322-.664-.228a1.403 1.403 0 0 0-.418.303.847.847 0 0 0-.248.59c.008.223.008.426.009.628-.024.168-.004.444.091.832.075.314.04.551-.085.715-.187.245-.448.37-.791.37a1.134 1.134 0 0 1-.862-.329.972.972 0 0 1-.269-.443c-.13-.494-.129-1.05 0-1.658.205-.92.732-1.823 1.577-2.7.537-.558 1.172-.688 1.906-.388.485.212 1.254.759 2.309 1.63 1.269 1.066 2.231 1.813 2.887 2.232.129.09.332.15.621.182.288.032.489.111.623.232.059.08.111.138.15.214zm-5.173-.766c-.106.378-.202.759-.298 1.139-.096.38-.126.79-.088 1.22.061.625.199 1.06.449 1.288.204.192.48.313.844.376.198.03.345-.01.44-.107.205-.223.192-.69-.047-1.402-.24-.712-.683-1.555-1.3-2.514zm10.82-4.604c.137.313-.026.734-.509 1.27-.302.34-.568.503-.809.488-.082.008-.158-.023-.238-.095-.064-.05-.138-.162-.227-.316a2.56 2.56 0 0 0-.222-.346c.202.899.066 1.617-.416 2.152-.64.715-1.512.87-2.617.477-.844-.306-1.757-.904-2.75-1.787-.911-.82-1.573-1.756-1.974-2.815-.436-1.165-.365-2.064.201-2.689.314-.348.927-.46 1.826-.32l-1.671-1.497c-.134-.12-.361-.224-.684-.302-.312-.076-.531-.168-.637-.275a.668.668 0 0 1-.199-.292c-.226-.528-.099-1.055.372-1.582.386-.43.78-.564 1.188-.383.133.06.244.127.343.212.099.085.199.231.301.428.113.198.223.346.328.452l7.373 6.606c.098.085.239.157.434.205.195.049.337.12.427.194.056.028.114.118.16.215zm-5.019-1.269c-.393-.35-.929-.692-1.612-1.004-.73-.329-1.173-.404-1.33-.234-.18.196-.057.598.363 1.184.343.485.789.965 1.334 1.449.099.085.25.228.453.43.206.181.367.326.484.424.974.87 1.648 1.1 2.023.68.18-.196.061-.628-.357-1.295a7.071 7.071 0 0 0-1.358-1.634zm8.114-5.656c.609.534.945 1.21.989 2.015.052.816-.182 1.52-.703 2.11-.328.377-.846.604-1.556.692a6.786 6.786 0 0 1-1.799-.07c-.561-.103-.869-.208-.944-.32-.13-.282.019-.685.457-1.187.181-.206.354-.352.526-.418.298-.108.54-.103.743.028.221.153.383.217.496.204.436.063.726.015.848-.13.098-.116.112-.286.055-.517a1.268 1.268 0 0 0-.414-.626 2.046 2.046 0 0 0-.444-.277c-.171-.076-.574-.014-1.22.185-.771.231-1.376.355-1.81.352a2.768 2.768 0 0 1-1.956-.72c-.654-.571-1.058-1.267-1.212-2.078-.155-.81.019-1.513.54-2.104.533-.609 1.168-.87 1.914-.791.607.069 1.08.29 1.419.662.193-.002.4.1.651.318.26.23.4.513.419.87.019.356-.062.627-.242.823-.255.296-.683.385-1.261.26a1.058 1.058 0 0 1-.495-.274 4.582 4.582 0 0 1-.319-.31 2.948 2.948 0 0 0-.292-.285c-.224-.194-.413-.212-.558-.05-.219.25-.087.593.415 1.03.502.437 1.06.63 1.646.564.236-.026.659-.156 1.27-.39.515-.208.944-.307 1.285-.288.512.025 1.031.272 1.552.722z" fill="#B69538"/></svg>