<svg width="111" height="139" fill="none" xmlns="http://www.w3.org/2000/svg"><path d="M92.184 118.242H5V5h61.337l25.844 25.845v87.397h.003z" fill="#fff" stroke="#fff" stroke-width="8.621"/><path d="M89.508 34.647H62.54V7.677h5.355l21.614 21.615v5.355z" fill="#B69538" stroke="#fff" stroke-width="8.621"/><path d="M92.184 118.242H5V5h61.337l25.844 25.845v87.397h.003zm-81.827-5.355h76.474V33.065l-22.71-22.71H10.357v102.532z" fill="#4C4C4C" stroke="#fff" stroke-width="8.621"/><path d="M20.678 63.148h9.287v-5.355h-9.287v5.355zm14.549-.833H46.43v-5.354H35.227v5.354zM20.442 47.631H62.59v-5.355H20.442v5.355zm.248 46.552h7.974v-5.355H20.69v5.355zm-.003-15.517H42.11v-5.355H20.687v5.355zm68.821-44.02H62.54V7.679h5.355v21.614h21.614v5.355z" fill="#4C4C4C" stroke="#fff" stroke-width="8.621"/><path d="M64.44 111.189c0 2.279-2.114 4.986-1.41 6.98.705 2.28 3.948 3.134 5.216 4.844 1.269 1.852 1.128 5.271 2.96 6.553 1.833 1.282 4.934.142 7.049.855 2.114.712 3.947 3.561 6.202 3.561 2.256 0 4.088-2.849 6.203-3.561 2.114-.713 5.356.569 7.048-.855 1.832-1.282 1.55-4.701 2.96-6.553 1.269-1.852 4.511-2.707 5.216-4.844.705-2.137-1.41-4.701-1.41-6.98 0-2.28 2.115-4.986 1.41-6.981-.705-2.137-3.947-2.991-5.216-4.843-1.268-1.852-1.128-5.271-2.96-6.553-1.833-1.282-4.934-.143-7.048-.855-2.115-.712-3.947-3.561-6.203-3.561-2.255 0-4.088 2.849-6.202 3.561-2.115.712-5.357-.57-7.048.855-1.833 1.282-1.551 4.7-2.96 6.553-1.27 1.852-4.512 2.706-5.216 4.843-.705 1.995 1.41 4.701 1.41 6.981z" fill="#B69538" stroke="#fff" stroke-width="8.621" stroke-miterlimit="10" stroke-linecap="round" stroke-linejoin="round"/><path d="M92.773 106.487l-11.136 11.254-6.625-6.695" stroke="#fff" stroke-width="8.621" stroke-miterlimit="10" stroke-linecap="round" stroke-linejoin="round"/><path d="M92.184 118.242H5V5h61.337l25.844 25.845v87.397h.003z" fill="#fff"/><path d="M89.508 34.647H62.54V7.677h5.355l21.614 21.615v5.355z" fill="#B69538"/><path d="M92.184 118.242H5V5h61.337l25.844 25.845v87.397h.003zm-81.827-5.355h76.474V33.065l-22.71-22.71H10.357v102.532z" fill="#4C4C4C"/><path d="M20.678 63.148h9.287v-5.355h-9.287v5.355zm14.549-.833H46.43v-5.354H35.227v5.354zM20.442 47.631H62.59v-5.355H20.442v5.355zm.248 46.552h7.974v-5.355H20.69v5.355zm-.003-15.517H42.11v-5.355H20.687v5.355zm68.821-44.02H62.54V7.679h5.355v21.614h21.614v5.355z" fill="#4C4C4C"/><path d="M64.44 111.189c0 2.279-2.114 4.986-1.41 6.98.705 2.28 3.948 3.134 5.216 4.844 1.269 1.852 1.128 5.271 2.96 6.553 1.833 1.282 4.934.142 7.049.855 2.114.712 3.947 3.561 6.202 3.561 2.256 0 4.088-2.849 6.203-3.561 2.114-.713 5.356.569 7.048-.855 1.832-1.282 1.55-4.701 2.96-6.553 1.269-1.852 4.511-2.707 5.216-4.844.705-2.137-1.41-4.701-1.41-6.98 0-2.28 2.115-4.986 1.41-6.981-.705-2.137-3.947-2.991-5.216-4.843-1.268-1.852-1.128-5.271-2.96-6.553-1.833-1.282-4.934-.143-7.048-.855-2.115-.712-3.947-3.561-6.203-3.561-2.255 0-4.088 2.849-6.202 3.561-2.115.712-5.357-.57-7.048.855-1.833 1.282-1.551 4.7-2.96 6.553-1.27 1.852-4.512 2.706-5.216 4.843-.705 1.995 1.41 4.701 1.41 6.981z" fill="#B69538" stroke="#4C4C4C" stroke-width="3.28" stroke-miterlimit="10" stroke-linecap="round" stroke-linejoin="round"/><path d="M92.773 106.487l-11.136 11.254-6.625-6.695" stroke="#fff" stroke-width="3.28" stroke-miterlimit="10" stroke-linecap="round" stroke-linejoin="round"/></svg>