<svg fill="none" height="139" width="111" xmlns="http://www.w3.org/2000/svg"><g stroke="#fff"><path d="m92.184 118.242h-87.184v-113.242h61.337l25.844 25.845v87.397z" fill="#fff" stroke-width="8.621"/><path d="m89.508 34.647h-26.968v-26.97h5.355l21.614 21.615v5.355z" fill="#b69538" stroke-width="8.621"/><path d="m92.184 118.242h-87.184v-113.242h61.337l25.844 25.845v87.397zm-81.827-5.355h76.474v-79.822l-22.71-22.71h-53.764z" fill="#4c4c4c" stroke-width="8.621"/><path d="m20.678 63.148h9.287v-5.355h-9.287zm14.549-.833h11.203v-5.354h-11.203zm-14.785-14.684h42.148v-5.355h-42.148zm.248 46.552h7.974v-5.355h-7.974zm-.003-15.517h21.423v-5.355h-21.423zm68.821-44.02h-26.968v-26.967h5.355v21.614h21.614v5.355z" fill="#4c4c4c" stroke-width="8.621"/><path d="m64.44 111.189c0 2.279-2.114 4.986-1.41 6.98.705 2.28 3.948 3.134 5.216 4.844 1.269 1.852 1.128 5.271 2.96 6.553 1.833 1.282 4.934.142 7.049.855 2.114.712 3.947 3.561 6.202 3.561 2.256 0 4.088-2.849 6.203-3.561 2.114-.713 5.356.569 7.048-.855 1.832-1.282 1.55-4.701 2.96-6.553 1.269-1.852 4.511-2.707 5.216-4.844s-1.41-4.701-1.41-6.98c0-2.28 2.115-4.986 1.41-6.981-.705-2.137-3.947-2.991-5.216-4.843-1.268-1.852-1.128-5.271-2.96-6.553-1.833-1.282-4.934-.143-7.048-.855-2.115-.712-3.947-3.561-6.203-3.561-2.255 0-4.088 2.849-6.202 3.561-2.115.712-5.357-.57-7.048.855-1.833 1.282-1.551 4.7-2.96 6.553-1.27 1.852-4.512 2.706-5.216 4.843-.705 1.995 1.41 4.701 1.41 6.981z" fill="#b69538" stroke-linecap="round" stroke-linejoin="round" stroke-miterlimit="10" stroke-width="8.621"/><path d="m92.773 106.487-11.136 11.254-6.625-6.695" stroke-linecap="round" stroke-linejoin="round" stroke-miterlimit="10" stroke-width="8.621"/></g><path d="m92.184 118.242h-87.184v-113.242h61.337l25.844 25.845v87.397z" fill="#fff"/><path d="m89.508 34.647h-26.968v-26.97h5.355l21.614 21.615v5.355z" fill="#b69538"/><path d="m92.184 118.242h-87.184v-113.242h61.337l25.844 25.845v87.397zm-81.827-5.355h76.474v-79.822l-22.71-22.71h-53.764z" fill="#4c4c4c"/><path d="m20.678 63.148h9.287v-5.355h-9.287zm14.549-.833h11.203v-5.354h-11.203zm-14.785-14.684h42.148v-5.355h-42.148zm.248 46.552h7.974v-5.355h-7.974zm-.003-15.517h21.423v-5.355h-21.423zm68.821-44.02h-26.968v-26.967h5.355v21.614h21.614v5.355z" fill="#4c4c4c"/><path d="m64.44 111.189c0 2.279-2.114 4.986-1.41 6.98.705 2.28 3.948 3.134 5.216 4.844 1.269 1.852 1.128 5.271 2.96 6.553 1.833 1.282 4.934.142 7.049.855 2.114.712 3.947 3.561 6.202 3.561 2.256 0 4.088-2.849 6.203-3.561 2.114-.713 5.356.569 7.048-.855 1.832-1.282 1.55-4.701 2.96-6.553 1.269-1.852 4.511-2.707 5.216-4.844s-1.41-4.701-1.41-6.98c0-2.28 2.115-4.986 1.41-6.981-.705-2.137-3.947-2.991-5.216-4.843-1.268-1.852-1.128-5.271-2.96-6.553-1.833-1.282-4.934-.143-7.048-.855-2.115-.712-3.947-3.561-6.203-3.561-2.255 0-4.088 2.849-6.202 3.561-2.115.712-5.357-.57-7.048.855-1.833 1.282-1.551 4.7-2.96 6.553-1.27 1.852-4.512 2.706-5.216 4.843-.705 1.995 1.41 4.701 1.41 6.981z" style="fill:#b69538;stroke:#4c4c4c;stroke-width:3.28;stroke-miterlimit:10;stroke-linecap:round;stroke-linejoin:round"/><path d="m92.773 106.487-11.136 11.254-6.625-6.695" stroke="#fff" stroke-linecap="round" stroke-linejoin="round" stroke-miterlimit="10" stroke-width="3.28"/></svg>