<svg width="220" height="259" fill="none" xmlns="http://www.w3.org/2000/svg"><path d="M3.833 209.43c-.082.332.02.693.121 1.054.57 2.004 3.025 3.336 4.744 4.761 3.64 3.02 6.499 6.087 9.539 9.581 1.206 1.386 2.784 3.238 4.66 2.936 1.302-.211 1.692-1.081 1.515-2.269-.177-1.188-1.224-2.339-2.025-3.327-1.993-2.458-5.256-5.849-7.569-8.311-.088-.094.008-.227.138-.191 1.515.419 4.453 1.071 5.754 1.252 28.783 4.011 60.32 4.489 88.716-8.952 12.273-5.808 23.004-12.636 32.101-21.839.788-.797 2.422-1.532 3.633-1.617 37.685-2.645 55.686-38.851 55.026-71.143-.505-24.711-7.142-53.467-23.936-73.346-1.435-1.698-15.331-17.767-17.143-14.772-.146.24-.37.518-.22.846.95 2.085 6.109 6.986 9.26 10.336 4.944 5.257 9.474 10.821 12.952 16.928 5.086 8.926 8.574 18.43 11.023 28.091 4.562 18.382 7.289 37.973 1.782 55.901-5.008 16.302-15.854 32.974-35.248 40.998-2.664 1.101-8.224 2.403-12.022 2.068-.444-.039-.735-.444-.591-.812.488-1.236 1.326-2.335 2.005-3.484 3.934-6.659 5.896-13.898 6.479-21.51l.057-.811.049-.809c.02-.335.035-.67.052-1.005a108.57 108.57 0 0 0 .095-2.693 91.662 91.662 0 0 0-.173-7.771c-.928-14.599-6.458-31.989-20.119-41.805-6.379-4.582-15.754-6.823-22.248-2.512-21.117 14.021-17.266 41.489-6.612 58.753 3.302 5.351 8.453 10.973 13.552 15.095 4.003 3.234 8.449 6.014 13.131 8.33 1.916.947 5.918 2.108 5.428 4.192-.537 2.286-3.894 4.736-5.816 6.203-22.023 16.805-50.55 26.149-80.252 25.806-.628-.008-1.255-.018-1.882-.034-9.102-.216-18.212-1.623-27.332-2.979-2.351-.35-5.283-.944-6.947-1.114-.157-.016-.255-.159-.171-.274 2.17-2.99 6.219-6.137 9.237-8.329 1.117-.811 2.24-1.704 2.75-2.917.508-1.211.243-2.908-1.08-3.545-1.247-.601-2.879 1.372-4.39 2.393-4.337 2.931-8.944 5.331-13.282 8.261-1.931 1.308-4.202 2.232-4.74 4.386zm98.451-92.84c.739-2.851 1.791-5.585 3.156-8.098 3.772-6.941 11.814-14.36 21.517-10.923 8.771 3.106 14.587 12.145 17.99 19.498 4.413 9.537 6.009 19.892 5.912 29.981-.036 3.746-.299 7.488-.957 11.163-.659 3.68-1.826 7.14-3.262 10.591-.725 1.746-1.528 3.467-2.507 5.104-.805 1.345-1.698 3.289-3.786 3.118-3.24-.265-8.678-3.142-11.991-5.275-19.381-12.473-31.405-34.582-26.072-55.159z" fill="#B69538"/></svg>