<svg width="97" height="108" fill="none" xmlns="http://www.w3.org/2000/svg"><g clip-path="url(#clip0_311_7819)"><path fill-rule="evenodd" clip-rule="evenodd" d="M-.16 42.64c0-.928.752-1.68 1.68-1.68h93.503c.928 0 1.68.752 1.68 1.68v63.812a1.68 1.68 0 0 1-1.68 1.68H1.52a1.68 1.68 0 0 1-1.68-1.68V42.64zm3.36 1.68v60.452h90.143V44.32H3.2z" fill="#010101"/><path fill-rule="evenodd" clip-rule="evenodd" d="M-.16 57.799c0-.928.752-1.68 1.68-1.68h93.503a1.68 1.68 0 0 1 0 3.36H1.52a1.68 1.68 0 0 1-1.68-1.68zm0 15.484c0-.928.752-1.68 1.68-1.68h93.503a1.68 1.68 0 0 1 0 3.36H1.52a1.68 1.68 0 0 1-1.68-1.68zm0 16.743c0-.928.752-1.68 1.68-1.68h93.503a1.68 1.68 0 0 1 0 3.36H1.52a1.68 1.68 0 0 1-1.68-1.68z" fill="#010101"/><path fill-rule="evenodd" clip-rule="evenodd" d="M30.707 40.96c.928 0 1.68.752 1.68 1.68V57.8a1.68 1.68 0 1 1-3.36 0V42.64c0-.928.752-1.68 1.68-1.68zM12.262 56.12c.928 0 1.68.752 1.68 1.68v15.484a1.68 1.68 0 1 1-3.36 0V57.799c0-.928.752-1.68 1.68-1.68zm37.27 0c.927 0 1.68.752 1.68 1.68v15.484a1.68 1.68 0 0 1-3.36 0V57.799c0-.928.752-1.68 1.68-1.68zm36.644 0c.928 0 1.68.752 1.68 1.68v15.484a1.68 1.68 0 0 1-3.36 0V57.799c0-.928.752-1.68 1.68-1.68zM67.86 71.603c.927 0 1.68.752 1.68 1.68v16.743a1.68 1.68 0 0 1-3.36 0V73.283c0-.928.752-1.68 1.68-1.68zm-37.282 0c.928 0 1.68.752 1.68 1.68v16.743a1.68 1.68 0 1 1-3.36 0V73.283c0-.928.753-1.68 1.68-1.68zM12.262 88.346c.928 0 1.68.752 1.68 1.68v16.453a1.68 1.68 0 1 1-3.36 0V90.026c0-.928.752-1.68 1.68-1.68zm37.27 0c.927 0 1.68.752 1.68 1.68v16.426a1.68 1.68 0 0 1-3.36 0V90.026c0-.928.752-1.68 1.68-1.68zm34.12 0c.928 0 1.68.752 1.68 1.68v16.426a1.68 1.68 0 0 1-3.36 0V90.026c0-.928.753-1.68 1.68-1.68zM67.86 40.96c.927 0 1.68.752 1.68 1.68V57.8a1.68 1.68 0 0 1-3.36 0V42.64c0-.928.752-1.68 1.68-1.68z" fill="#010101"/><path d="M82.03 35.659H14.516v27.89H82.03v-27.89z" fill="#B69538"/><path fill-rule="evenodd" clip-rule="evenodd" d="M12.836 35.659c0-.928.752-1.68 1.68-1.68H82.03c.927 0 1.68.752 1.68 1.68v27.89a1.68 1.68 0 0 1-1.68 1.68H14.516a1.68 1.68 0 0 1-1.68-1.68v-27.89zm3.36 1.68v24.53H80.35v-24.53H16.196z" fill="#010101"/><path d="M35.332 53.878a6.022 6.022 0 0 1-8.276 0 6.194 6.194 0 0 1 0-8.358 6.04 6.04 0 0 1 8.276 0 6.194 6.194 0 0 1 0 8.358zm-4.138-.109a3.45 3.45 0 0 0 2.716-1.159 4.636 4.636 0 0 0 0-5.831 3.75 3.75 0 0 0-5.432 0 4.681 4.681 0 0 0 0 5.84 3.43 3.43 0 0 0 2.698 1.15h.018zm10.28 1.549H39.5V44.062h4.962a3.569 3.569 0 0 1 2.717 1.014 3.704 3.704 0 0 1 0 5.017 3.621 3.621 0 0 1-2.717 1.005h-2.988v4.22zm2.717-5.968c.504.021.997-.154 1.376-.489a1.657 1.657 0 0 0 .534-1.276 1.693 1.693 0 0 0-.534-1.304 1.956 1.956 0 0 0-1.376-.49h-2.717v3.56h2.717zm13.977 5.968h-7.715V44.062h7.715v1.739h-5.74v2.906h5.622v1.739h-5.623v3.142h5.741v1.73zm12.479 0h-1.91l-5.878-8.06v8.06h-1.992V44.062h2.029l5.758 7.797v-7.797h1.993v11.256z" fill="#000"/><path fill-rule="evenodd" clip-rule="evenodd" d="M46.965 5.95a1.68 1.68 0 0 1 2.32-.006L79.31 34.44a1.68 1.68 0 1 1-2.313 2.438L48.133 9.483l-28.58 27.388a1.68 1.68 0 1 1-2.324-2.426L46.965 5.95z" fill="#010101"/><path d="M48.13 12.804a5.641 5.641 0 1 0 0-11.283 5.641 5.641 0 0 0 0 11.283z" fill="#B69538"/><path fill-rule="evenodd" clip-rule="evenodd" d="M48.13 3.201a3.961 3.961 0 1 0 0 7.923 3.961 3.961 0 0 0 0-7.923zm-7.321 3.962a7.321 7.321 0 1 1 14.642 0 7.321 7.321 0 0 1-14.642 0z" fill="#010101"/></g><defs><clipPath id="clip0_311_7819"><path fill="#fff" d="M0 0H96.545V108H0z"/></clipPath></defs></svg>