<svg width="118" height="92" fill="none" xmlns="http://www.w3.org/2000/svg"><path fill-rule="evenodd" clip-rule="evenodd" d="M.32 6A5.678 5.678 0 0 1 6 .322h78A5.678 5.678 0 0 1 89.677 6v58A5.678 5.678 0 0 1 84 69.678h-78A5.678 5.678 0 0 1 .32 64V6zM6 3.678A2.322 2.322 0 0 0 3.677 6v58A2.322 2.322 0 0 0 6 66.322h78A2.322 2.322 0 0 0 86.32 64V6A2.322 2.322 0 0 0 84 3.678h-78z" fill="#010101"/><path fill-rule="evenodd" clip-rule="evenodd" d="M.32 19.5c0-.927.752-1.678 1.679-1.678h85.5a1.678 1.678 0 0 1 0 3.356h-85.5A1.678 1.678 0 0 1 .32 19.5zm31.722 8.822a1.679 1.679 0 0 1 1.494 1.005l10.5 24a1.678 1.678 0 1 1-3.075 1.346l-3.716-8.495H25.786L21.5 54.751a1.678 1.678 0 1 1-3.003-1.502l12-24a1.678 1.678 0 0 1 1.545-.927zm-4.577 14.5h8.311l-3.879-8.866-4.432 8.865zM48.82 30c0-.927.752-1.678 1.679-1.678 2.028 0 6.223.115 9.955 1.842 1.893.877 3.72 2.192 5.07 4.16 1.356 1.98 2.153 4.508 2.153 7.676s-.797 5.697-2.153 7.675c-1.35 1.969-3.177 3.284-5.07 4.16-3.732 1.728-7.927 1.843-9.955 1.843A1.678 1.678 0 0 1 48.82 54V30zm3.357 1.718v20.564c1.981-.1 4.578-.433 6.867-1.493 1.481-.686 2.779-1.652 3.711-3.011.925-1.35 1.565-3.196 1.565-5.778 0-2.582-.64-4.428-1.565-5.778-.932-1.36-2.23-2.325-3.711-3.011-2.289-1.06-4.886-1.393-6.867-1.493z" fill="#010101"/><path d="M74.538 68.071c0 2.207-2.094 4.828-1.396 6.76.699 2.206 3.91 3.034 5.166 4.69 1.256 1.793 1.116 5.103 2.931 6.345 1.815 1.241 4.886.138 6.98.827 2.094.69 3.91 3.449 6.143 3.449 2.233 0 4.048-2.759 6.142-3.449 2.094-.69 5.305.552 6.98-.827 1.815-1.242 1.536-4.552 2.932-6.346 1.256-1.793 4.467-2.62 5.165-4.69.698-2.069-1.396-4.552-1.396-6.759 0-2.207 2.094-4.828 1.396-6.76-.698-2.068-3.909-2.896-5.165-4.69-1.257-1.793-1.117-5.103-2.932-6.345-1.815-1.241-4.886-.138-6.98-.827C98.41 48.759 96.595 46 94.362 46c-2.234 0-4.049 2.759-6.143 3.449-2.094.69-5.304-.552-6.98.827-1.815 1.242-1.535 4.552-2.931 6.346-1.257 1.793-4.468 2.62-5.166 4.69-.698 1.931 1.397 4.552 1.397 6.759z" fill="#B69538"/><path fill-rule="evenodd" clip-rule="evenodd" d="M90.383 46.369c.96-.749 2.324-1.76 3.98-1.76 1.654 0 3.02 1.011 3.978 1.76.172.134.333.261.486.383.334.266.636.506.955.733.453.323.827.533 1.158.642.334.11.761.165 1.313.176.406.009.81-.005 1.258-.02.176-.007.358-.013.55-.018 1.205-.033 2.879-.047 4.209.863 1.37.937 1.89 2.564 2.226 3.728.067.232.127.448.184.654.108.388.206.742.324 1.102.176.532.352.926.552 1.211.19.272.49.555.928.88.328.243.673.467 1.057.716l.433.283c.991.652 2.394 1.608 2.921 3.15.281.788.255 1.577.132 2.264-.121.684-.357 1.362-.578 1.957-.066.179-.131.349-.193.512-.16.42-.305.8-.428 1.19-.168.53-.251.951-.251 1.296 0 .343.083.754.249 1.27.12.374.26.735.416 1.137.065.169.134.345.205.533.418 1.106.981 2.698.453 4.264-.524 1.551-1.932 2.51-2.926 3.165-.15.1-.294.192-.433.282-.384.25-.729.474-1.057.718-.438.324-.738.607-.928.879l-.042.056c-.213.274-.397.653-.573 1.168-.134.394-.242.796-.363 1.247-.041.153-.083.312-.129.478-.31 1.128-.781 2.757-2.128 3.71-1.299 1.034-3.036.999-4.226.95-.225-.009-.436-.02-.638-.03a22.134 22.134 0 0 0-1.209-.04c-.565.002-.989.051-1.308.157-.331.109-.705.319-1.158.641-.32.228-.621.468-.955.733-.153.123-.314.25-.486.384-.959.749-2.324 1.76-3.979 1.76-1.655 0-3.02-1.011-3.979-1.76a65.648 65.648 0 0 1-.486-.384c-.333-.265-.635-.505-.955-.733-.453-.322-.827-.532-1.157-.641-.334-.11-.761-.165-1.313-.177-.407-.008-.811.006-1.258.021-.176.007-.359.013-.55.018-1.206.033-2.88.047-4.21-.863-1.37-.937-1.89-2.564-2.226-3.728-.067-.232-.127-.448-.184-.654a23.3 23.3 0 0 0-.324-1.103c-.171-.518-.343-.905-.536-1.188-.186-.239-.481-.497-.917-.805-.291-.206-.577-.388-.892-.589a50.68 50.68 0 0 1-.624-.403c-1.024-.675-2.406-1.66-2.926-3.268-.276-.783-.25-1.567-.128-2.25.122-.684.357-1.362.578-1.957l.194-.513c.16-.419.304-.799.427-1.189.168-.53.252-.951.252-1.296 0-.345-.084-.766-.252-1.296-.123-.39-.268-.77-.427-1.19-.063-.163-.127-.333-.194-.512-.22-.595-.456-1.273-.578-1.957-.122-.687-.148-1.475.132-2.263.528-1.543 1.93-2.498 2.922-3.151.15-.1.293-.193.432-.282.384-.25.729-.474 1.058-.718.437-.324.738-.607.928-.879l.041-.056c.214-.274.398-.653.573-1.168.135-.394.243-.797.363-1.247l.13-.478c.31-1.129.78-2.757 2.128-3.71 1.298-1.034 3.035-.999 4.225-.95.225.009.436.02.638.03.427.022.814.041 1.21.04.565-.002.988-.051 1.308-.157.33-.109.704-.319 1.157-.642.32-.227.622-.467.955-.733.154-.122.314-.25.486-.383zm.173 3.383c-.546.389-1.184.782-1.901 1.018-.728.24-1.49.294-2.169.296-.473.002-.984-.024-1.446-.047-.184-.01-.36-.019-.524-.025-1.343-.055-2.02.05-2.392.356a1.35 1.35 0 0 1-.099.074c-.428.294-.717.915-1.067 2.187l-.106.395c-.126.47-.268 1-.435 1.491-.218.64-.517 1.336-.99 1.952-.435.611-.998 1.095-1.53 1.489-.404.3-.853.59-1.257.853l-.359.234c-1.1.724-1.645 1.214-1.82 1.731l-.01.029c-.062.173-.088.431-.015.844.075.419.232.896.447 1.474l.161.426c.169.443.356.935.505 1.407.203.642.381 1.376.381 2.135 0 .759-.178 1.493-.38 2.135-.15.472-.337.964-.506 1.407l-.161.426c-.215.578-.372 1.055-.447 1.474-.073.413-.047.67.015.844l.018.054c.185.584.748 1.108 1.813 1.81.153.1.326.211.507.327.357.229.746.478 1.082.715.53.373 1.103.833 1.545 1.416l.032.043c.428.612.706 1.304.914 1.936.14.423.27.891.388 1.318.053.19.103.372.151.537.362 1.251.68 1.9 1.124 2.204.485.332 1.254.415 2.562.379l.46-.015c.472-.017.993-.035 1.483-.024.67.014 1.412.08 2.125.315.717.236 1.355.63 1.9 1.018.383.272.78.587 1.139.873.14.111.274.218.4.316 1.03.804 1.69 1.172 2.268 1.172.579 0 1.238-.368 2.268-1.172.126-.098.26-.205.4-.316.36-.286.756-.6 1.139-.873.546-.389 1.184-.782 1.9-1.018.728-.24 1.491-.294 2.169-.296.473-.002.984.024 1.447.047.184.01.36.018.523.025 1.343.055 2.02-.05 2.392-.356.032-.026.065-.051.099-.075.429-.293.718-.914 1.067-2.186l.107-.395c.126-.47.267-1 .435-1.491.218-.64.517-1.336.989-1.952.436-.611.998-1.095 1.53-1.489.405-.3.853-.591 1.257-.853l.359-.234c1.1-.725 1.646-1.214 1.82-1.732.17-.503.035-1.187-.419-2.391l-.168-.437c-.166-.43-.351-.907-.498-1.363-.205-.635-.384-1.362-.384-2.123 0-.759.178-1.493.381-2.135.15-.472.337-.964.505-1.407l.161-.426c.215-.578.373-1.055.447-1.474.074-.413.048-.671-.015-.844l-.002-.005a.211.211 0 0 0-.008-.024c-.174-.517-.72-1.007-1.82-1.731a75.297 75.297 0 0 0-.359-.234 24.984 24.984 0 0 1-1.257-.853c-.54-.4-1.112-.893-1.55-1.518-.429-.612-.706-1.304-.915-1.936-.139-.423-.269-.891-.388-1.318-.052-.19-.103-.372-.151-.538-.361-1.25-.679-1.9-1.124-2.204-.485-.331-1.254-.414-2.561-.378l-.46.015c-.473.016-.994.035-1.484.024-.669-.014-1.412-.08-2.125-.315-.716-.236-1.354-.63-1.9-1.018a27.794 27.794 0 0 1-1.138-.873 57.81 57.81 0 0 0-.4-.316c-1.03-.804-1.69-1.172-2.269-1.172-.578 0-1.238.368-2.268 1.172-.126.098-.26.205-.4.316-.36.286-.756.6-1.138.873z" fill="#010101"/><path d="M93.31 74.462h2.901c.77 0 1.508-.304 2.052-.845a2.872 2.872 0 0 0 0-4.075 2.911 2.911 0 0 0-2.052-.844h-2.9a5.822 5.822 0 0 1-4.104-1.688 5.744 5.744 0 0 1-1.7-4.076c0-1.528.612-2.994 1.7-4.075a5.823 5.823 0 0 1 4.103-1.688V55.73c0-.382.153-.749.425-1.019a1.456 1.456 0 0 1 2.052 0c.272.27.424.637.424 1.019v1.44c1.54 0 3.015.608 4.103 1.689a5.741 5.741 0 0 1 1.7 4.075c0 .383-.153.749-.425 1.02a1.456 1.456 0 0 1-2.052 0 1.437 1.437 0 0 1-.424-1.02c0-.764-.306-1.497-.85-2.037a2.911 2.911 0 0 0-2.052-.844h-2.9a2.91 2.91 0 0 0-2.052.844 2.872 2.872 0 0 0 0 4.075 2.91 2.91 0 0 0 2.051.844h2.901a5.82 5.82 0 0 1 4.103 1.688 5.741 5.741 0 0 1 1.7 4.076 5.741 5.741 0 0 1-1.7 4.075 5.821 5.821 0 0 1-4.103 1.688v1.441c0 .382-.152.749-.424 1.019a1.456 1.456 0 0 1-2.052 0 1.436 1.436 0 0 1-.425-1.019v-1.44a5.823 5.823 0 0 1-4.103-1.689 5.744 5.744 0 0 1-1.7-4.075c0-.382.154-.749.426-1.02a1.455 1.455 0 0 1 2.051 0c.272.271.425.638.425 1.02 0 .764.306 1.497.85 2.037a2.91 2.91 0 0 0 2.051.844zM67 11a1 1 0 1 1 2 0 1 1 0 0 1-2 0z" fill="#010101"/><path fill-rule="evenodd" clip-rule="evenodd" d="M67.997 10.322a.678.678 0 1 0 0 1.356.678.678 0 0 0 0-1.357zm2.679.678a2.678 2.678 0 1 1-5.357 0 2.678 2.678 0 0 1 5.357 0z" fill="#010101"/><path d="M76 11a1 1 0 1 1 2 0 1 1 0 0 1-2 0z" fill="#010101"/><path fill-rule="evenodd" clip-rule="evenodd" d="M76.997 10.322a.678.678 0 1 0 0 1.356.678.678 0 0 0 0-1.357zm2.679.678a2.678 2.678 0 1 1-5.357 0 2.678 2.678 0 0 1 5.357 0z" fill="#010101"/></svg>