<svg width="105" height="113" fill="none" xmlns="http://www.w3.org/2000/svg"><path d="M2 36.563L47.115 2l43.532 34.563" fill="#fff"/><path fill-rule="evenodd" clip-rule="evenodd" d="M46.094.666a1.68 1.68 0 0 1 2.067.018l43.53 34.563a1.68 1.68 0 1 1-2.088 2.631L47.098 4.13 3.021 37.896A1.68 1.68 0 0 1 .98 35.23L46.094.666z" fill="#010101"/><path d="M11.574 29.759v54.887h68.057V28.39" fill="#fff"/><path fill-rule="evenodd" clip-rule="evenodd" d="M79.631 26.71c.928 0 1.68.752 1.68 1.68v56.256a1.68 1.68 0 0 1-1.68 1.68H11.575a1.68 1.68 0 0 1-1.68-1.68V29.76a1.68 1.68 0 1 1 3.36 0v53.207H77.95V28.39c0-.928.753-1.68 1.68-1.68z" fill="#010101"/><path d="M58.865 49.051H33.773v35.602h25.092V49.051z" fill="#fff"/><path fill-rule="evenodd" clip-rule="evenodd" d="M32.094 49.051c0-.928.752-1.68 1.68-1.68h25.092c.928 0 1.68.752 1.68 1.68v35.602a1.68 1.68 0 0 1-1.68 1.68H33.774a1.68 1.68 0 0 1-1.68-1.68V49.051zm3.36 1.68v32.242h21.732V50.731H35.454z" fill="#010101"/><path d="M74.486 111c15.881 0 28.755-12.874 28.755-28.755 0-15.882-12.874-28.756-28.755-28.756-15.881 0-28.756 12.874-28.756 28.756C45.73 98.124 58.605 111 74.487 111z" fill="#B69538"/><path fill-rule="evenodd" clip-rule="evenodd" d="M74.486 55.169c-14.953 0-27.075 12.122-27.075 27.076 0 14.953 12.122 27.075 27.075 27.075 14.954 0 27.076-12.122 27.076-27.075 0-14.954-12.122-27.076-27.076-27.076zM44.051 82.245c0-16.81 13.626-30.436 30.435-30.436 16.81 0 30.436 13.626 30.436 30.436 0 16.808-13.627 30.435-30.436 30.435-16.809 0-30.435-13.627-30.435-30.436z" fill="#010101"/><path d="M84.964 77.377H64.016V95.8h20.948V77.377z" fill="#fff"/><path fill-rule="evenodd" clip-rule="evenodd" d="M62.336 77.377c0-.928.752-1.68 1.68-1.68h20.948c.928 0 1.68.752 1.68 1.68V95.8a1.68 1.68 0 0 1-1.68 1.68H64.016a1.68 1.68 0 0 1-1.68-1.68V77.377zm3.36 1.68V94.12h17.588V79.057H65.696z" fill="#010101"/><path d="M74.489 65.82a6.122 6.122 0 0 1 6.123 6.122v5.435H68.359v-5.435a6.123 6.123 0 0 1 6.13-6.122z" fill="#fff"/><path fill-rule="evenodd" clip-rule="evenodd" d="M74.487 67.5a4.441 4.441 0 0 0-4.447 4.442v3.755h8.892v-3.755a4.443 4.443 0 0 0-4.443-4.442h-.002zm.003-3.36a7.803 7.803 0 0 1 7.802 7.802v5.435a1.68 1.68 0 0 1-1.68 1.68H68.36a1.68 1.68 0 0 1-1.68-1.68v-5.435a7.802 7.802 0 0 1 7.81-7.802z" fill="#010101"/><path d="M71.555 89.457l1.133-2.359a2.538 2.538 0 1 1 3.448.136l1.219 2.194a.495.495 0 0 1-.437.717h-4.911a.495.495 0 0 1-.452-.688z" fill="#010101"/></svg>