<svg width="127" height="89" fill="none" xmlns="http://www.w3.org/2000/svg"><path d="M64.668 66.524L53.227 86.343h22.882L64.668 66.523z" fill="#fff"/><path fill-rule="evenodd" clip-rule="evenodd" d="M64.668 64.844c.6 0 1.155.32 1.455.84l11.442 19.819a1.68 1.68 0 0 1-1.455 2.52H53.227a1.68 1.68 0 0 1-1.455-2.52l11.441-19.819c.3-.52.855-.84 1.455-.84zm-8.531 19.819H73.2l-8.532-14.778-8.531 14.777z" fill="#010101"/><path d="M116.336 37.048L8.876 61.225a6.022 6.022 0 0 0-4.555 7.195 6.021 6.021 0 0 0 7.198 4.551l107.46-24.178a6.022 6.022 0 0 0 4.555-7.195 6.022 6.022 0 0 0-7.198-4.55z" fill="#fff"/><path fill-rule="evenodd" clip-rule="evenodd" d="M9.245 62.864a4.341 4.341 0 0 0-3.285 5.188 4.341 4.341 0 0 0 5.19 3.28l107.46-24.178a4.342 4.342 0 0 0 3.285-5.187 4.342 4.342 0 0 0-5.19-3.28L9.245 62.865zM2.682 68.79a7.702 7.702 0 0 1 5.826-9.203l107.46-24.177a7.701 7.701 0 0 1 9.205 5.82 7.702 7.702 0 0 1-5.825 9.203L11.888 74.61a7.702 7.702 0 0 1-9.206-5.82z" fill="#010101"/><path d="M72.742 20.078L96.336 2l22.77 18.078" fill="#fff"/><path fill-rule="evenodd" clip-rule="evenodd" d="M95.315.666a1.68 1.68 0 0 1 2.066.018l22.77 18.078a1.68 1.68 0 0 1-2.09 2.631L96.318 4.131 73.764 21.41a1.68 1.68 0 0 1-2.043-2.667L95.315.666z" fill="#010101"/><path d="M77.75 16.521v28.71h35.595V15.802" fill="#fff"/><path fill-rule="evenodd" clip-rule="evenodd" d="M113.346 14.122c.928 0 1.68.752 1.68 1.68v29.429a1.68 1.68 0 0 1-1.68 1.68H77.75a1.68 1.68 0 0 1-1.68-1.68V16.52a1.68 1.68 0 1 1 3.36 0v27.03h32.236V15.802c0-.928.752-1.68 1.68-1.68z" fill="#010101"/><path d="M102.481 26.608H89.359v18.623h13.122V26.608z" fill="#fff"/><path fill-rule="evenodd" clip-rule="evenodd" d="M87.68 26.608c0-.928.752-1.68 1.68-1.68h13.121c.928 0 1.68.752 1.68 1.68v18.623a1.68 1.68 0 0 1-1.68 1.68H89.36a1.68 1.68 0 0 1-1.68-1.68V26.608zm3.36 1.68v15.263h9.761V28.288H91.04z" fill="#010101"/><path d="M28.62 62.627c10.606 0 19.204-8.598 19.204-19.205 0-10.607-8.598-19.205-19.205-19.205-10.607 0-19.205 8.598-19.205 19.205 0 10.607 8.598 19.205 19.205 19.205z" fill="#B69538"/><path fill-rule="evenodd" clip-rule="evenodd" d="M28.62 25.897c-9.68 0-17.526 7.846-17.526 17.525 0 9.68 7.847 17.525 17.526 17.525 9.678 0 17.525-7.846 17.525-17.525 0-9.679-7.847-17.525-17.525-17.525zM7.734 43.422c0-11.534 9.351-20.885 20.886-20.885 11.534 0 20.885 9.35 20.885 20.885 0 11.535-9.35 20.885-20.885 20.885-11.535 0-20.886-9.35-20.886-20.885z" fill="#010101"/><path d="M27.634 48.303h1.968a1.99 1.99 0 0 0 1.384-.575 1.944 1.944 0 0 0 0-2.762 1.982 1.982 0 0 0-1.384-.568h-1.968a3.913 3.913 0 0 1-3.927-3.904 3.876 3.876 0 0 1 1.15-2.755 3.92 3.92 0 0 1 2.777-1.142v-.977a.971.971 0 0 1 .288-.688.952.952 0 0 1 .696-.288.977.977 0 0 1 .909.603c.05.119.075.245.075.373v.977a3.95 3.95 0 0 1 2.777 1.142 3.876 3.876 0 0 1 1.15 2.755.984.984 0 0 1-1.967 0 1.93 1.93 0 0 0-.576-1.377 1.99 1.99 0 0 0-1.384-.576h-1.968a1.997 1.997 0 0 0-1.392.576 1.945 1.945 0 0 0 0 2.761 1.99 1.99 0 0 0 1.392.568h1.968a3.95 3.95 0 0 1 2.777 1.143 3.881 3.881 0 0 1 0 5.516 3.95 3.95 0 0 1-2.777 1.143v1.006a.971.971 0 0 1-.288.689.976.976 0 0 1-.696.287.956.956 0 0 1-.696-.287.97.97 0 0 1-.288-.689v-.976a3.92 3.92 0 0 1-3.628-2.405c-.197-.472-.299-.98-.299-1.492a.983.983 0 0 1 .288-.689.983.983 0 0 1 1.672.689 1.96 1.96 0 0 0 .575 1.377c.376.355.875.55 1.392.545z" fill="#010101"/></svg>