<svg width="49" height="52" viewBox="0 0 49 52" fill="none" xmlns="http://www.w3.org/2000/svg">
<path d="M3.15294 26.2519C3.15294 28.6771 0.903105 31.5571 1.65305 33.6792C2.40299 36.1044 5.85274 37.0139 7.20264 38.8328C8.55254 40.8033 8.40255 44.4411 10.3524 45.8053C12.3023 47.1695 15.602 45.9569 17.8519 46.7148C20.1017 47.4727 22.0515 50.5042 24.4514 50.5042C26.8512 50.5042 28.801 47.4727 31.0509 46.7148C33.3007 45.9569 36.7505 47.3211 38.5503 45.8053C40.5002 44.4411 40.2002 40.8033 41.7001 38.8328C43.05 36.8623 46.4997 35.9528 47.2497 33.6792C47.9996 31.4055 45.7498 28.6771 45.7498 26.2519C45.7498 23.8266 47.9996 20.9467 47.2497 18.8246C46.4997 16.5509 43.05 15.6415 41.7001 13.671C40.3502 11.7005 40.5002 8.0626 38.5503 6.69841C36.6005 5.33421 33.3007 6.54683 31.0509 5.78894C28.801 5.03106 26.8512 1.99951 24.4514 1.99951C22.0515 1.99951 20.1017 5.03106 17.8519 5.78894C15.602 6.54683 12.1523 5.18263 10.3524 6.69841C8.40255 8.0626 8.70253 11.7005 7.20264 13.671C5.85274 15.6415 2.40299 16.5509 1.65305 18.8246C0.903105 20.9467 3.15294 23.8266 3.15294 26.2519Z" fill="#B69538"/>
<path fill-rule="evenodd" clip-rule="evenodd" d="M20.2283 2.5226C21.258 1.70105 22.7028 0.608398 24.4519 0.608398C26.201 0.608398 27.6458 1.70105 28.6755 2.5226C28.8582 2.66836 29.0295 2.80767 29.1941 2.94159C29.5536 3.23395 29.8814 3.5006 30.2274 3.75255C30.7182 4.10987 31.1288 4.3471 31.4955 4.47062C31.865 4.59509 32.3323 4.65525 32.9282 4.66815C33.3667 4.67765 33.8042 4.66215 34.2857 4.6451C34.4743 4.63841 34.6697 4.63149 34.8746 4.62574C36.1739 4.58927 37.9467 4.57792 39.3483 5.55857C40.781 6.5609 41.328 8.30064 41.6894 9.57888C41.7603 9.8297 41.824 10.0653 41.8852 10.2913C42.0014 10.7205 42.1082 11.1153 42.2372 11.5151C42.4277 12.1058 42.6223 12.5549 42.8483 12.8848C43.0641 13.1998 43.399 13.5206 43.8721 13.8791C44.2283 14.1491 44.6022 14.3974 45.0162 14.6724C45.1646 14.7709 45.318 14.8728 45.4777 14.9804C46.5518 15.7041 48.0189 16.733 48.5668 18.3751C48.8564 19.2048 48.8312 20.0393 48.7028 20.7777C48.5747 21.514 48.3263 22.2473 48.0888 22.9002C48.0184 23.0938 47.9495 23.2789 47.8828 23.4582C47.7108 23.9206 47.5531 24.3447 47.4192 24.7776C47.2371 25.3664 47.1415 25.8479 47.1415 26.2519C47.1415 26.6538 47.2363 27.1242 47.417 27.6979C47.548 28.1137 47.7008 28.5171 47.8686 28.9601C47.9388 29.1454 48.0116 29.3376 48.0865 29.5405C48.538 30.7635 49.118 32.4575 48.5713 34.115C48.027 35.7651 46.5548 36.7977 45.4777 37.5234C45.318 37.631 45.1645 37.7329 45.0162 37.8315C44.6021 38.1064 44.2282 38.3547 43.8721 38.6247C43.399 38.9832 43.0641 39.304 42.8483 39.619C42.8352 39.6382 42.8216 39.657 42.8076 39.6754C42.565 39.994 42.3611 40.4277 42.1696 41.0019C42.0232 41.4407 41.9056 41.89 41.7756 42.3864C41.7317 42.5542 41.6863 42.7274 41.638 42.9073C41.3044 44.1494 40.8085 45.8905 39.3988 46.9093C38.035 48.0212 36.198 47.9877 34.9121 47.9343C34.6721 47.9243 34.4462 47.9126 34.2295 47.9014C33.7696 47.8775 33.3506 47.8558 32.9242 47.8573C32.3144 47.8595 31.8502 47.9137 31.4955 48.0332C31.1288 48.1567 30.7182 48.394 30.2274 48.7513C29.8814 49.0032 29.5536 49.2699 29.1941 49.5622C29.0295 49.6961 28.8582 49.8355 28.6755 49.9812C27.6458 50.8028 26.201 51.8954 24.4519 51.8954C22.7028 51.8954 21.258 50.8028 20.2283 49.9812C20.0456 49.8355 19.8743 49.6962 19.7096 49.5622C19.3502 49.2699 19.0223 49.0032 18.6763 48.7513C18.1856 48.394 17.7749 48.1567 17.4083 48.0332C17.0388 47.9087 16.5715 47.8486 15.9755 47.8357C15.5371 47.8262 15.0995 47.8417 14.618 47.8587C14.4294 47.8654 14.234 47.8723 14.0292 47.8781C12.7298 47.9146 10.9571 47.9259 9.55542 46.9452C8.12279 45.9429 7.57576 44.2032 7.21437 42.9249C7.14346 42.6741 7.07971 42.4386 7.01853 42.2125C6.90238 41.7834 6.79553 41.3885 6.6666 40.9888C6.48033 40.4112 6.2901 39.969 6.07052 39.6413C5.85883 39.3631 5.52994 39.0701 5.05777 38.7292C4.74317 38.5021 4.43319 38.2997 4.09274 38.0774C3.88458 37.9415 3.66502 37.7981 3.42607 37.6371C2.31909 36.8913 0.873212 35.8282 0.332603 34.1161C0.0475987 33.2905 0.0731791 32.4607 0.200965 31.7261C0.329035 30.9898 0.577442 30.2565 0.81495 29.6036C0.885372 29.4101 0.954216 29.225 1.02092 29.0457C1.19292 28.5833 1.35069 28.1591 1.48457 27.7262C1.66662 27.1374 1.7623 26.656 1.7623 26.2519C1.7623 25.8479 1.66662 25.3664 1.48457 24.7776C1.35069 24.3447 1.19292 23.9206 1.02092 23.4582C0.954215 23.2788 0.885371 23.0938 0.81495 22.9002C0.577442 22.2473 0.329035 21.514 0.200965 20.7777C0.0725272 20.0393 0.0473406 19.2048 0.336989 18.3751C0.884904 16.733 2.35191 15.7041 3.42607 14.9804C3.58573 14.8728 3.73922 14.7709 3.88755 14.6724C4.30158 14.3974 4.67551 14.1491 5.03168 13.8791C5.50477 13.5206 5.83968 13.1998 6.05548 12.8848C6.06858 12.8657 6.08215 12.8469 6.09619 12.8284C6.33872 12.5098 6.5427 12.0761 6.73418 11.5019C6.88053 11.0631 6.99818 10.6138 7.12817 10.1173C7.1721 9.94959 7.21743 9.77645 7.26576 9.5965C7.59938 8.35438 8.09523 6.61327 9.50493 5.59448C10.8688 4.48264 12.7058 4.51615 13.9916 4.56955C14.2317 4.57952 14.4575 4.59123 14.6743 4.60247C15.1342 4.62631 15.5531 4.64803 15.9796 4.64652C16.5894 4.64436 17.0536 4.5901 17.4083 4.47062C17.7749 4.3471 18.1856 4.10987 18.6763 3.75255C19.0223 3.5006 19.3502 3.23395 19.7096 2.94158C19.8743 2.80767 20.0456 2.66836 20.2283 2.5226ZM20.3141 6.00175C19.7315 6.42599 19.0547 6.85192 18.2965 7.10734C17.5262 7.3668 16.7155 7.42623 15.9895 7.4288C15.4834 7.4306 14.9379 7.40245 14.4416 7.37685C14.2434 7.36662 14.053 7.3568 13.8762 7.34946C12.4399 7.2898 11.6804 7.39926 11.249 7.76252C11.2173 7.78924 11.1844 7.81453 11.1504 7.83831C10.649 8.18914 10.3277 8.92244 9.95283 10.3182C9.91532 10.4579 9.87684 10.605 9.83705 10.7571C9.70195 11.2737 9.55179 11.8478 9.37356 12.3822C9.14176 13.0773 8.82638 13.826 8.33104 14.4859C7.87444 15.1427 7.2809 15.6656 6.71231 16.0965C6.28045 16.4238 5.80218 16.7413 5.36895 17.0289C5.23426 17.1183 5.10391 17.2048 4.98067 17.2879C3.808 18.0779 3.18036 18.6369 2.9747 19.2604C2.97164 19.2697 2.96847 19.2789 2.96521 19.2882C2.88509 19.5149 2.86035 19.8309 2.94211 20.3009C3.02496 20.7773 3.1984 21.3134 3.4296 21.949C3.48431 22.0994 3.54329 22.2579 3.60433 22.4219C3.78505 22.9077 3.98376 23.4417 4.14269 23.9557C4.35905 24.6554 4.5446 25.4434 4.5446 26.2519C4.5446 27.0605 4.35905 27.8485 4.14269 28.5481C3.98376 29.0621 3.78505 29.5962 3.60433 30.0819C3.54329 30.2459 3.48431 30.4045 3.4296 30.5548C3.1984 31.1904 3.02496 31.7265 2.94211 32.2029C2.86035 32.6729 2.88509 32.9889 2.96521 33.2157C2.97136 33.2331 2.97717 33.2506 2.98262 33.2682C3.19843 33.9661 3.8434 34.5634 4.98067 35.3296C5.14809 35.4424 5.3352 35.5649 5.53054 35.6927C5.91293 35.943 6.32684 36.2139 6.68623 36.4733C7.25229 36.8819 7.85632 37.3786 8.32027 38.0038C8.33073 38.0179 8.34091 38.0321 8.35083 38.0466C8.79982 38.702 9.09262 39.4465 9.31459 40.1348C9.46335 40.596 9.6009 41.1033 9.72754 41.5704C9.78447 41.7803 9.83919 41.9822 9.89173 42.168C10.2803 43.5424 10.6332 44.3036 11.1504 44.6655C11.6986 45.0491 12.5507 45.1362 13.9511 45.0969C14.1087 45.0925 14.2752 45.0865 14.4473 45.0804C14.9547 45.0624 15.5114 45.0427 16.0357 45.054C16.7522 45.0695 17.541 45.142 18.2965 45.3965C19.0547 45.6519 19.7315 46.0778 20.3141 46.5021C20.7228 46.7997 21.1443 47.1423 21.5298 47.4558C21.6809 47.5786 21.8264 47.6969 21.9635 47.8063C23.0711 48.69 23.8011 49.1131 24.4519 49.1131C25.1026 49.1131 25.8327 48.69 26.9403 47.8063C27.0774 47.6969 27.2229 47.5786 27.3739 47.4558C27.7595 47.1424 28.1809 46.7997 28.5897 46.5021C29.1723 46.0778 29.8491 45.6519 30.6073 45.3965C31.3775 45.137 32.1882 45.0776 32.9143 45.075C33.4204 45.0732 33.9658 45.1014 34.462 45.127C34.6603 45.1372 34.8507 45.147 35.0276 45.1544C36.4639 45.214 37.2234 45.1046 37.6547 44.7413C37.6864 44.7146 37.7193 44.6893 37.7533 44.6655C38.2548 44.3147 38.576 43.5814 38.9509 42.1856C38.9884 42.046 39.0269 41.8989 39.0667 41.7468C39.2018 41.2302 39.352 40.6561 39.5302 40.1216C39.762 39.4266 40.0774 38.6779 40.5727 38.0179C41.0293 37.3612 41.6228 36.8383 42.1914 36.4073C42.6233 36.08 43.1016 35.7625 43.5348 35.4749C43.6695 35.3855 43.7998 35.299 43.9231 35.216C45.0958 34.4259 45.7234 33.8669 45.9291 33.2434C46.1323 32.6272 45.9623 31.8202 45.4764 30.5042C45.4198 30.3507 45.3581 30.188 45.2941 30.0191C45.1159 29.5485 44.9197 29.0305 44.7632 28.5338C44.5456 27.8428 44.3591 27.0626 44.3591 26.2519C44.3591 25.4434 44.5447 24.6554 44.7611 23.9557C44.92 23.4417 45.1187 22.9077 45.2994 22.422C45.3605 22.2579 45.4194 22.0994 45.4741 21.949C45.7054 21.3134 45.8788 20.7773 45.9616 20.3009C46.0434 19.8309 46.0187 19.5149 45.9385 19.2882C45.9353 19.2789 45.9321 19.2697 45.9291 19.2604C45.7234 18.6369 45.0958 18.0779 43.9231 17.2879C43.7999 17.2048 43.6695 17.1183 43.5348 17.0289C43.1016 16.7413 42.6233 16.4238 42.1914 16.0965C41.6146 15.6593 41.0121 15.1275 40.5529 14.4572C40.1039 13.8018 39.8111 13.0573 39.5892 12.3691C39.4404 11.9078 39.3029 11.4005 39.1762 10.9335C39.1193 10.7235 39.0646 10.5217 39.012 10.3358C38.6235 8.96147 38.2706 8.20018 37.7533 7.83831C37.2051 7.45477 36.3531 7.36763 34.9526 7.40695C34.795 7.41137 34.6286 7.41728 34.4565 7.42339C33.949 7.4414 33.3924 7.46116 32.868 7.4498C32.1516 7.43429 31.3627 7.36182 30.6073 7.10734C29.8491 6.85192 29.1723 6.42599 28.5897 6.00175C28.1809 5.70412 27.7595 5.36148 27.3739 5.04801C27.2229 4.92521 27.0774 4.8069 26.9403 4.69751C25.8327 3.81381 25.1026 3.3907 24.4519 3.3907C23.8011 3.3907 23.0711 3.81382 21.9635 4.69751C21.8264 4.80689 21.6809 4.9252 21.5299 5.04798C21.1443 5.36146 20.7229 5.70411 20.3141 6.00175Z" fill="#010101"/>
<path fill-rule="evenodd" clip-rule="evenodd" d="M34.2761 20.2612C34.8222 20.8016 34.8268 21.6824 34.2864 22.2285L22.4373 34.2031C22.176 34.4672 21.8199 34.6158 21.4484 34.6158C21.0769 34.6158 20.7209 34.4672 20.4596 34.2031L13.4101 27.079C12.8697 26.5329 12.8743 25.6521 13.4205 25.1116C13.9666 24.5712 14.8474 24.5759 15.3878 25.122L21.4484 31.2468L32.3087 20.2715C32.8491 19.7254 33.7299 19.7208 34.2761 20.2612Z" fill="#010101"/>
</svg>
