<svg width="367" height="139" viewBox="0 0 367 139" fill="none" xmlns="http://www.w3.org/2000/svg">
<circle cx="183.5" cy="69.5" r="36.5" fill="black"/>
<path d="M181.763 68.1091H181.469L181.393 68.0391V67.8891L181.257 67.729L181.321 67.4914L181.764 67.5015L181.834 67.579L181.823 68.0399L181.764 68.1099L181.763 68.1091ZM159.901 55L160.048 55.15L160.627 55.145L160.78 55.2933L161.073 55.3034L161.807 55.9219L162.674 56.3857H162.967L163.554 57.0034L163.696 56.9984L163.985 57.456L164.209 57.5435L164.35 58.1566L163.837 58.2341L163.701 58.0841L162.68 57.929L162.527 57.769H161.512L161.218 57.929L160.847 58.4738V58.7738L161.147 59.0915V59.3965L161.437 60.0142L161.878 60.6322L161.872 61.0898L161.441 61.5575L161.66 61.6304L161.943 61.3224H162.236L162.454 61.5529L162.748 62.3306L163.468 63.2525L163.761 64.0302L164.198 64.6474V65.8777L164.057 66.0361L163.915 66.9613L163.329 67.1101L163.335 67.5677L163.042 67.7277L162.894 68.9626L163.118 69.0351L163.407 68.8851L163.773 69.5753V69.8954L163.323 70.2109V70.3559L163.695 70.7511H164.131L164.35 70.9736V71.1328L164.786 71.5854V72.0526L164.639 72.3602L165.447 72.5978L166.309 73.5196H166.462L166.822 74.0589L166.906 74.4486L167.343 74.1314L167.921 73.9814L168.364 73.3638L168.724 73.5938L168.948 73.9915H169.231L169.379 73.8314L170.393 73.8264L170.541 73.9864H170.971L171.124 74.1365L171.567 73.9864L172.139 73.5188L172.723 73.3688L173.597 72.294H174.033L174.334 72.7465H174.476L175.207 72.2889H175.79L175.931 72.1289L176.291 71.9013L176.439 71.5942V71.274L176.22 71.054H176.067L175.636 71.6717L175.129 71.5879V71.1328L175.422 70.9828L175.558 70.3543L175.851 70.2042L175.863 67.7294L175.709 67.5794L175.774 67.1943L176.068 67.0342H176.498L176.792 67.1943L177.093 66.8842H177.376L177.453 67.2668L177.317 67.4143L177.305 67.8845L176.883 68.6605L177.386 69.0406H177.834L177.97 68.8906L178.123 69.0406H178.554L178.985 68.7431L179.652 68.0382L179.722 67.4981L180.082 67.7282L180.159 68.2729L181.321 68.2679L181.615 68.7355H181.904L182.193 68.2679L182.405 68.1954L182.417 67.7282L181.986 67.4306V67.1101L182.122 66.9601L181.981 65.4172L182.264 65.1071L182.201 64.5682H181.757L181.468 65.3359H181.174L180.744 64.5733L180.154 64.8833H179.864L179.794 64.4861L180.519 63.7109V62.6407L180.372 62.4902L180.236 62.1705L180.372 61.7125L180.159 61.64L179.788 62.0205L179.505 62.7882L179.28 63.0207L178.484 62.9482V62.6264L179.074 62.1688L179.068 62.0188L179.505 61.5512L179.947 60.7735L179.723 60.7031L179.576 61.0207L179.357 60.7735L179.647 59.7028L179.871 59.4677H180.16L180.738 60.0963H181.031L181.468 60.5489H181.614L181.685 60.7864L181.909 60.8564L183.213 62.1018L183.507 62.0972L183.79 62.4073H183.937L184.817 63.1846H185.119L185.982 63.7997H186.271L186.419 63.9472H187.728L188.319 63.6384H188.602L189.051 63.3379H189.334L189.481 63.1808L190.065 63.1758L190.213 63.0258L190.496 63.1758H190.933L191.074 63.3333H191.659L191.806 63.493H192.099L192.684 63.951H192.977L193.119 64.1106L193.408 64.1056L193.561 64.256H195.886L196.028 64.1056H197.344L197.922 63.7985L198.506 63.7934L199.533 63.3379L199.963 63.3333L200.111 63.1758H200.843L200.99 63.0157L201.273 63.1758H203.758L204.342 62.7148H205.068L205.221 62.8745H205.947L206.083 63.0249L206.673 63.0199L206.808 63.1699L209.582 63.18L209.729 63.0199H210.318L211.038 63.4875L211.339 63.9548L211.911 64.2502H212.059L212.578 64.955L212.572 65.7202L212.866 66.3428V66.6429L213.001 66.8029L212.866 66.9605V67.4214L212.712 67.579L212.866 67.8891V68.5063L212.572 69.124V69.5765L211.692 71.4391L210.382 72.824V72.9841L210.089 73.1412L210.03 73.3638L209.446 73.5238L207.988 74.289H207.393L207.257 74.4486L204.059 74.4537L203.905 74.6037H202.734L202.303 74.2936H201.577L201.424 74.1365L200.261 74.2936L200.114 74.1365L199.536 73.9915L198.951 73.3738L198.226 72.9066H196.332L196.184 73.0541L195.6 73.0591L193.847 73.9864L192.832 74.4432L192.685 74.2932H192.242L191.812 73.986L190.065 73.831L189.481 74.1411H189.044L188.908 74.2886L187.728 74.5982L187.15 74.9159L186.784 75.1384L186.719 75.3755L186.129 75.523L185.545 75.8331L185.469 76.0686L185.257 76.1411L183.215 78.1525L182.997 78.2304L182.926 78.463H182.783L182.201 79.0802H181.912L180.73 79.6853L179.869 79.6903L179.721 79.8487H178.411L178.262 80H176.954L176.37 79.6975L176.074 79.3878L174.616 79.5378L173.897 78.7655H173.737L173.164 78.458H172.871L172.723 78.2983L170.103 78.3033L169.956 78.4634L169.808 78.3033L168.941 78.1483L168.499 78.458H168.215L167.844 78.0754V77.9157L167.56 77.6082L167.484 77.0634L166.321 77.0684L166.173 77.2281H165.736L165.589 77.3764H165.295L164.865 77.6865H164.571L164.282 77.9941L163.409 78.4688H163.116L162.237 78.9269H161.948L161.075 79.5345L160.195 79.5395L159.764 79.2395L159.18 79.0819L158.814 78.6897V78.0708L158.956 77.9208L158.808 77.7632V77.4531L158.519 76.8409V76.5333L159.393 74.9879V74.8413L160.267 73.9139V73.5938L160.414 73.4463V72.8291L160.278 72.669L160.131 71.9013L159.83 71.4404L159.836 70.3551L159.978 70.2051L160.267 69.7379L160.125 69.5878L160.118 68.5013L160.411 68.0437V67.734L160.559 67.574V66.4937L160.7 66.3437L160.553 65.2584L160.417 65.1084V64.6407L159.98 63.8684V63.5609L159.687 62.9432V62.6331L159.398 62.1755L158.294 61.0123H158.013L157.426 60.5547L157.143 60.3946H156.696L156.118 60.0921L155.825 60.2396H155.536L155.4 60.0921L154.52 60.0971L154 59.6995L154.012 58.9389L154.293 58.4692L154.289 58.1616L154.582 57.5435L155.102 56.9988H155.385L155.969 56.6983L156.263 56.3807H156.556L156.692 56.2307H156.981L157.713 55.7698H158.019L158.886 55.2975L159.901 55Z" fill="white"/>
<path d="M61.7108 72.5601L54.7614 84.1679L127.883 74.5175L70.5115 73.7588L77.8707 61.4834L0 71.7559L61.7108 72.5601Z" fill="#B69538"/>
<path d="M70.3273 116.639L68.0513 129.962L132.691 94.4404L78.9611 114.561L81.3585 100.449L12.5312 138.292L70.3273 116.639Z" fill="#B69538"/>
<path d="M71.0458 24.8543L60.1209 32.8052L131.209 52.4853L78.6933 29.3912L90.2555 20.9698L14.5547 0L71.0458 24.8543Z" fill="#B69538"/>
<path d="M305.156 72.5601L312.106 84.1679L238.984 74.5175L296.356 73.7588L288.996 61.4834L366.867 71.7559L305.156 72.5601Z" fill="#B69538"/>
<path d="M296.539 116.639L298.815 129.962L234.16 94.4404L287.905 114.561L285.492 100.449L354.335 138.292L296.539 116.639Z" fill="#B69538"/>
<path d="M295.808 24.8543L306.733 32.8052L235.66 52.4853L288.176 29.3912L276.598 20.9698L352.299 0L295.808 24.8543Z" fill="#B69538"/>
<path d="M148.616 20.6348L144.383 23.7708L139.613 17.3029L141.064 16.2314L144.84 21.3273L147.636 19.2628L148.616 20.6348Z" fill="white"/>
<path d="M151.049 19.1581L149.507 20.125L145.234 13.3043L146.776 12.3374L151.049 19.1581Z" fill="white"/>
<path d="M154.078 14.7551L153.216 8.83602L154.915 7.97363L155.947 16.4799L154.287 17.3292L148.016 11.4885L149.78 10.5869L154.078 14.7551Z" fill="white"/>
<path d="M164.137 13.1218L159.342 14.8989L156.598 7.34648L161.38 5.58252L161.916 7.18969L158.819 8.33953L159.355 9.80296L162.164 8.75765L162.713 10.2342L159.903 11.2795L160.439 12.7298L163.549 11.58L164.137 13.1218Z" fill="white"/>
<path d="M169.796 11.6457L168.032 12.0115L166.359 4.17168L171.429 3.06104L171.782 4.73353L168.463 5.43912L168.816 7.09855L171.743 6.48443L172.082 8.07853L169.169 8.69265L169.796 11.6457Z" fill="white"/>
<path d="M178.015 10.3781L176.264 7.54268L175.637 7.60801L175.937 10.6002L174.16 10.7831L173.324 2.77345L176.499 2.44679C176.844 2.39705 177.194 2.41651 177.531 2.50401C177.867 2.59151 178.183 2.74531 178.459 2.95638C178.717 3.16882 178.93 3.43097 179.085 3.72725C179.24 4.02354 179.334 4.34792 179.361 4.68114C179.42 5.1813 179.324 5.68762 179.086 6.13151C178.84 6.55814 178.465 6.89637 178.015 7.09842L179.975 10.1821L178.015 10.3781ZM175.467 6.07925L176.525 5.96165C176.83 5.95868 177.12 5.83673 177.336 5.62192C177.412 5.51547 177.467 5.3947 177.496 5.26676C177.525 5.13882 177.528 5.00633 177.505 4.87714C177.495 4.74465 177.457 4.61577 177.394 4.49876C177.331 4.38175 177.245 4.2792 177.14 4.19769C176.877 4.04015 176.567 3.98003 176.264 4.02782L175.219 4.13235L175.467 6.07925Z" fill="white"/>
<path d="M180.603 6.06599C180.595 5.50107 180.708 4.94096 180.933 4.42284C181.158 3.90471 181.491 3.44041 181.91 3.06072C182.74 2.3419 183.812 1.96394 184.91 2.00271C186.008 2.04149 187.051 2.49414 187.829 3.26978C188.22 3.67279 188.523 4.1527 188.719 4.67906C188.914 5.20542 188.998 5.76672 188.966 6.32732C188.971 6.88993 188.857 7.44726 188.632 7.96288C188.406 8.47849 188.075 8.94078 187.659 9.31952C187.26 9.69121 186.791 9.9797 186.28 10.1682C185.768 10.3566 185.224 10.4412 184.68 10.4171C184.131 10.4183 183.587 10.3104 183.08 10.0995C182.573 9.88864 182.113 9.57909 181.727 9.18886C181.327 8.77865 181.021 8.28773 180.827 7.74909C180.633 7.21045 180.557 6.63656 180.603 6.06599ZM183.216 4.30203C182.971 4.53191 182.779 4.81213 182.653 5.12341C182.526 5.43468 182.469 5.76962 182.485 6.10519C182.453 6.43738 182.495 6.77252 182.608 7.08654C182.721 7.40056 182.902 7.68568 183.138 7.92142C183.569 8.33832 184.145 8.5724 184.745 8.57474C185.062 8.59574 185.379 8.54906 185.676 8.43781C185.973 8.32657 186.244 8.1533 186.468 7.92956C186.693 7.70581 186.868 7.43671 186.981 7.14017C187.094 6.84362 187.142 6.52644 187.123 6.20972C187.153 5.87567 187.111 5.53904 186.998 5.22316C186.885 4.90728 186.705 4.61973 186.47 4.38043C186.035 3.96465 185.46 3.72618 184.858 3.71168C184.257 3.69718 183.671 3.90769 183.216 4.30203Z" fill="white"/>
<path d="M198.856 11.9589L197.105 11.6453L198.058 6.41873L195.053 11.2794L193.629 11.0181L192.492 5.46488L191.564 10.6914L189.879 10.3909L191.303 2.42041L193.603 2.83853L194.818 8.57468L197.849 3.59639L200.28 4.02758L198.856 11.9589Z" fill="white"/>
<path d="M210.824 9.46279L208.498 8.58734L206.251 14.5195L204.578 13.8792L206.813 7.96015L204.5 7.08471L205.101 5.47754L211.477 7.86869L210.824 9.46279Z" fill="white"/>
<path d="M215.396 18.9492L213.802 18.1129L215.292 15.2775L212.43 13.7226L210.94 16.558L209.359 15.7218L213.096 8.60059L214.69 9.43683L213.227 12.233L216.062 13.7226L217.539 10.9264L219.133 11.7627L215.396 18.9492Z" fill="white"/>
<path d="M220.897 22.6607L216.703 19.7599L221.276 13.1353L225.471 16.0229L224.543 17.421L221.812 15.5395L220.95 16.8461L223.419 18.5447L222.518 19.8514L220.048 18.1527L219.173 19.4594L221.93 21.2626L220.897 22.6607Z" fill="white"/>
<path d="M138.202 119.77C137.815 119.38 137.509 118.917 137.302 118.408C137.096 117.899 136.993 117.353 137 116.804C136.998 116.249 137.113 115.7 137.338 115.193C137.563 114.687 137.894 114.233 138.307 113.864C138.695 113.47 139.159 113.16 139.67 112.951C140.181 112.742 140.73 112.64 141.282 112.65C141.835 112.659 142.379 112.781 142.883 113.008C143.387 113.235 143.839 113.561 144.213 113.968C144.587 114.348 144.892 114.79 145.115 115.275C145.3 115.686 145.397 116.131 145.402 116.582C145.4 116.953 145.348 117.322 145.245 117.679C145.159 117.999 145.022 118.304 144.84 118.581L143.285 117.718C143.394 117.572 143.478 117.409 143.534 117.235C143.598 117.05 143.633 116.856 143.638 116.66C143.663 116.411 143.627 116.16 143.534 115.928C143.413 115.649 143.245 115.392 143.037 115.17C142.823 114.937 142.562 114.75 142.272 114.622C141.982 114.495 141.668 114.429 141.351 114.429C141.034 114.429 140.721 114.495 140.431 114.622C140.141 114.75 139.88 114.937 139.666 115.17C139.427 115.372 139.232 115.621 139.095 115.902C138.958 116.182 138.88 116.489 138.868 116.801C138.856 117.113 138.909 117.425 139.024 117.715C139.138 118.006 139.313 118.27 139.535 118.489C139.865 118.886 140.331 119.147 140.842 119.221C141.261 119.254 141.681 119.173 142.057 118.986L142.88 120.554C142.598 120.726 142.289 120.849 141.966 120.92C141.599 121.013 141.22 121.052 140.842 121.037C140.387 121.02 139.941 120.904 139.535 120.697C139.042 120.464 138.592 120.151 138.202 119.77Z" fill="white"/>
<path d="M146.366 126.76L146.928 125.114L144.484 123.193L143.021 124.12L141.531 122.945L148.901 118.502L150.534 119.809L147.921 127.988L146.366 126.76ZM148.456 120.697L145.961 122.278L147.45 123.48L148.456 120.697Z" fill="white"/>
<path d="M151.87 126.408V120.959L153.66 122.043L153.516 125.454L156.6 123.768L158.311 124.801L153.398 127.401L151.661 130.262L150.066 129.282L151.87 126.408Z" fill="white"/>
<path d="M164.046 135.959L162.413 135.24L164.438 130.353L160.518 134.509L159.212 133.96V128.289L157.226 133.163L155.645 132.522L158.676 125.062L160.845 125.95V131.817L164.843 127.57L167.13 128.498L164.046 135.959Z" fill="white"/>
<path d="M171.757 137.854L171.561 136.129L168.516 135.45L167.602 136.913L165.746 136.443L170.45 129.243L172.488 129.7L173.651 138.207L171.757 137.854ZM170.973 131.412L169.457 133.934L171.352 134.352L170.973 131.412Z" fill="white"/>
<path d="M182.313 138.925L180.419 138.781L177.505 133.267L177.113 138.494L175.336 138.363L175.924 130.34L178.093 130.497L180.706 135.593L181.059 130.706L182.849 130.837L182.313 138.925Z" fill="white"/>
<path d="M189.399 138.546L187.583 138.703L186.93 130.68L188.746 130.523L189.399 138.546Z" fill="white"/>
<path d="M195.98 131.412L194.49 132.144C194.447 131.989 194.373 131.844 194.273 131.718C194.172 131.593 194.048 131.488 193.907 131.412C193.765 131.335 193.61 131.287 193.45 131.272C193.29 131.256 193.128 131.273 192.975 131.32C192.686 131.352 192.42 131.492 192.23 131.712C192.149 131.799 192.09 131.903 192.056 132.016C192.022 132.13 192.014 132.249 192.034 132.366C192.112 132.771 192.413 132.98 192.949 132.98H194.046C194.705 132.949 195.354 133.143 195.889 133.529C196.352 133.872 196.662 134.383 196.751 134.953C196.809 135.285 196.796 135.626 196.713 135.952C196.63 136.279 196.478 136.584 196.267 136.848C195.776 137.472 195.057 137.876 194.268 137.971C193.433 138.177 192.551 138.046 191.812 137.605C191.214 137.244 190.776 136.67 190.584 135.998L192.125 135.332C192.227 135.694 192.454 136.009 192.766 136.22C192.959 136.339 193.175 136.416 193.4 136.447C193.625 136.479 193.854 136.464 194.072 136.403C194.368 136.374 194.644 136.245 194.856 136.037C194.938 135.951 194.998 135.847 195.032 135.734C195.066 135.621 195.073 135.501 195.052 135.384C195.038 135.287 195.002 135.195 194.948 135.114C194.894 135.033 194.822 134.964 194.739 134.914C194.533 134.792 194.298 134.728 194.059 134.731H192.949C192.33 134.752 191.722 134.563 191.224 134.195C190.769 133.852 190.465 133.346 190.375 132.784C190.312 132.437 190.326 132.08 190.416 131.739C190.506 131.398 190.671 131.081 190.897 130.811C191.37 130.233 192.041 129.852 192.779 129.739C193.211 129.666 193.653 129.666 194.085 129.739C194.43 129.793 194.759 129.917 195.052 130.105C195.285 130.274 195.496 130.471 195.679 130.693C195.812 130.918 195.913 131.16 195.98 131.412Z" fill="white"/>
<path d="M203.914 135.436L198.87 136.926L196.57 129.217L198.295 128.707L200.098 134.783L203.43 133.79L203.914 135.436Z" fill="white"/>
<path d="M210.525 132.627L209.336 131.32L206.488 132.627L206.618 134.352L204.907 135.123L204.41 126.538L206.253 125.715L212.263 131.856L210.525 132.627ZM206.148 127.949L206.37 130.889L208.147 130.105L206.148 127.949Z" fill="white"/>
<path d="M219.684 127.27L218.077 128.289L212.445 125.598L215.281 130.014L213.778 130.968L209.453 124.173L211.295 123.01L216.522 125.519L213.909 121.39L215.398 120.476L219.684 127.27Z" fill="white"/>
<path d="M223.84 123.899L221.645 125.793L216.418 119.691L218.626 117.797C219.015 117.426 219.475 117.138 219.978 116.949C220.48 116.76 221.016 116.675 221.553 116.699C222.625 116.848 223.607 117.383 224.314 118.203C225.021 119.023 225.405 120.072 225.395 121.155C225.331 121.693 225.161 122.213 224.894 122.684C224.627 123.155 224.269 123.568 223.84 123.899ZM221.932 123.337L222.729 122.657C223.193 122.285 223.493 121.745 223.565 121.155C223.585 120.838 223.536 120.52 223.424 120.222C223.311 119.925 223.137 119.655 222.912 119.43C222.721 119.173 222.478 118.959 222.198 118.802C221.919 118.644 221.611 118.547 221.292 118.515C220.997 118.507 220.703 118.557 220.427 118.663C220.151 118.768 219.899 118.927 219.685 119.13L218.888 119.809L221.932 123.337Z" fill="white"/>
<path d="M227.354 111.721L226.609 113.224C226.386 113.075 226.119 113.006 225.851 113.028C225.677 113.048 225.508 113.104 225.355 113.192C225.202 113.279 225.069 113.397 224.963 113.537C224.77 113.746 224.651 114.012 224.623 114.295C224.616 114.413 224.634 114.532 224.677 114.642C224.72 114.753 224.786 114.853 224.871 114.935C225.185 115.21 225.551 115.184 225.982 114.857L226.857 114.191C227.355 113.756 227.987 113.507 228.648 113.485C229.222 113.463 229.781 113.67 230.202 114.06C230.454 114.285 230.655 114.561 230.793 114.87C230.93 115.178 231.001 115.512 231 115.85C230.991 116.646 230.678 117.408 230.124 117.98C229.592 118.654 228.819 119.094 227.968 119.208C227.276 119.292 226.577 119.115 226.008 118.712L226.805 117.222C227.109 117.45 227.485 117.562 227.864 117.536C228.294 117.47 228.683 117.241 228.948 116.895C229.158 116.688 229.291 116.417 229.327 116.124C229.343 116.007 229.328 115.888 229.284 115.779C229.241 115.669 229.17 115.572 229.079 115.497C229.008 115.429 228.924 115.378 228.831 115.346C228.739 115.314 228.64 115.304 228.543 115.314C228.307 115.35 228.086 115.449 227.903 115.602L227.014 116.281C226.54 116.68 225.947 116.909 225.329 116.935C224.763 116.938 224.217 116.728 223.8 116.347C223.534 116.115 223.324 115.827 223.183 115.504C223.043 115.181 222.977 114.83 222.99 114.478C222.996 113.732 223.28 113.014 223.787 112.466C224.076 112.14 224.416 111.862 224.793 111.643C225.093 111.471 225.428 111.369 225.773 111.342C226.054 111.294 226.341 111.294 226.622 111.342C226.886 111.425 227.134 111.554 227.354 111.721Z" fill="white"/>
<path d="M172.228 97.1535C172.109 97.0865 171.966 97.0329 171.808 96.996C171.65 96.9591 171.48 96.9395 171.308 96.9385C171.136 96.9375 170.965 96.955 170.806 96.9901C170.646 97.0252 170.501 97.077 170.38 97.1427C170.258 97.2083 170.161 97.2865 170.096 97.3724C170.031 97.4584 169.999 97.5506 170 97.6434C170.002 97.7363 170.038 97.8281 170.106 97.9134C170.175 97.9986 170.274 98.0757 170.398 98.14C173.615 99.8721 177.974 100.845 182.519 100.845C187.064 100.845 191.423 99.8721 194.64 98.14C194.875 98.0082 195.004 97.8321 195 97.6495C194.996 97.4669 194.86 97.2923 194.621 97.1632C194.381 97.0342 194.058 96.9609 193.719 96.9591C193.381 96.9572 193.054 97.0271 192.81 97.1535C190.079 98.6245 186.378 99.4507 182.519 99.4507C178.66 99.4507 174.959 98.6245 172.228 97.1535Z" fill="#B69538"/>
<path d="M175.882 94.1794C175.763 94.1123 175.62 94.0588 175.462 94.0219C175.304 93.9849 175.134 93.9654 174.962 93.9644C174.79 93.9634 174.619 93.9809 174.46 94.016C174.3 94.051 174.155 94.1029 174.033 94.1686C173.912 94.2342 173.815 94.3123 173.75 94.3983C173.685 94.4843 173.652 94.5764 173.654 94.6693C173.656 94.7622 173.692 94.854 173.76 94.9392C173.828 95.0245 173.928 95.1016 174.052 95.1659C176.297 96.3754 179.341 97.0548 182.514 97.0548C185.687 97.0548 188.73 96.3754 190.975 95.1659C191.21 95.0342 191.339 94.8581 191.336 94.6755C191.333 94.4929 191.197 94.3183 190.957 94.1891C190.718 94.0599 190.395 93.9865 190.056 93.9845C189.718 93.9825 189.391 94.0521 189.147 94.1785C187.387 95.1264 185.001 95.6587 182.514 95.6587C180.028 95.6587 177.642 95.1264 175.882 94.1785L175.882 94.1794Z" fill="#B69538"/>
<path d="M177.716 91.2046C177.474 91.3356 177.337 91.5132 177.337 91.6983C177.337 91.8834 177.474 92.0609 177.716 92.192C178.989 92.8778 180.715 93.263 182.514 93.263C184.313 93.263 186.039 92.8778 187.312 92.192C187.523 92.0587 187.632 91.8877 187.62 91.7128C187.608 91.5379 187.474 91.3718 187.246 91.2476C187.017 91.1233 186.71 91.05 186.386 91.042C186.062 91.034 185.744 91.0921 185.496 91.2046C185.106 91.4153 184.642 91.5824 184.132 91.6964C183.622 91.8105 183.076 91.8692 182.523 91.8692C181.971 91.8692 181.425 91.8105 180.915 91.6964C180.405 91.5824 179.941 91.4153 179.551 91.2046C179.431 91.1397 179.288 91.0883 179.131 91.0532C178.974 91.0181 178.806 91 178.636 91C178.466 91 178.298 91.0181 178.141 91.0532C177.984 91.0883 177.841 91.1397 177.721 91.2046L177.716 91.2046Z" fill="#B69538"/>
<path d="M192.772 43.6912C192.891 43.7583 193.034 43.8118 193.192 43.8487C193.35 43.8857 193.52 43.9052 193.692 43.9062C193.864 43.9072 194.035 43.8897 194.194 43.8546C194.354 43.8196 194.499 43.7677 194.62 43.702C194.742 43.6364 194.839 43.5583 194.904 43.4723C194.969 43.3863 195.001 43.2942 195 43.2013C194.998 43.1084 194.962 43.0166 194.894 42.9314C194.825 42.8461 194.726 42.769 194.602 42.7047C191.385 40.9726 187.026 39.9999 182.481 39.9999C177.936 39.9999 173.577 40.9726 170.36 42.7047C170.125 42.8365 169.996 43.0127 170 43.1953C170.004 43.3779 170.14 43.5524 170.379 43.6815C170.619 43.8106 170.942 43.8839 171.281 43.8857C171.619 43.8875 171.946 43.8177 172.19 43.6912C174.921 42.2202 178.622 41.394 182.481 41.394C186.34 41.394 190.041 42.2202 192.772 43.6912Z" fill="#B69538"/>
<path d="M189.118 46.6653C189.237 46.7324 189.38 46.7859 189.538 46.8229C189.696 46.8598 189.866 46.8793 190.038 46.8803C190.21 46.8813 190.381 46.8638 190.54 46.8287C190.7 46.7937 190.845 46.7418 190.967 46.6762C191.088 46.6105 191.185 46.5324 191.25 46.4464C191.315 46.3604 191.348 46.2683 191.346 46.1754C191.344 46.0825 191.308 45.9908 191.24 45.9055C191.172 45.8202 191.072 45.7432 190.948 45.6788C188.703 44.4693 185.659 43.7899 182.486 43.7899C179.313 43.7899 176.27 44.4693 174.025 45.6788C173.79 45.8106 173.661 45.9866 173.664 46.1692C173.667 46.3518 173.803 46.5264 174.043 46.6556C174.282 46.7848 174.605 46.8583 174.944 46.8603C175.282 46.8622 175.609 46.7926 175.853 46.6662C177.613 45.7184 179.999 45.186 182.486 45.186C184.972 45.186 187.358 45.7184 189.118 46.6662L189.118 46.6653Z" fill="#B69538"/>
<path d="M187.284 49.6402C187.526 49.5091 187.663 49.3316 187.663 49.1464C187.663 48.9613 187.526 48.7838 187.284 48.6527C186.011 47.9669 184.285 47.5817 182.486 47.5817C180.687 47.5817 178.961 47.9669 177.688 48.6527C177.477 48.786 177.368 48.957 177.38 49.1319C177.392 49.3069 177.526 49.4729 177.754 49.5971C177.983 49.7214 178.29 49.7948 178.614 49.8027C178.938 49.8107 179.256 49.7527 179.504 49.6402C179.894 49.4295 180.358 49.2623 180.868 49.1483C181.378 49.0342 181.924 48.9755 182.477 48.9755C183.029 48.9755 183.575 49.0342 184.085 49.1483C184.595 49.2623 185.059 49.4295 185.449 49.6402C185.569 49.705 185.712 49.7565 185.869 49.7916C186.026 49.8267 186.194 49.8447 186.364 49.8447C186.534 49.8447 186.702 49.8267 186.859 49.7916C187.016 49.7565 187.159 49.705 187.279 49.6402L187.284 49.6402Z" fill="#B69538"/>
</svg>
