<svg width="345" height="5" viewBox="0 0 345 5" fill="none" xmlns="http://www.w3.org/2000/svg">
<path d="M0.262199 1.53281C1.19759 0.384629 4.44487 0.0869976 7.00658 0.0799449C104.336 -0.144329 201.614 0.17448 298.938 0.174482C305.525 0.314126 311.467 0.0503443 317.507 0.0573972C323.213 0.06445 328.708 0.187173 334.416 0.452355C334.416 0.452355 345.543 0.951675 344.979 2.73319C344.533 4.14091 343.979 4.31533 340.683 4.86801C326.398 5.97335 343.887 -0.362946 334.724 4.32569C334.599 4.32435 334.416 4.32241 334.724 4.32569C334.09 4.31533 338.11 1.68375 334.724 4.32569C334.825 4.18045 336.707 3.25932 334.724 4.32569C265.354 3.58516 193.403 4.31157 124.029 4.31157C85.2663 4.31157 46.5058 4.49354 7.74534 4.502C4.28278 4.502 -0.479232 3.76569 0.0389558 1.94891C0.0814738 1.79939 0.155904 1.66117 0.262199 1.53281Z" fill="#B69538"/>
</svg>
