<svg width="133" height="4" viewBox="0 0 133 4" fill="none" xmlns="http://www.w3.org/2000/svg">
<path d="M0.101079 1.36189C0.461681 0.341741 1.71353 0.0772968 2.70109 0.0710305C40.2221 -0.128235 77.7237 0.155024 115.243 0.155026C117.782 0.279099 120.073 0.0447306 122.401 0.050997C124.601 0.0572634 126.719 0.166302 128.92 0.401914C128.92 0.401914 133.209 0.845557 132.992 2.42842C132.82 3.67917 133.437 2.94628 132.166 3.43733C126.66 4.41942 131.319 1.33663 129.625 3.43733C129.576 3.43614 129.506 3.43441 129.625 3.43733C129.38 3.42812 130.93 1.08998 129.625 3.43733C129.663 3.30828 130.389 2.48986 129.625 3.43733C102.882 2.77937 74.5582 3.8308 47.8142 3.8308C32.8708 3.8308 17.9283 3.99248 2.98588 4C1.65104 4 -0.184747 3.34579 0.0150177 1.73159C0.0314087 1.59875 0.060102 1.47594 0.101079 1.36189Z" fill="#B69538"/>
</svg>
