<svg width="44" height="53" viewBox="0 0 44 53" fill="none" xmlns="http://www.w3.org/2000/svg">
<path d="M42 21.9432C42 37.4545 22 50.75 22 50.75C22 50.75 2 37.4545 2 21.9432C2 16.6539 4.10714 11.5813 7.85786 7.84122C11.6086 4.10115 16.6957 2 22 2C27.3043 2 32.3914 4.10115 36.1421 7.84122C39.8929 11.5813 42 16.6539 42 21.9432Z" fill="white"/>
<path d="M22 28.5909C25.6819 28.5909 28.6667 25.6146 28.6667 21.9432C28.6667 18.2717 25.6819 15.2955 22 15.2955C18.3181 15.2955 15.3333 18.2717 15.3333 21.9432C15.3333 25.6146 18.3181 28.5909 22 28.5909Z" fill="white"/>
<path fill-rule="evenodd" clip-rule="evenodd" d="M22 3.5C17.0921 3.5 12.3861 5.44415 8.91702 8.90339C5.44806 12.3625 3.5 17.0531 3.5 21.9432C3.5 29.0943 8.1468 35.9299 13.0875 41.1302C15.5269 43.6978 17.9714 45.7974 19.8078 47.2555C20.7149 47.9758 21.4706 48.5372 22 48.9188C22.5294 48.5372 23.2851 47.9758 24.1922 47.2555C26.0286 45.7974 28.4731 43.6978 30.9125 41.1302C35.8532 35.9299 40.5 29.0943 40.5 21.9432C40.5 17.0531 38.5519 12.3625 35.083 8.90339C31.6139 5.44415 26.9079 3.5 22 3.5ZM22 50.75C21.1696 51.9992 21.1692 51.9989 21.1687 51.9986L21.1633 51.995L21.1498 51.9859L21.1015 51.9533C21.06 51.9252 21.0001 51.8844 20.923 51.8312C20.7688 51.7247 20.5459 51.5686 20.264 51.3656C19.7004 50.9597 18.9002 50.3656 17.9422 49.6049C16.0286 48.0855 13.4731 45.8917 10.9125 43.1965C5.8532 37.8713 0.5 30.3034 0.5 21.9432C0.5 16.2547 2.76621 10.8001 6.79871 6.77905C10.8311 2.75815 16.2992 0.5 22 0.5C27.7008 0.5 33.1689 2.75815 37.2013 6.77905C41.2338 10.8001 43.5 16.2547 43.5 21.9432C43.5 30.3034 38.1468 37.8713 33.0875 43.1965C30.5269 45.8917 27.9714 48.0855 26.0578 49.6049C25.0998 50.3656 24.2996 50.9597 23.736 51.3656C23.4541 51.5686 23.2312 51.7247 23.077 51.8312C22.9999 51.8844 22.94 51.9252 22.8985 51.9533L22.8502 51.9859L22.8367 51.995L22.8313 51.9986C22.8308 51.9989 22.8304 51.9992 22 50.75ZM22 50.75L22.8304 51.9992C22.3273 52.3336 21.6727 52.3336 21.1696 51.9992L22 50.75ZM22 16.7955C19.1425 16.7955 16.8333 19.1042 16.8333 21.9432C16.8333 24.7822 19.1425 27.0909 22 27.0909C24.8575 27.0909 27.1667 24.7822 27.1667 21.9432C27.1667 19.1042 24.8575 16.7955 22 16.7955ZM13.8333 21.9432C13.8333 17.4393 17.4937 13.7955 22 13.7955C26.5063 13.7955 30.1667 17.4393 30.1667 21.9432C30.1667 26.4471 26.5063 30.0909 22 30.0909C17.4937 30.0909 13.8333 26.4471 13.8333 21.9432Z" fill="#B69538"/>
</svg>
