<svg width="79" height="71" fill="none" xmlns="http://www.w3.org/2000/svg"><path d="M56.117 64.365H43.082v-4.828a25.528 25.528 0 0 1-6.253-2.545l-3.382 3.381-9.217-9.217 3.265-3.264a25.57 25.57 0 0 1-2.758-6.372h-4.499V28.486h4.267a25.57 25.57 0 0 1 2.657-6.703l-2.933-2.934 9.217-9.217 2.817 2.817a25.54 25.54 0 0 1 6.82-2.877v-3.93h13.034v3.93a25.54 25.54 0 0 1 6.82 2.877l2.816-2.817 9.217 9.217-2.933 2.934a25.507 25.507 0 0 1 2.657 6.703h4.267V41.52h-4.5a25.54 25.54 0 0 1-2.757 6.371l3.265 3.265-9.217 9.217-3.382-3.381a25.549 25.549 0 0 1-6.253 2.545v4.828z" fill="#B69538"/><path d="M49.594 51.736c-9.225 0-16.73-7.506-16.73-16.731 0-9.226 7.505-16.732 16.73-16.732 9.226 0 16.732 7.506 16.732 16.732 0 9.225-7.507 16.73-16.731 16.73z" fill="#fff"/><path d="M49.596 40.93a5.931 5.931 0 0 1-5.924-5.925 5.93 5.93 0 0 1 5.924-5.924 5.931 5.931 0 0 1 5.925 5.924 5.931 5.931 0 0 1-5.925 5.925z" fill="#fff"/><path d="M56.117 64.365H43.082v-4.828a25.528 25.528 0 0 1-6.253-2.545l-3.382 3.381-9.217-9.217 3.265-3.264a25.57 25.57 0 0 1-2.758-6.372h-4.499V28.486h4.267a25.57 25.57 0 0 1 2.657-6.703l-2.933-2.934 9.217-9.217 2.817 2.817a25.54 25.54 0 0 1 6.82-2.877v-3.93h13.034v3.93a25.54 25.54 0 0 1 6.82 2.877l2.816-2.817 9.217 9.217-2.933 2.934a25.507 25.507 0 0 1 2.657 6.703h4.267V41.52h-4.5a25.54 25.54 0 0 1-2.757 6.371l3.265 3.265-9.217 9.217-3.382-3.381a25.549 25.549 0 0 1-6.253 2.545v4.828zm-10.021-3.013h7.007V57.12l1.198-.251a22.604 22.604 0 0 0 7.495-3.048l1.02-.647 2.937 2.937 4.955-4.955-2.867-2.866.692-1.03a22.61 22.61 0 0 0 3.289-7.583l.269-1.17h3.857v-7.008H72.23l-.232-1.225a22.571 22.571 0 0 0-3.132-7.916l-.647-1.02 2.49-2.489-4.956-4.955-2.419 2.419-1.03-.692a22.571 22.571 0 0 0-8.003-3.38l-1.198-.252V8.654h-7.007v3.335l-1.198.251a22.572 22.572 0 0 0-8.004 3.38l-1.03.693-2.418-2.419-4.955 4.955 2.489 2.49-.647 1.019a22.573 22.573 0 0 0-3.132 7.916l-.232 1.225H23.25v7.007h3.857l.269 1.17a22.59 22.59 0 0 0 3.289 7.584l.692 1.03-2.867 2.866 4.955 4.955 2.937-2.937 1.02.647a22.577 22.577 0 0 0 7.495 3.048l1.198.25v4.233z" fill="#4C4C4C"/><path d="M49.594 51.736c-9.225 0-16.73-7.506-16.73-16.731 0-9.226 7.505-16.732 16.73-16.732 9.226 0 16.732 7.506 16.732 16.732 0 9.225-7.507 16.73-16.731 16.73zm0-30.448c-7.563 0-13.717 6.153-13.717 13.718 0 7.564 6.153 13.717 13.717 13.717 7.564 0 13.718-6.153 13.718-13.717 0-7.565-6.154-13.718-13.718-13.718z" fill="#4C4C4C"/><path d="M49.596 40.93a5.931 5.931 0 0 1-5.924-5.925 5.93 5.93 0 0 1 5.924-5.924 5.931 5.931 0 0 1 5.925 5.924 5.931 5.931 0 0 1-5.925 5.925zm0-8.834a2.914 2.914 0 0 0-2.91 2.91 2.914 2.914 0 0 0 2.91 2.911 2.914 2.914 0 0 0 2.911-2.91 2.914 2.914 0 0 0-2.91-2.911z" fill="#4C4C4C"/><path d="M41.576 70.821H9.126c-4.891 0-8.872-3.98-8.872-8.873V9.694c0-4.892 3.98-8.873 8.873-8.873h32.45c4.892 0 8.873 3.98 8.873 8.873v52.254c0 4.893-3.98 8.873-8.874 8.873z" fill="#fff"/><path d="M41.578 67.933H9.13a5.991 5.991 0 0 1-5.984-5.985V9.694c0-3.3 2.684-5.985 5.984-5.985h32.45c3.3 0 5.985 2.685 5.985 5.985v52.254c0 3.3-2.684 5.985-5.986 5.985z" fill="#fff"/><path d="M35.912 36.757h-3.767v-3.39h3.767v3.39zm-8.79 0h-3.767v-3.39h3.767v3.39zm-8.79 0h-3.539v-3.39h3.539v3.39z" fill="#4C4C4C"/><path d="M44.79 5.643H5.31v7.155H44.79V5.643zm0 50.459H5.31v9.72H44.79v-9.72z" fill="#B69538"/><path d="M41.578 67.933H9.13a5.991 5.991 0 0 1-5.984-5.985V9.694c0-3.3 2.684-5.985 5.984-5.985h32.45c3.3 0 5.985 2.685 5.985 5.985v52.254c0 3.3-2.684 5.985-5.986 5.985zM9.13 6.723a2.974 2.974 0 0 0-2.97 2.97v52.255a2.974 2.974 0 0 0 2.97 2.97h32.45a2.974 2.974 0 0 0 2.971-2.97V9.694a2.975 2.975 0 0 0-2.97-2.971H9.13z" fill="#4C4C4C"/><path d="M46.054 54.395H4.648v3.014h41.406v-3.014zm0-43.103H4.648v3.014h41.406v-3.014zm-16.57 48.387h-8.27v3.014h8.27v-3.014zM27.892 7.566h-5.08v2.888h5.08V7.566z" fill="#4C4C4C"/></svg>