<svg width="86" height="74" fill="none" xmlns="http://www.w3.org/2000/svg"><path d="M55.97 23.451c-5.808 0-10.532-4.724-10.532-10.531 0-5.808 4.724-10.532 10.531-10.532 5.808 0 10.532 4.724 10.532 10.532 0 5.806-4.724 10.531-10.532 10.531zm15.52 22.952H40.444a1.817 1.817 0 0 1-1.815-1.815v-7.315c0-4.714 3.178-8.847 7.73-10.05l.017-.005a51.882 51.882 0 0 1 1.626-.359c2.234-.427 5.063-.662 7.965-.662 2.819 0 5.583.224 7.783.629.398.073 1.78.38 2.163.493l.028.008a10.489 10.489 0 0 1 5.283 3.704 10.302 10.302 0 0 1 2.081 6.242v7.315a1.818 1.818 0 0 1-1.815 1.815z" fill="#fff"/><path d="M30.935 22.409c-6.179 0-11.204-5.027-11.204-11.204C19.73 5.024 24.756 0 30.934 0c6.178 0 11.204 5.027 11.204 11.204.002 6.178-5.025 11.205-11.204 11.205z" fill="#B69538"/><path d="M55.97 23.451c-5.808 0-10.532-4.724-10.532-10.531 0-5.808 4.724-10.532 10.531-10.532 5.808 0 10.532 4.724 10.532 10.532 0 5.806-4.724 10.531-10.532 10.531zm0-17.868c-4.046 0-7.336 3.291-7.336 7.335 0 4.045 3.291 7.335 7.335 7.335 4.044 0 7.336-3.29 7.336-7.335 0-4.044-3.29-7.335-7.336-7.335zm15.52 40.82H40.444a1.817 1.817 0 0 1-1.815-1.815v-7.315c0-4.714 3.178-8.847 7.73-10.05l.017-.005a51.882 51.882 0 0 1 1.626-.359c2.234-.427 5.063-.662 7.965-.662 2.819 0 5.583.224 7.783.629.398.073 1.78.38 2.163.493l.028.008a10.489 10.489 0 0 1 5.283 3.704 10.302 10.302 0 0 1 2.081 6.242v7.315a1.818 1.818 0 0 1-1.815 1.815zm-29.664-3.197h28.283v-5.933a7.14 7.14 0 0 0-1.44-4.321 7.26 7.26 0 0 0-3.651-2.566l-.005-.001a41.256 41.256 0 0 0-1.843-.416c-2.015-.371-4.574-.575-7.204-.575-2.707 0-5.323.214-7.365.606a48.46 48.46 0 0 0-1.43.314 7.199 7.199 0 0 0-5.347 6.959v5.933h.002z" fill="#4C4C4C"/><path d="M47.627 49.466H14.243a4.9 4.9 0 0 1-4.895-4.895v-7.707c0-6.404 4.32-12.017 10.502-13.652l.044-.011c.33-.085 1.503-.344 1.924-.424 2.58-.493 5.816-.764 9.117-.764 3.203 0 6.365.257 8.902.724.476.088 2.064.439 2.611.598l.083.026a14.24 14.24 0 0 1 7.16 5.024 14.003 14.003 0 0 1 2.83 8.48v7.707a4.896 4.896 0 0 1-4.894 4.894z" fill="#fff"/><path d="M30.935 22.409c-6.179 0-11.204-5.027-11.204-11.204C19.73 5.024 24.756 0 30.934 0c6.178 0 11.204 5.027 11.204 11.204.002 6.178-5.025 11.205-11.204 11.205zm0-19.214c-4.415 0-8.008 3.593-8.008 8.008 0 4.416 3.593 8.008 8.008 8.008 4.415 0 8.008-3.592 8.008-8.008 0-4.415-3.591-8.008-8.008-8.008z" fill="#4C4C4C"/><path d="M47.63 46.404H14.245a1.834 1.834 0 0 1-1.83-1.832v-7.707c0-5.014 3.38-9.41 8.221-10.69l.015-.004a56.231 56.231 0 0 1 1.745-.385c2.395-.458 5.429-.71 8.542-.71 3.023 0 5.988.24 8.347.674.428.079 1.905.41 2.315.528l.032.009a11.155 11.155 0 0 1 5.616 3.939 10.962 10.962 0 0 1 2.215 6.64v7.706c0 1.01-.822 1.832-1.833 1.832z" fill="#B69538"/><path d="M47.63 46.404H14.245a1.834 1.834 0 0 1-1.83-1.832v-7.707c0-5.014 3.38-9.41 8.221-10.69l.015-.004a56.231 56.231 0 0 1 1.745-.385c2.395-.458 5.429-.71 8.542-.71 3.023 0 5.988.24 8.347.674.428.079 1.905.41 2.315.528l.032.009a11.155 11.155 0 0 1 5.616 3.939 10.962 10.962 0 0 1 2.215 6.64v7.706c0 1.01-.822 1.832-1.833 1.832zm-32.02-3.197h30.656v-6.342c0-1.718-.543-3.35-1.573-4.717a7.924 7.924 0 0 0-3.986-2.802 45.73 45.73 0 0 0-2-.452c-2.174-.4-4.933-.621-7.768-.621-2.918 0-5.738.232-7.941.653a51.07 51.07 0 0 0-1.545.34h-.005a7.861 7.861 0 0 0-5.836 7.598v6.343h-.001z" fill="#4C4C4C"/><path d="M76.36 49.466H9.36a4.662 4.662 0 1 1 0-9.323H76.36a4.662 4.662 0 1 1 0 9.323z" fill="#fff"/><path d="M44.458 44.094h-3.196v20.03h3.196v-20.03zm17.279 24.762L51.355 57.164v-13.07h3.197V55.95l9.576 10.782-2.391 2.123z" fill="#4C4C4C"/><path d="M47.48 68.925a4.74 4.74 0 1 0-9.227-2.179 4.74 4.74 0 0 0 9.227 2.179z" fill="#B69538"/><path d="M42.858 74a6.213 6.213 0 0 1-6.206-6.206 6.213 6.213 0 0 1 6.206-6.206 6.213 6.213 0 0 1 6.206 6.206 6.213 6.213 0 0 1-6.206 6.205zm0-9.482a3.279 3.279 0 0 0-3.275 3.276 3.279 3.279 0 0 0 3.275 3.275 3.279 3.279 0 0 0 3.275-3.275 3.279 3.279 0 0 0-3.275-3.276z" fill="#4C4C4C"/><path d="M67.558 68.926a4.74 4.74 0 1 0-9.226-2.18 4.74 4.74 0 0 0 9.226 2.18z" fill="#B69538"/><path d="M62.932 74a6.213 6.213 0 0 1-6.205-6.206 6.213 6.213 0 0 1 6.205-6.206 6.213 6.213 0 0 1 6.206 6.206 6.213 6.213 0 0 1-6.206 6.205zm0-9.482a3.279 3.279 0 0 0-3.275 3.276 3.279 3.279 0 0 0 3.275 3.275 3.279 3.279 0 0 0 3.275-3.275 3.279 3.279 0 0 0-3.275-3.276zm16.053-6.234h-15.88V43.542h3.197v11.545h12.683v3.197z" fill="#4C4C4C"/><path d="M80.813 61.062a4.74 4.74 0 1 0-3.629-8.76 4.74 4.74 0 0 0 3.629 8.76z" fill="#B69538"/><path d="M78.983 62.892a6.213 6.213 0 0 1-6.206-6.206 6.213 6.213 0 0 1 6.206-6.206 6.213 6.213 0 0 1 6.206 6.206 6.213 6.213 0 0 1-6.206 6.206zm0-9.48a3.279 3.279 0 0 0-3.275 3.276 3.279 3.279 0 0 0 3.275 3.275 3.279 3.279 0 0 0 3.275-3.276 3.279 3.279 0 0 0-3.275-3.275zM24.051 68.856l-2.39-2.123 9.573-10.782V44.094h3.197v13.07l-10.38 11.692z" fill="#4C4C4C"/><path d="M23.624 72.468a4.74 4.74 0 1 0-1.52-9.358 4.74 4.74 0 0 0 1.52 9.358z" fill="#B69538"/><path d="M22.854 74a6.213 6.213 0 0 1-6.206-6.206 6.213 6.213 0 0 1 6.206-6.206 6.213 6.213 0 0 1 6.206 6.206 6.213 6.213 0 0 1-6.206 6.205zm0-9.482a3.279 3.279 0 0 0-3.275 3.276 3.279 3.279 0 0 0 3.275 3.275 3.279 3.279 0 0 0 3.275-3.275 3.279 3.279 0 0 0-3.275-3.276zm-.174-6.234H6.8v-3.197h12.684V43.542h3.196v14.742z" fill="#4C4C4C"/><path d="M7.882 61.263a4.74 4.74 0 1 0-2.179-9.227 4.74 4.74 0 0 0 2.179 9.227z" fill="#B69538"/><path d="M6.803 62.892a6.213 6.213 0 0 1-6.205-6.206 6.213 6.213 0 0 1 6.205-6.206 6.213 6.213 0 0 1 6.206 6.206 6.213 6.213 0 0 1-6.206 6.206zm0-9.48a3.279 3.279 0 0 0-3.275 3.276 3.279 3.279 0 0 0 3.275 3.275 3.279 3.279 0 0 0 3.276-3.276 3.28 3.28 0 0 0-3.276-3.275zm70.338-10.205H8.572v3.197h68.57v-3.197z" fill="#4C4C4C"/></svg>