<svg width="61" height="58" viewBox="0 0 61 58" fill="none" xmlns="http://www.w3.org/2000/svg">
<rect width="60.7961" height="57.3975" rx="9" fill="white"/>
<path d="M58.1699 13.6257H2.64062V3.02148H58.1699V13.6257Z" fill="#B69538"/>
<path d="M58.1699 54.5779H2.64062V3.02148H58.1699V54.5779ZM5.11657 52.102H55.694V5.49743H5.11657V52.102Z" fill="#4C4C4C"/>
<path d="M56.9323 12.3877H3.87891V14.8636H56.9323V12.3877Z" fill="#4C4C4C"/>
<path d="M16.4878 10.5033C17.4049 10.2868 17.9729 9.36773 17.7563 8.4506C17.5397 7.53347 16.6207 6.96555 15.7036 7.18211C14.7864 7.39867 14.2185 8.3177 14.4351 9.23483C14.6516 10.152 15.5707 10.7199 16.4878 10.5033Z" fill="#4C4C4C"/>
<path d="M10.9448 10.5043C11.862 10.2877 12.4299 9.36868 12.2133 8.45156C11.9968 7.53444 11.0777 6.96652 10.1606 7.18308C9.24348 7.39964 8.67556 8.31867 8.89212 9.23579C9.10868 10.1529 10.0277 10.7208 10.9448 10.5043Z" fill="#4C4C4C"/>
<path d="M22.0347 10.5024C22.9518 10.2859 23.5197 9.3668 23.3032 8.44965C23.0866 7.5325 22.1676 6.96456 21.2504 7.18112C20.3333 7.39769 19.7654 8.31674 19.982 9.23389C20.1985 10.151 21.1175 10.719 22.0347 10.5024Z" fill="#4C4C4C"/>
<path d="M48.4718 45.8929H38.7031V43.417H45.9958V34.681H38.7031V32.2051H48.4718V45.8929Z" fill="#4C4C4C"/>
<path d="M35.2025 22.2314H32.7266V44.6543H35.2025V22.2314Z" fill="#4C4C4C"/>
<path d="M38.7047 19.4102H29.2188V25.0522H38.7047V19.4102Z" fill="#B69538"/>
<path d="M39.8416 26.188H28.0859V18.2764H39.8416V26.188ZM30.3556 23.9184H37.5719V20.546H30.3556V23.9184Z" fill="#4C4C4C"/>
<path d="M38.7047 30.6221H29.2188V36.2642H38.7047V30.6221Z" fill="#B69538"/>
<path d="M39.8416 37.3981H28.0859V29.4854H39.8416V37.3981ZM30.3556 35.1285H37.5719V31.755H30.3556V35.1285Z" fill="#4C4C4C"/>
<path d="M38.7047 41.833H29.2188V47.4751H38.7047V41.833Z" fill="#B69538"/>
<path d="M39.8416 48.61H28.0859V40.6973H39.8416V48.61ZM30.3556 46.3404H37.5719V42.9669H30.3556V46.3404Z" fill="#4C4C4C"/>
<path d="M18.9916 28.975H16.5156V20.9941H29.2224V23.4701H18.9916V28.975Z" fill="#4C4C4C"/>
<path d="M17.7539 39.3353L9.98047 33.4426L17.7539 27.5498L25.5274 33.4426L17.7539 39.3353Z" fill="#B69538"/>
<path d="M17.7539 39.3353L9.98047 33.4426L17.7539 27.5498L25.5274 33.4426L17.7539 39.3353ZM13.7377 33.4426L17.7539 36.487L21.7701 33.4426L17.7539 30.3982L13.7377 33.4426Z" fill="#4C4C4C"/>
</svg>
