<svg width="99" height="72" viewBox="0 0 99 72" fill="none" xmlns="http://www.w3.org/2000/svg">
<path d="M55.8914 52.1897H0.46875V0H55.8914V52.1897Z" fill="white"/>
<path d="M55.8914 11.0845H0.46875V0H55.8914V11.0845Z" fill="#B69538"/>
<path d="M55.8914 52.1897H0.46875V0H55.8914V52.1897ZM3.19613 49.4498H53.164V2.73992H3.19613V49.4498Z" fill="#4C4C4C"/>
<path d="M54.507 9.69824H1.85547V12.4694H54.507V9.69824Z" fill="#4C4C4C"/>
<path d="M14.9469 8.02295C15.9102 7.79548 16.5067 6.83015 16.2793 5.86681C16.0518 4.90348 15.0865 4.30695 14.1232 4.53442C13.1598 4.76189 12.5633 5.72722 12.7908 6.69055C13.0182 7.65389 13.9836 8.25042 14.9469 8.02295Z" fill="#4C4C4C"/>
<path d="M9.12658 8.02291C10.0899 7.79545 10.6864 6.83012 10.459 5.8668C10.2315 4.90348 9.26617 4.30696 8.30284 4.53442C7.33952 4.76189 6.74299 5.72721 6.97046 6.69053C7.19793 7.65385 8.16325 8.25038 9.12658 8.02291Z" fill="#4C4C4C"/>
<path d="M20.7633 8.02291C21.7266 7.79545 22.3232 6.83012 22.0957 5.8668C21.8682 4.90348 20.9029 4.30696 19.9396 4.53442C18.9762 4.76189 18.3797 5.72721 18.6072 6.69053C18.8346 7.65385 19.8 8.25038 20.7633 8.02291Z" fill="#4C4C4C"/>
<path d="M37.4157 14.3173L98.9531 14.3173L98.9531 72L37.4157 72L37.4157 14.3173Z" fill="white"/>
<path d="M37.4157 59.5891L98.9531 59.5891L98.9531 72L37.4157 72L37.4157 59.5891Z" fill="#B69538"/>
<path d="M37.4157 14.3173L98.9531 14.3173L98.9531 72L37.4157 72L37.4157 14.3173ZM95.9248 17.3456L40.444 17.3456L40.444 68.9717L95.9248 68.9717L95.9248 17.3456Z" fill="#4C4C4C"/>
<path d="M38.9283 61.1035L97.4375 61.1035L97.4375 58.0752L38.9283 58.0752L38.9283 61.1035Z" fill="#4C4C4C"/>
<path d="M89.6042 63.7363H82.6758V66.7646H89.6042V63.7363Z" fill="#4C4C4C"/>
<path d="M44.5754 35.6353H26.8069C24.3678 35.6353 22.3906 33.658 22.3906 31.219C22.3906 28.78 24.3678 26.8027 26.8069 26.8027H44.5754V35.6353Z" fill="white"/>
<path d="M61.037 29.7061H25.3359V32.7344H61.037V29.7061Z" fill="#4C4C4C"/>
<path d="M53.1295 41.2695L50.9883 39.1283L58.8959 31.2207L50.9883 23.3131L53.1295 21.1719L63.1784 31.2207L53.1295 41.2695Z" fill="#4C4C4C"/>
<path d="M32.209 41.2695L22.1602 31.2207L32.209 21.1719L34.3503 23.3131L26.4427 31.2207L34.3503 39.1283L32.209 41.2695Z" fill="#4C4C4C"/>
</svg>
