<svg width="99" height="72" fill="none" xmlns="http://www.w3.org/2000/svg"><path d="M55.891 52.19H.47V0H55.89v52.19z" fill="#fff"/><path d="M55.891 11.085H.47V0H55.89v11.085z" fill="#B69538"/><path d="M55.891 52.19H.47V0H55.89v52.19zM3.196 49.45h49.968V2.74H3.196v46.71z" fill="#4C4C4C"/><path d="M54.507 9.698H1.855v2.771h52.652V9.7zm-39.56-1.675a1.792 1.792 0 1 0-.824-3.489 1.792 1.792 0 0 0 .824 3.489zm-5.82 0a1.792 1.792 0 1 0-.824-3.489 1.792 1.792 0 0 0 .824 3.489zm11.636 0a1.792 1.792 0 1 0-.823-3.489 1.792 1.792 0 0 0 .823 3.489z" fill="#4C4C4C"/><path d="M37.416 14.317h61.537V72H37.416V14.317z" fill="#fff"/><path d="M37.416 59.59h61.537V72H37.416V59.59z" fill="#B69538"/><path d="M37.416 14.317h61.537V72H37.416V14.317zm58.509 3.029H40.444v51.626h55.48V17.346z" fill="#4C4C4C"/><path d="M38.928 61.103h58.51v-3.028h-58.51v3.028zm50.676 2.633h-6.928v3.029h6.928v-3.029z" fill="#4C4C4C"/><path d="M44.575 35.635H26.807a4.416 4.416 0 0 1 0-8.832h17.768v8.832z" fill="#fff"/><path d="M61.037 29.706H25.336v3.028h35.701v-3.028z" fill="#4C4C4C"/><path d="M53.13 41.27l-2.142-2.142 7.908-7.907-7.908-7.908 2.142-2.141L63.178 31.22 53.13 41.27zm-20.921 0L22.16 31.22 32.21 21.173l2.141 2.141-7.907 7.908 7.907 7.907-2.141 2.142z" fill="#4C4C4C"/></svg>