<svg width="54" height="64" fill="none" xmlns="http://www.w3.org/2000/svg"><path d="M54 50.14H0V.002h54v50.14z" fill="#fff"/><path d="M54 10.82H0V0h54v10.82z" fill="#B69538"/><path d="M11.073 60.262a.222.222 0 0 1-.221-.221v-5.328a9.002 9.002 0 0 1 6.691-8.702l.008-.002a50.445 50.445 0 0 1 1.564-.344c2.188-.418 4.973-.648 7.843-.648 2.788 0 5.51.218 7.668.615a42.23 42.23 0 0 1 2.055.466l.016.005a9.085 9.085 0 0 1 4.565 3.206 8.922 8.922 0 0 1 1.803 5.403v5.327c0 .123-.1.222-.222.222h-31.77v.001z" fill="#fff"/><path d="M54 50.14H0V.002h54v50.14zM2.454 47.688h49.092V2.455H2.454v45.232z" fill="#4C4C4C"/><path d="M52.667 9.1H1.121v2.454h51.546V9.101z" fill="#4C4C4C"/><path d="M27.208 41.591c-5.717 0-10.368-4.65-10.368-10.368 0-5.717 4.65-10.367 10.368-10.367 5.717 0 10.368 4.65 10.368 10.367 0 5.718-4.652 10.368-10.368 10.368zM42.946 61.49H11.179c-.8 0-1.449-.65-1.449-1.448v-5.328c0-4.638 3.128-8.704 7.606-9.888l.012-.003a50.73 50.73 0 0 1 1.642-.362c2.262-.433 5.128-.67 8.073-.67 2.86 0 5.662.225 7.89.635.391.073 1.799.386 2.173.495l.033.01a10.31 10.31 0 0 1 5.187 3.642 10.139 10.139 0 0 1 2.05 6.141v5.328c0 .8-.651 1.449-1.45 1.449z" fill="#B69538"/><path d="M27.208 41.591c-5.717 0-10.368-4.65-10.368-10.368 0-5.717 4.65-10.367 10.368-10.367 5.717 0 10.368 4.65 10.368 10.367 0 5.718-4.652 10.368-10.368 10.368zm0-18.282c-4.365 0-7.914 3.55-7.914 7.914s3.55 7.915 7.914 7.915 7.914-3.551 7.914-7.915c0-4.363-3.55-7.914-7.914-7.914zm15.738 38.18H11.179c-.8 0-1.449-.65-1.449-1.448v-5.328c0-4.638 3.128-8.704 7.606-9.888l.012-.003a50.73 50.73 0 0 1 1.642-.362c2.262-.433 5.128-.67 8.073-.67 2.86 0 5.662.225 7.89.635.391.073 1.799.386 2.173.495l.033.01a10.31 10.31 0 0 1 5.187 3.642 10.139 10.139 0 0 1 2.05 6.141v5.328c0 .8-.651 1.449-1.45 1.449zm-30.763-2.453h29.758v-4.324c0-1.7-.538-3.312-1.557-4.666a7.841 7.841 0 0 0-3.942-2.77l-.006-.002a42.863 42.863 0 0 0-1.93-.436c-2.085-.385-4.729-.596-7.444-.596-2.795 0-5.498.223-7.612.627-.3.057-1.296.278-1.488.327a7.775 7.775 0 0 0-5.779 7.515v4.325z" fill="#4C4C4C"/><path d="M49.814 63.78H4.328a3.578 3.578 0 0 1 0-7.157h45.486a3.578 3.578 0 1 1 0 7.157z" fill="#fff"/><path d="M49.603 58.974H4.117v2.453h45.486v-2.453z" fill="#4C4C4C"/></svg>