<svg width="82" height="77" fill="none" xmlns="http://www.w3.org/2000/svg"><path d="M70.299 51.396H11.422V4.473A4.483 4.483 0 0 1 15.905 0h49.911A4.484 4.484 0 0 1 70.3 4.473v46.923h-.001z" fill="#fff"/><path d="M68.78 2.176H12.938v7.42h55.844v-7.42z" fill="#B69538"/><path d="M70.299 51.396H11.422V4.473A4.483 4.483 0 0 1 15.905 0h49.911A4.484 4.484 0 0 1 70.3 4.473v46.923h-.001zM14.215 48.61h53.29V4.473a1.69 1.69 0 0 0-1.69-1.686h-49.91a1.69 1.69 0 0 0-1.69 1.686V48.61z" fill="#4C4C4C"/><path d="M68.78 9.071H12.938v2.787h55.844V9.072zM40.862 8.09a2.046 2.046 0 0 0 2.049-2.044 2.046 2.046 0 0 0-2.049-2.044 2.046 2.046 0 0 0-2.048 2.044c0 1.129.917 2.044 2.048 2.044z" fill="#4C4C4C"/><path d="M71.508 58.502H10.213c-5.224 0-9.475-4.24-9.475-9.453V45.37a4.219 4.219 0 0 1 4.22-4.21H32.44l1.556 2.049h13.727l1.557-2.049h27.483a4.219 4.219 0 0 1 4.22 4.21v3.68c-.003 5.211-4.253 9.452-9.476 9.452z" fill="#fff"/><path d="M32.22 25.102H19.425v2.555h12.793v-2.555z" fill="#4C4C4C"/><path d="M23.21 20.428l-2.097 1.466 7.339 10.457 2.097-1.465-7.338-10.458z" fill="#4C4C4C"/><path d="M28.436 20.427l-7.338 10.456 2.097 1.465 7.339-10.456-2.098-1.465zm19.827 4.675H35.469v2.555h12.794v-2.555z" fill="#4C4C4C"/><path d="M39.254 20.426l-2.098 1.466 7.339 10.457 2.097-1.465-7.338-10.458z" fill="#4C4C4C"/><path d="M44.48 20.427l-7.34 10.456 2.098 1.465 7.339-10.456-2.098-1.465z" fill="#4C4C4C"/><path d="M71.507 55.831H10.21c-3.747 0-6.797-3.043-6.797-6.782v-3.68c0-.848.691-1.538 1.542-1.538H31.11l1.557 2.049h16.386l1.556-2.049h26.154c.85 0 1.542.69 1.542 1.539v3.679c-.001 3.74-3.05 6.782-6.797 6.782z" fill="#B69538"/><path d="M71.507 55.831H10.21c-3.747 0-6.797-3.043-6.797-6.782v-3.68c0-.848.691-1.538 1.542-1.538H31.11l1.557 2.049h16.386l1.556-2.049h26.154c.85 0 1.542.69 1.542 1.539v3.679c-.001 3.74-3.05 6.782-6.797 6.782zm-65.3-9.213v2.43a4.004 4.004 0 0 0 4.004 3.996h61.296a4.004 4.004 0 0 0 4.003-3.995v-2.43H51.996l-1.556 2.048H31.277l-1.556-2.049H6.207z" fill="#4C4C4C"/><path d="M78.855 75.43h-26.14v-9.777a39.42 39.42 0 0 1-6.801-7.57L38.22 46.9a6.411 6.411 0 0 1 .653-8.42l.027-.026a8.411 8.411 0 0 1 10.422-1.063V23.406c0-4.297 3.503-7.794 7.81-7.794 4.317 0 7.821 3.496 7.821 7.794v12.056l9.505 1.84c4.225.817 7.29 4.528 7.29 8.821v9.7c0 3.2-1.022 6.336-2.892 8.922V75.43h-.001z" fill="#fff"/><path d="M76.18 72.758H55.394v-8.352l-.392-.324a36.734 36.734 0 0 1-6.88-7.51L40.398 45.34a3.746 3.746 0 0 1 .355-4.955l.026-.027a5.725 5.725 0 0 1 7.55-.398L52 42.869V23.405c0-2.825 2.303-5.123 5.134-5.123 2.84 0 5.143 2.299 5.143 5.123v14.259l11.672 2.26a6.329 6.329 0 0 1 5.124 6.199v9.7a12.59 12.59 0 0 1-2.833 7.94l-.059.073v8.922h-.002z" fill="#fff"/><path d="M76.18 72.758H55.394v-8.352l-.392-.324a36.734 36.734 0 0 1-6.88-7.51L40.398 45.34a3.746 3.746 0 0 1 .355-4.955l.026-.027a5.725 5.725 0 0 1 7.55-.398L52 42.869V23.405c0-2.825 2.303-5.123 5.134-5.123 2.84 0 5.143 2.299 5.143 5.123v14.259l11.672 2.26a6.329 6.329 0 0 1 5.124 6.199v9.7a12.59 12.59 0 0 1-2.833 7.94l-.059.073v8.922h-.002zm-17.993-2.787h15.2v-7.127l.686-.84a9.79 9.79 0 0 0 2.205-6.181v-9.7a3.534 3.534 0 0 0-2.862-3.463l-13.932-2.698V23.405a2.34 2.34 0 0 0-2.34-2.336c-1.301 0-2.35 1.048-2.35 2.336V48.64l-8.204-6.498a2.923 2.923 0 0 0-3.854.203l-.027.027a.966.966 0 0 0-.083 1.288l.052.07 7.748 11.265a33.97 33.97 0 0 0 6.356 6.939l1.405 1.16v6.877z" fill="#4C4C4C"/><path d="M77.672 66.009H53.895v9.597h23.777V66.01z" fill="#B69538"/><path d="M79.071 77H52.5V64.615h26.571V77zm-23.778-2.787h20.985v-6.81H55.293v6.81z" fill="#4C4C4C"/></svg>