<svg width="61" height="58" fill="none" xmlns="http://www.w3.org/2000/svg"><rect width="60.796" height="57.398" rx="9" fill="#fff"/><path d="M58.17 13.626H2.64V3.02h55.53v10.605z" fill="#B69538"/><path d="M58.17 54.578H2.64V3.02h55.53v51.557zM5.117 52.102h50.577V5.497H5.117v46.605z" fill="#4C4C4C"/><path d="M56.932 12.388H3.88v2.476h53.053v-2.476zm-40.444-1.885a1.706 1.706 0 1 0-.784-3.32 1.706 1.706 0 0 0 .784 3.32zm-5.543.001a1.706 1.706 0 1 0-.784-3.32 1.706 1.706 0 0 0 .784 3.32zm11.09-.002a1.706 1.706 0 1 0-.785-3.32 1.706 1.706 0 0 0 .785 3.32zm26.437 35.39h-9.769v-2.475h7.293v-8.736h-7.293v-2.476h9.769v13.688zm-13.27-23.66h-2.475v22.422h2.476V22.231z" fill="#4C4C4C"/><path d="M38.705 19.41h-9.486v5.642h9.486V19.41z" fill="#B69538"/><path d="M39.842 26.188H28.086v-7.912h11.756v7.912zm-9.486-2.27h7.216v-3.372h-7.216v3.372z" fill="#4C4C4C"/><path d="M38.705 30.622h-9.486v5.642h9.486v-5.642z" fill="#B69538"/><path d="M39.842 37.398H28.086v-7.913h11.756v7.913zm-9.486-2.27h7.216v-3.373h-7.216v3.374z" fill="#4C4C4C"/><path d="M38.705 41.833h-9.486v5.642h9.486v-5.642z" fill="#B69538"/><path d="M39.842 48.61H28.086v-7.913h11.756v7.913zm-9.486-2.27h7.216v-3.373h-7.216v3.373zM18.992 28.975h-2.476v-7.98h12.706v2.475h-10.23v5.505z" fill="#4C4C4C"/><path d="M17.754 39.335L9.98 33.443l7.774-5.893 7.773 5.893-7.773 5.892z" fill="#B69538"/><path d="M17.754 39.335L9.98 33.443l7.774-5.893 7.773 5.893-7.773 5.892zm-4.016-5.892l4.016 3.044 4.016-3.044-4.016-3.045-4.016 3.045z" fill="#4C4C4C"/></svg>