<svg width="82" height="81" fill="none" xmlns="http://www.w3.org/2000/svg"><path d="M70.775 73.733H10.891V25.91a4.577 4.577 0 0 1 4.571-4.572h50.741a4.577 4.577 0 0 1 4.572 4.572v47.823z" fill="#fff"/><path d="M68.427 22.638H12.97v9.878h55.458v-9.878z" fill="#B69538"/><path d="M70.775 73.733H10.891V25.91a4.577 4.577 0 0 1 4.571-4.572h50.741a4.577 4.577 0 0 1 4.572 4.572v47.823zm-57.017-2.869h54.147V25.91c0-.94-.764-1.704-1.703-1.704h-50.74c-.94 0-1.704.764-1.704 1.704v44.954z" fill="#4C4C4C"/><path d="M69.217 30.58H12.445v2.868h56.772v-2.869z" fill="#4C4C4C"/><path d="M71.987 80.999H9.673C4.339 80.999 0 76.659 0 71.326v-3.75a4.337 4.337 0 0 1 4.331-4.33h27.961l1.582 2.086h13.913l1.582-2.087h27.96a4.337 4.337 0 0 1 4.332 4.332v3.748c0 5.334-4.34 9.674-9.674 9.674zm-31.154-44.3a17.75 17.75 0 0 1-12.635-5.233c-6.967-6.968-6.967-18.303 0-25.27a17.715 17.715 0 0 1 6.528-4.16L40.336 0v14.669h.993V0l5.61 2.037a17.717 17.717 0 0 1 6.528 4.159c6.967 6.967 6.967 18.303 0 25.27a17.75 17.75 0 0 1-12.634 5.233z" fill="#fff"/><path d="M71.984 78.25H9.67a6.931 6.931 0 0 1-6.924-6.923v-3.75c0-.872.71-1.582 1.583-1.582h26.595l1.58 2.087h16.647l1.581-2.087h26.595c.872 0 1.582.71 1.582 1.583v3.748a6.933 6.933 0 0 1-6.925 6.925zM41.076 63.725h-.492a6.877 6.877 0 0 1-6.87-6.868V29.967h14.231v26.887a6.877 6.877 0 0 1-6.869 6.87z" fill="#B69538"/><path d="M41.076 63.724h-.492a6.877 6.877 0 0 1-6.87-6.868V29.967h14.231v26.887a6.877 6.877 0 0 1-6.869 6.87zm-4.493-30.888v24.02c0 2.206 1.796 4 4 4h.493c2.207 0 4-1.795 4-4v-24.02h-8.493z" fill="#4C4C4C"/><path d="M40.831 57.424a2.28 2.28 0 1 0 0-4.56 2.28 2.28 0 0 0 0 4.56zm31.153 20.827H9.67a6.931 6.931 0 0 1-6.924-6.924v-3.75c0-.872.71-1.582 1.583-1.582h26.595l1.58 2.087h16.647l1.581-2.087h26.595c.872 0 1.582.71 1.582 1.583v3.748a6.933 6.933 0 0 1-6.925 6.925zm-66.37-9.386v2.462a4.06 4.06 0 0 0 4.056 4.055h62.314a4.06 4.06 0 0 0 4.056-4.055v-2.462H52.157l-1.582 2.087H31.08l-1.581-2.087H5.615z" fill="#4C4C4C"/><path d="M45.508 18.852H36.15V5.97a13.631 13.631 0 0 0-4.998 3.185c-5.343 5.344-5.343 14.01 0 19.353 5.344 5.344 14.01 5.344 19.353 0 5.344-5.344 5.344-14.01 0-19.353a13.625 13.625 0 0 0-4.997-3.185v12.883z" fill="#B69538"/><path d="M40.83 33.944a15.074 15.074 0 0 1-10.69-4.422 15.021 15.021 0 0 1-4.43-10.69c0-4.04 1.574-7.836 4.43-10.692a15.002 15.002 0 0 1 5.521-3.52l1.923-.698v13.495h6.49V3.922l1.924.698a14.987 14.987 0 0 1 5.521 3.52 15.021 15.021 0 0 1 4.429 10.691c0 4.039-1.573 7.835-4.429 10.691a15.064 15.064 0 0 1-10.688 4.422zM34.718 8.212a12.285 12.285 0 0 0-2.55 1.957c-4.776 4.776-4.776 12.549 0 17.325 4.777 4.776 12.55 4.776 17.325 0 4.776-4.776 4.776-12.549 0-17.325a12.17 12.17 0 0 0-2.55-1.957v12.075H34.717V8.212z" fill="#4C4C4C"/></svg>