<svg width="93" height="76" fill="none" xmlns="http://www.w3.org/2000/svg"><path d="M92.003 75.649H33.762V0h40.974l17.265 17.265v58.384h.002z" fill="#fff"/><path d="M90.211 19.804H72.195V1.788h3.578L90.21 16.227v3.577zM7.008 75.915a6.987 6.987 0 0 1-4.958-2.05 7.019 7.019 0 0 1 0-9.914l15.845-15.845 9.915 9.915-15.845 15.845a6.996 6.996 0 0 1-4.957 2.05z" fill="#B69538"/><path d="M92.003 75.649H33.762V0h40.974l17.265 17.265v58.384h.002zM37.34 72.07h51.087V18.748l-15.17-15.17H37.34V72.07z" fill="#4C4C4C"/><path d="M82.102 45.634h-6.204v3.577h6.204v-3.577zm-9.712.556h-7.484v3.578h7.484V46.19zM72.394 56H44.238v3.577h28.156V56zm9.703-31.098h-5.328v3.578h5.328V24.9zm.003 10.366H67.79v3.577H82.1v-3.577zM7.008 75.915a6.987 6.987 0 0 1-4.958-2.05 7.019 7.019 0 0 1 0-9.914l15.845-15.845 9.915 9.915-15.845 15.845a6.996 6.996 0 0 1-4.957 2.05zm10.887-22.75L4.58 66.48a3.436 3.436 0 0 0 0 4.855 3.437 3.437 0 0 0 4.854 0L22.75 58.02l-4.854-4.855z" fill="#4C4C4C"/><path d="M39.535 66.966c-.002 0 0 0 0 0-8.182 0-15.865-3.179-21.638-8.95-11.93-11.93-11.93-31.345 0-43.275 11.932-11.932 31.344-11.93 43.274 0s11.93 31.345 0 43.275c-5.77 5.773-13.456 8.95-21.636 8.95z" fill="#fff"/><path d="M39.533 52.855c-4.435 0-8.6-1.723-11.73-4.851-6.467-6.468-6.467-16.99 0-23.458 6.468-6.468 16.991-6.468 23.459 0 6.467 6.467 6.467 16.99 0 23.458a16.477 16.477 0 0 1-11.73 4.851z" fill="#B69538"/><path d="M39.534 63.538c-.002 0 0 0 0 0-7.267 0-14.089-2.821-19.213-7.945-10.595-10.595-10.595-27.833 0-38.426 10.595-10.595 27.832-10.595 38.427 0 10.595 10.594 10.595 27.832 0 38.427-5.126 5.123-11.95 7.944-19.214 7.944zm0-50.741c-6.043 0-12.084 2.3-16.684 6.9-9.2 9.199-9.2 24.167 0 33.366 4.45 4.45 10.374 6.898 16.684 6.898 6.31 0 12.234-2.45 16.683-6.898 9.2-9.2 9.2-24.167 0-33.367-4.6-4.6-10.642-6.9-16.683-6.9z" fill="#4C4C4C"/><path d="M39.536 55.328c-4.854 0-9.709-1.848-13.405-5.543-3.576-3.576-5.545-8.336-5.545-13.406 0-5.069 1.969-9.83 5.545-13.405 3.575-3.576 8.336-5.545 13.405-5.545 5.07 0 9.83 1.969 13.406 5.545 7.392 7.391 7.392 19.418 0 26.81a18.9 18.9 0 0 1-13.406 5.544zm0-34.322a15.275 15.275 0 0 0-10.876 4.497 15.273 15.273 0 0 0-4.497 10.876c0 4.114 1.597 7.976 4.497 10.877 5.997 5.996 15.755 5.996 21.751 0 5.997-5.997 5.997-15.755 0-21.752a15.273 15.273 0 0 0-10.875-4.498z" fill="#4C4C4C"/><path d="M34.049 30.893l-2.53-2.53a11.26 11.26 0 0 1 8.017-3.316c3.031 0 5.878 1.177 8.016 3.316l-2.53 2.53a7.709 7.709 0 0 0-5.486-2.269 7.705 7.705 0 0 0-5.487 2.269zm56.162-11.089H72.195V1.788h3.578v14.439H90.21v3.577z" fill="#4C4C4C"/></svg>