<svg width="75" height="79" fill="none" xmlns="http://www.w3.org/2000/svg"><path d="M12.264 77.321h50.645c2.618 0 5.049-.79 6.86-2.139 1.809-1.348 3.076-3.327 3.076-5.643V9.283c0-2.317-1.268-4.296-3.078-5.644-1.81-1.348-4.24-2.139-6.858-2.139H12.264c-2.618 0-5.048.791-6.858 2.14-1.81 1.347-3.078 3.326-3.078 5.643v60.256c0 2.316 1.268 4.295 3.078 5.643 1.81 1.348 4.24 2.14 6.858 2.14zM9.576 9.283c0-.277.148-.648.624-1.002.475-.354 1.2-.617 2.064-.617h50.645c.862 0 1.588.263 2.063.617.477.355.625.726.625 1.002v60.256c0 .276-.148.647-.624 1.001-.475.354-1.2.618-2.064.618H12.264c-.862 0-1.588-.264-2.064-.618-.476-.355-.624-.725-.624-1.001V9.283z" fill="#4C4C4C" stroke="#fff" stroke-width="3"/><path d="M62.909 75.821H12.264c-4.652 0-8.436-2.818-8.436-6.282V9.283C3.828 5.818 7.612 3 12.264 3h50.645c4.651 0 8.436 2.818 8.436 6.283v60.256c.001 3.464-3.783 6.282-8.436 6.282z" fill="#fff"/><path d="M68.448 62.318H6.718v10.61h61.73v-10.61z" fill="#B69538"/><path d="M62.909 75.821H12.264c-4.652 0-8.436-2.818-8.436-6.282V9.283C3.828 5.818 7.612 3 12.264 3h50.645c4.651 0 8.436 2.818 8.436 6.283v60.256c.001 3.464-3.783 6.282-8.436 6.282zM12.264 6.164c-2.31 0-4.188 1.398-4.188 3.119v60.256c0 1.72 1.88 3.119 4.188 3.119h50.645c2.31 0 4.188-1.399 4.188-3.12V9.284c0-1.72-1.88-3.12-4.188-3.12H12.264z" fill="#4C4C4C"/><path d="M69.42 60.871H5.762v2.894H69.42V60.87zm-25.569 5.787H31.313v3.376H43.85v-3.376zm-5.208-17.917L52.91 27.6v-.375H39.113V16h-.47L23 37.141v.375h15.202v11.225h.44z" fill="#4C4C4C"/></svg>