<svg width="101" height="73" fill="none" xmlns="http://www.w3.org/2000/svg"><path d="M87.145 64.094h-73.09V6.247c0-2.992 2.459-5.426 5.48-5.426h62.13c3.021 0 5.48 2.434 5.48 5.426v57.847z" fill="#fff"/><path d="M84.97 3.004H16.241v10.909H84.97V3.003z" fill="#B69538"/><path d="M38.059 44.458l-9.82-10.365 9.82-10.363 2.18 2.3-7.642 8.063 7.641 8.065-2.18 2.3zm24.201 0l-2.377-2.3 8.336-8.065-8.336-8.063 2.377-2.3 10.714 10.363L62.26 44.458z" fill="#4C4C4C"/><path d="M87.145 64.094h-73.09V6.247c0-2.992 2.459-5.426 5.48-5.426h62.13c3.021 0 5.48 2.434 5.48 5.426v57.847zm-69.813-3.246h66.533V6.247c0-1.202-.988-2.18-2.202-2.18H19.534c-1.214 0-2.202.978-2.202 2.18v54.601z" fill="#4C4C4C"/><path d="M84.97 11.73H16.241v3.272H84.97V11.73zM52.831 8.835a2.536 2.536 0 1 0-4.937-1.166 2.536 2.536 0 0 0 4.937 1.166z" fill="#4C4C4C"/><path d="M88.742 72.822H12.469c-6.34 0-11.5-5.08-11.5-11.325V56.98c0-2.694 2.224-4.884 4.961-4.884h34.055l1.935 2.514h17.37l1.934-2.514H95.28c2.736 0 4.962 2.19 4.962 4.884v4.519c0 6.245-5.158 11.324-11.5 11.324z" fill="#fff"/><path d="M53.955 22.944L43.723 44.888l2.955 1.378L56.91 24.322l-2.955-1.378z" fill="#4C4C4C"/><path d="M88.636 69.548H12.578c-4.596 0-8.336-3.602-8.336-8.028v-4.407c0-.964.815-1.747 1.816-1.747H38.46l1.93 2.453H60.82l1.93-2.453h32.403c1 0 1.815.785 1.815 1.747v4.407c.001 4.426-3.737 8.028-8.333 8.028z" fill="#B69538"/><path d="M88.636 69.548H12.578c-4.596 0-8.336-3.602-8.336-8.028v-4.407c0-.964.815-1.747 1.816-1.747H38.46l1.93 2.453H60.82l1.93-2.453h32.403c1 0 1.815.785 1.815 1.747v4.407c.001 4.426-3.737 8.028-8.333 8.028zM7.51 58.514v3.006c0 2.691 2.273 4.88 5.067 4.88h76.058c2.794 0 5.067-2.189 5.067-4.88v-3.006H64.38l-1.93 2.453h-23.68l-1.93-2.453H7.511z" fill="#4C4C4C"/></svg>