<svg width="84" height="59" fill="none" xmlns="http://www.w3.org/2000/svg"><path d="M63.541 59H0V0h63.541v59z" fill="#fff"/><path d="M61.747 2.385H1.836v9.383h59.91V2.385z" fill="#B69538"/><path d="M63.541 59H0V0h63.541v59zM2.887 56.113h57.767V2.887H2.887v53.226z" fill="#4C4C4C"/><path d="M62.1 10.708H1.444v2.887H62.1v-2.887zm-45.933-2.18a1.951 1.951 0 1 0-1.493-3.606 1.951 1.951 0 0 0 1.494 3.606zm-6.649.085a1.951 1.951 0 1 0-.896-3.798 1.951 1.951 0 0 0 .896 3.798zm14.045-1.142a1.951 1.951 0 1 0-3.605-1.494 1.951 1.951 0 0 0 3.605 1.494zm3.732 13.797H12.328v2.887h14.967v-2.887zm8.6 0h-4.72v2.887h4.72v-2.887zm-14.45 7.909H17.96v2.887h3.484v-2.887zm29.77 0H24.82v2.887h26.395v-2.887zm0 7.97H24.82v2.887h26.395v-2.887zm-16.891 7.968H19.8v2.887h14.523v-2.887z" fill="#4C4C4C"/><path d="M55.574 53.013a30.839 30.839 0 0 1-15.382-4.105 31.033 31.033 0 0 1-11.026-10.794l-1.318-2.18 1.318-2.18a31.035 31.035 0 0 1 11.026-10.795 30.843 30.843 0 0 1 15.382-4.104 30.84 30.84 0 0 1 15.382 4.104A31.035 31.035 0 0 1 81.98 33.754l1.319 2.18-1.319 2.18a31.034 31.034 0 0 1-11.025 10.794 30.842 30.842 0 0 1-15.382 4.105z" fill="#fff"/><path d="M55.574 50.186c-4.91 0-9.741-1.289-13.971-3.727a28.196 28.196 0 0 1-10.018-9.809l-.433-.715.433-.716a28.186 28.186 0 0 1 10.018-9.808 28.005 28.005 0 0 1 13.97-3.727c4.91 0 9.742 1.288 13.971 3.727a28.195 28.195 0 0 1 10.018 9.808l.433.716-.433.715a28.185 28.185 0 0 1-10.017 9.809 28.008 28.008 0 0 1-13.971 3.727z" fill="#B69538"/><path d="M55.57 49.027c-7.22 0-13.093-5.873-13.093-13.093 0-7.219 5.873-13.092 13.092-13.092 7.22 0 13.093 5.873 13.093 13.092 0 7.22-5.874 13.093-13.093 13.093z" fill="#fff"/><path d="M55.574 50.186c-4.91 0-9.741-1.289-13.971-3.727a28.196 28.196 0 0 1-10.018-9.809l-.433-.715.433-.716a28.186 28.186 0 0 1 10.018-9.808 28.005 28.005 0 0 1 13.97-3.727c4.91 0 9.742 1.288 13.971 3.727a28.195 28.195 0 0 1 10.018 9.808l.433.716-.433.715a28.185 28.185 0 0 1-10.017 9.809 28.008 28.008 0 0 1-13.971 3.727zM34.402 35.935c4.684 7.207 12.538 11.484 21.172 11.484s16.486-4.277 21.172-11.484C72.06 28.727 64.208 24.45 55.574 24.45s-16.488 4.276-21.172 11.484z" fill="#4C4C4C"/><path d="M55.57 49.027c-7.22 0-13.093-5.873-13.093-13.093 0-7.219 5.873-13.092 13.092-13.092 7.22 0 13.093 5.873 13.093 13.092 0 7.22-5.874 13.093-13.093 13.093zm0-23.42c-5.695 0-10.327 4.632-10.327 10.326 0 5.694 4.632 10.326 10.326 10.326 5.694 0 10.326-4.632 10.326-10.326 0-5.693-4.632-10.325-10.326-10.325z" fill="#4C4C4C"/><path d="M55.575 43.172c-3.992 0-7.24-3.247-7.24-7.24h2.768a4.477 4.477 0 0 0 4.472 4.473 4.476 4.476 0 0 0 4.471-4.472 4.476 4.476 0 0 0-4.471-4.472v-2.767c3.991 0 7.238 3.247 7.238 7.239-.001 3.992-3.248 7.239-7.238 7.239z" fill="#4C4C4C"/></svg>