<svg width="512" height="512" viewBox="0 0 512 512" fill="none" xmlns="http://www.w3.org/2000/svg">
<path d="M511.268 256C511.268 396.98 396.981 511.267 256.001 511.267C115.021 511.267 0.734375 396.98 0.734375 256C0.734375 115.02 115.021 0.733398 256.001 0.733398C396.981 0.733398 511.268 115.02 511.268 256Z" fill="#F1F1F1"/>
<path id="wheel-section-3" d="M280.244 253.084L437.964 344.119C440.778 345.746 443.915 346.738 447.153 347.026C450.391 347.314 453.653 346.89 456.71 345.784C459.767 344.678 462.546 342.918 464.851 340.625C467.156 338.332 468.932 335.564 470.054 332.512C479.215 307.464 483.891 280.998 483.867 254.327C483.867 141.982 402.206 48.3416 295.12 29.6236C291.921 29.0774 288.641 29.2369 285.51 30.091C282.379 30.9451 279.472 32.4732 276.993 34.5682C274.515 36.6632 272.524 39.2747 271.16 42.2197C269.796 45.1647 269.092 48.3722 269.098 51.6178V233.763C269.094 237.679 270.122 241.526 272.079 244.918C274.036 248.31 276.852 251.127 280.244 253.084Z" fill="#3D3D46"/>
<path id="wheel-section-1" d="M242.34 233.75V51.6054C242.343 48.3606 241.637 45.1544 240.271 42.2109C238.906 39.2674 236.914 36.6576 234.435 34.5641C231.956 32.4705 229.05 30.9437 225.919 30.0904C222.789 29.237 219.51 29.0777 216.311 29.6236C109.225 48.3417 27.5704 141.982 27.5704 254.327C27.5441 280.998 32.2179 307.464 41.3774 332.513C42.4996 335.564 44.2755 338.332 46.5805 340.625C48.8855 342.918 51.6639 344.678 54.7211 345.784C57.7783 346.89 61.0402 347.314 64.2784 347.026C67.5167 346.738 70.6528 345.746 73.4672 344.119L231.187 253.084C234.582 251.126 237.4 248.308 239.358 244.914C241.316 241.519 242.345 237.669 242.34 233.75Z" fill="#3D3D46"/>
<path id="wheel-section-2" d="M244.564 276.234L86.9435 367.238C84.1252 368.856 81.6953 371.072 79.8241 373.729C77.9529 376.386 76.6859 379.421 76.1119 382.62C75.5379 385.818 75.6708 389.104 76.5014 392.246C77.3319 395.388 78.84 398.31 80.9197 400.807C122.801 450.701 185.613 482.474 255.717 482.474C325.821 482.474 388.626 450.701 430.507 400.789C432.588 398.292 434.097 395.37 434.928 392.228C435.759 389.085 435.892 385.799 435.318 382.6C434.744 379.401 433.477 376.366 431.605 373.709C429.733 371.052 427.302 368.837 424.483 367.219L266.863 276.234C263.473 274.276 259.628 273.246 255.713 273.246C251.799 273.246 247.954 274.276 244.564 276.234Z" fill="#3D3D46"/>

<g>
  <circle cx="368.5" cy="181.5" r="54.5" fill="white" stroke="#353535" stroke-width="2"/>
  <rect x="335" y="157" width="67" height="46" fill="#B69538"/>
  <rect x="360" y="167" width="18" height="46" fill="#B69538"/>
  <path d="M398.914 156H337.905C336.301 156 335 157.301 335 158.905V201.03C335 202.635 336.301 203.935 337.905 203.935H398.914C400.518 203.935 401.819 202.635 401.819 201.03V158.905C401.819 157.301 400.518 156 398.914 156Z" stroke="#353535" stroke-width="2.90517" stroke-miterlimit="10"/>
  <path d="M359.695 203.935V205.388V212.651V214.103" stroke="#353535" stroke-width="2.90517" stroke-miterlimit="10"/>
  <path d="M377.125 203.935V205.388V212.651V214.103" stroke="#353535" stroke-width="2.90517" stroke-miterlimit="10"/>
  <path d="M355.336 214.104H381.482" stroke="#353535" stroke-width="2.90517" stroke-miterlimit="10"/>
  <path d="M396.007 199.578C396.81 199.578 397.46 198.927 397.46 198.125C397.46 197.323 396.81 196.672 396.007 196.672C395.205 196.672 394.555 197.323 394.555 198.125C394.555 198.927 395.205 199.578 396.007 199.578Z" fill="#353535"/>
  <path d="M368.526 196.004L382.794 174.863V174.488H368.996V163.263H368.526L352.883 184.404V184.779H368.085V196.004H368.526Z" fill="#353535"/>
</g>

<g>
  <circle cx="249.5" cy="381.5" r="54.5" fill="white" stroke="#353535" stroke-width="2"/>
  <rect x="239" y="372" width="42" height="42" fill="#B69538"/>
  <path d="M216 382.147V357.937C216 357.423 216.206 356.93 216.573 356.567C216.941 356.204 217.439 356 217.958 356H259.072C259.592 356 260.09 356.204 260.457 356.567C260.824 356.93 261.03 357.423 261.03 357.937V369.557" stroke="#353535" stroke-width="2.90517" stroke-miterlimit="10"/>
  <path d="M234.884 389.409H217.988C217.461 389.409 216.955 389.226 216.582 388.899C216.209 388.572 216 388.129 216 387.666V385.052V374.157" stroke="#353535" stroke-width="2.90517" stroke-miterlimit="10"/>
  <path d="M231.748 389.867L231.949 390.814L232.007 395.751L232.208 396.699" stroke="#353535" stroke-width="2.90517" stroke-miterlimit="10"/>
  <path d="M229.07 396.672H234.881" stroke="#353535" stroke-width="2.90517" stroke-miterlimit="10"/>
  <path d="M281.363 409.669L281.363 376.413C281.363 373.964 280.063 371.979 278.458 371.979L240.691 371.979C239.086 371.979 237.786 373.964 237.786 376.413L237.786 409.669C237.786 412.118 239.086 414.104 240.691 414.104L278.458 414.104C280.063 414.104 281.363 412.118 281.363 409.669Z" stroke="#353535" stroke-width="2.90517" stroke-miterlimit="10"/>
  <path d="M260.694 409.077L274.962 387.936V387.561H261.164V376.336H260.694L245.051 397.478V397.853H260.253V409.077H260.694Z" fill="#353535"/>
</g>
<g>
  <circle cx="143.5" cy="181.5" r="54.5" fill="white" stroke="#353535" stroke-width="2"/>
  <rect x="148" y="151.914" width="8" height="5" fill="#B69538"/>
  <rect x="154" y="153.914" width="6" height="16" fill="#B69538"/>
  <path d="M165 165.914L170 167.914L171 181.914L165 185.914V165.914Z" fill="#B69538"/>
  <rect x="156" y="160.157" width="6" height="16" transform="rotate(-45 156 160.157)" fill="#B69538"/>
  <path d="M164.998 171.468L170.794 169.915L173.994 185.915L165.002 185.914L164.998 171.468Z" fill="#B69538"/>
  <path d="M130.484 151.331L135.172 155.076L124.189 167.142L118.856 159.903L130.484 151.331Z" fill="#B69538"/>
  <path d="M118.89 160.672L124.612 162.477L118.282 179.055L110.761 174.028L118.89 160.672Z" fill="#B69538"/>
  <rect x="149" y="179.914" width="5" height="16" transform="rotate(-90 149 179.914)" fill="#B69538"/>
  <path d="M150.777 184.861L148.001 179.542L153.034 176.914L155 178.414L150.777 184.861Z" fill="#B69538"/>
  <rect x="146" y="160.914" width="8" height="8" fill="#B69538"/>
  <path d="M150.429 183.914L147.714 178.414V175.664H164V167.414L161.286 164.664H158.571V170.164H155.857L153.143 167.414H150.429V170.164H145V161.914H153.143V156.414H147.714V150.914L148 150.414L150.429 150.914" stroke="#353535" stroke-width="2.90517" stroke-miterlimit="10" stroke-linecap="round"/>
  <path d="M134.542 150.914V170.164L126.355 175.664V181.164H140V205.914H137.271L123.626 192.164V186.664H120.897L112 176.943" fill="#B69538"/>
  <path d="M134.542 150.914V170.164L126.355 175.664V181.164H140V205.914H137.271L123.626 192.164V186.664H120.897L112 176.943" stroke="#353535" stroke-width="2.90517" stroke-miterlimit="10"/>
  <path d="M173.849 184.496C173.945 183.482 174 182.455 174 181.414C174 175.184 172.153 169.094 168.691 163.914C165.23 158.734 160.31 154.696 154.555 152.312C148.799 149.928 142.465 149.304 136.355 150.52C130.244 151.735 124.632 154.735 120.226 159.14C115.821 163.546 112.821 169.159 111.605 175.269C110.39 181.379 111.014 187.713 113.398 193.469C115.782 199.225 119.819 204.144 125 207.606C130.18 211.067 136.27 212.914 142.5 212.914" stroke="#353535" stroke-width="2.90517" stroke-miterlimit="10" stroke-linecap="round"/>
  <path d="M158.737 214.759L172.179 194.842V194.489H159.18V183.914H158.737L144 203.831V204.184H158.321V214.759H158.737Z" fill="#353535"/>
</g>

</svg>
