<svg width="81" height="110" fill="none" xmlns="http://www.w3.org/2000/svg"><path d="M51.351 19.11v14.1H37.285V22.635l3.517-3.525H51.35z" fill="#B69538"/><path d="M51.351 19.11v14.1H37.285V22.635l3.517-3.525H51.35z" stroke="#010101" stroke-width="1.679" stroke-miterlimit="10" stroke-linecap="round" stroke-linejoin="round"/><path d="M58.629 53.022c1.94 0 3.516 1.58 3.516 3.525a3.523 3.523 0 0 1-3.517 3.525 3.523 3.523 0 0 1-3.516-3.525c-.121-1.945 1.455-3.525 3.517-3.525z" fill="#B69538"/><path d="M58.629 53.022c1.94 0 3.516 1.58 3.516 3.525a3.523 3.523 0 0 1-3.517 3.525 3.523 3.523 0 0 1-3.516-3.525c-.121-1.945 1.455-3.525 3.517-3.525z" stroke="#010101" stroke-width="1.679" stroke-miterlimit="10" stroke-linecap="round" stroke-linejoin="round"/><path d="M44.684 59.22c1.94 0 3.517 1.581 3.517 3.526a3.523 3.523 0 0 1-3.517 3.525 3.523 3.523 0 0 1-3.516-3.525 3.523 3.523 0 0 1 3.516-3.525z" fill="#B69538"/><path d="M44.684 59.22c1.94 0 3.517 1.581 3.517 3.526a3.523 3.523 0 0 1-3.517 3.525 3.523 3.523 0 0 1-3.516-3.525 3.523 3.523 0 0 1 3.516-3.525z" stroke="#010101" stroke-width="1.679" stroke-miterlimit="10" stroke-linecap="round" stroke-linejoin="round"/><path d="M30.253 53.022c1.94 0 3.517 1.58 3.517 3.525a3.523 3.523 0 0 1-3.517 3.525 3.523 3.523 0 0 1-3.516-3.525c-.121-1.945 1.455-3.525 3.517-3.525z" fill="#B69538"/><path d="M30.253 53.022c1.94 0 3.517 1.58 3.517 3.525a3.523 3.523 0 0 1-3.517 3.525 3.523 3.523 0 0 1-3.516-3.525c-.121-1.945 1.455-3.525 3.517-3.525zm-4.123-17.26h-6.79m43.168 0h6.79" stroke="#010101" stroke-width="1.679" stroke-miterlimit="10" stroke-linecap="round" stroke-linejoin="round"/><path d="M30.008 40.503V11.818h28.617v28.685" stroke="#010101" stroke-width="3.357" stroke-miterlimit="10" stroke-linecap="round" stroke-linejoin="round"/><path d="M37.285 33.21V22.635l3.517-3.525H51.35v14.1H37.285zM44.32 7.807V1m9.578 6.807V1M34.742 7.807V1M26.13 26.16h-6.79m6.79-9.602h-6.79m43.168 9.602h6.79m-6.79-9.602h6.79" stroke="#010101" stroke-width="1.679" stroke-miterlimit="10" stroke-linecap="round" stroke-linejoin="round"/><path d="M37.043 107.961c-5.335 0-8.245-13.005-8.245-13.005s-14.551.243-16.491-2.796c-1.455-2.188-1.334-3.646-.243-7.536 1.092-3.768-4.971-1.58-2.182-5.834 1.334-1.945-3.153-2.674-.728-6.685 1.334-2.188-6.911-2.796-7.154-5.591.97-4.133 7.275-9.116 7.518-16.652.121-2.796.364-5.47.727-7.9h68.147c.364 2.309.485 4.74.485 7.414C79 67.85 68.085 71.254 66.145 77.453c-1.819 5.834 1.334 7.779-.121 10.94" stroke="#010101" stroke-width="3.357" stroke-miterlimit="10" stroke-linecap="round" stroke-linejoin="round"/><path d="M58.629 45.243v7.779m3.513 3.525a3.523 3.523 0 0 1-3.516 3.525 3.523 3.523 0 0 1-3.517-3.525 3.523 3.523 0 0 1 3.517-3.525c1.94 0 3.516 1.58 3.516 3.525zM30.254 45.243v7.779m3.517 3.525a3.523 3.523 0 0 1-3.516 3.525 3.523 3.523 0 0 1-3.517-3.525 3.523 3.523 0 0 1 3.517-3.525c1.94 0 3.516 1.58 3.516 3.525zm10.913-11.304v14.1m3.634 3.524a3.523 3.523 0 0 1-3.516 3.525 3.523 3.523 0 0 1-3.517-3.525 3.523 3.523 0 0 1 3.517-3.524c1.94 0 3.516 1.458 3.516 3.524z" stroke="#010101" stroke-width="1.679" stroke-miterlimit="10" stroke-linecap="round" stroke-linejoin="round"/></svg>