<svg width="103" height="70" fill="none" xmlns="http://www.w3.org/2000/svg"><path d="M66 12H22v32h44V12z" fill="#fff"/><path fill-rule="evenodd" clip-rule="evenodd" d="M21.285 12c0-.394.32-.714.715-.714h44c.394 0 .714.32.714.714v32c0 .395-.32.715-.714.715H22a.714.714 0 0 1-.715-.715V12zm1.429.714v30.572h42.571V12.714H22.714z" fill="#010101"/><path fill-rule="evenodd" clip-rule="evenodd" d="M.57 2C.57 1.211 1.21.571 2 .571h84c.788 0 1.428.64 1.428 1.43v52.488c0 .79-.64 1.429-1.429 1.429H2c-.789 0-1.429-.64-1.429-1.429V2zM3.428 3.43V53.06H84.57V3.43H3.428zM1.285 59.346c0-.394.32-.714.715-.714h84a.714.714 0 1 1 0 1.428H2a.714.714 0 0 1-.715-.714z" fill="#010101"/><path fill-rule="evenodd" clip-rule="evenodd" d="M37.33 20a1 1 0 0 1 .884.585l6.392 14a1 1 0 1 1-1.82.83l-2.263-4.957h-7.025l-2.611 5.005a1 1 0 1 1-1.773-.925l7.304-14a1 1 0 0 1 .913-.538zm-2.789 8.458h5.07l-2.366-5.181-2.704 5.181zM47.565 21a1 1 0 0 1 1-1c1.233 0 3.776.067 6.036 1.07 1.146.509 2.258 1.273 3.08 2.424.83 1.16 1.32 2.645 1.32 4.506 0 1.86-.49 3.346-1.32 4.506-.822 1.15-1.934 1.916-3.08 2.424-2.26 1.003-4.803 1.07-6.036 1.07a1 1 0 0 1-1-1V21zm2 1.022v11.956c1.214-.057 2.815-.25 4.225-.876.909-.403 1.7-.97 2.265-1.76.56-.782.945-1.849.945-3.342s-.386-2.56-.945-3.342c-.565-.79-1.356-1.356-2.265-1.76-1.41-.625-3.011-.82-4.225-.876z" fill="#010101"/><path d="M59.538 46.071c0 2.207-2.094 4.828-1.396 6.76.698 2.206 3.91 3.034 5.166 4.69 1.256 1.793 1.116 5.103 2.931 6.345 1.815 1.241 4.886.138 6.98.827 2.094.69 3.91 3.449 6.143 3.449 2.233 0 4.048-2.759 6.142-3.449 2.094-.69 5.305.552 6.98-.827 1.815-1.242 1.536-4.552 2.932-6.346 1.256-1.793 4.467-2.62 5.165-4.69.698-2.069-1.396-4.552-1.396-6.759 0-2.207 2.094-4.828 1.396-6.76-.698-2.068-3.909-2.896-5.165-4.69-1.257-1.793-1.117-5.103-2.932-6.345-1.815-1.241-4.886-.138-6.98-.827C83.41 26.759 81.595 24 79.362 24c-2.234 0-4.049 2.759-6.143 3.449-2.094.69-5.304-.552-6.98.827-1.815 1.242-1.535 4.552-2.931 6.346-1.257 1.793-4.468 2.62-5.166 4.69-.698 1.931 1.396 4.552 1.396 6.759z" fill="#B69538"/><path fill-rule="evenodd" clip-rule="evenodd" d="M75.383 24.369c.96-.748 2.324-1.76 3.98-1.76 1.654 0 3.02 1.011 3.978 1.76.172.134.333.261.486.384.334.265.636.505.955.733.454.322.828.533 1.158.641.334.11.76.165 1.313.177.406.008.81-.006 1.258-.021.176-.006.358-.013.55-.018 1.205-.033 2.88-.047 4.21.863 1.37.937 1.889 2.564 2.225 3.728.067.232.127.448.184.654.108.388.205.742.324 1.103.176.531.352.926.552 1.21.19.272.49.555.928.88.328.243.673.467 1.057.717.139.09.283.183.433.282.99.653 2.394 1.608 2.921 3.151.281.788.255 1.576.132 2.263-.121.684-.357 1.362-.578 1.957-.066.179-.131.349-.193.513-.16.419-.305.8-.428 1.189-.168.53-.251.951-.251 1.296 0 .343.083.754.249 1.27.12.374.26.735.416 1.137.065.169.134.345.205.533.418 1.106.981 2.698.453 4.264-.524 1.552-1.932 2.51-2.926 3.166l-.433.282c-.384.25-.729.473-1.057.717-.438.324-.738.607-.928.879l-.042.056c-.213.274-.397.653-.573 1.168-.134.394-.242.797-.363 1.247-.04.153-.083.312-.129.479-.31 1.128-.78 2.756-2.128 3.71-1.299 1.033-3.036.998-4.226.95l-.638-.03a22.13 22.13 0 0 0-1.21-.04c-.564.001-.988.05-1.307.156-.33.109-.704.319-1.158.641-.32.228-.621.468-.955.733-.153.123-.314.25-.486.384-.959.749-2.324 1.76-3.979 1.76-1.655 0-3.02-1.011-3.979-1.76a65.648 65.648 0 0 1-.486-.383c-.333-.266-.635-.506-.955-.734-.453-.322-.827-.532-1.157-.641-.334-.11-.761-.165-1.313-.176-.407-.009-.811.005-1.258.02-.176.007-.359.013-.55.018-1.206.033-2.88.047-4.21-.863-1.37-.937-1.89-2.564-2.226-3.728a57.053 57.053 0 0 1-.184-.654 23.3 23.3 0 0 0-.324-1.102c-.171-.519-.343-.906-.536-1.19-.186-.238-.481-.496-.917-.804-.291-.206-.577-.388-.892-.589a50.68 50.68 0 0 1-.624-.403c-1.024-.675-2.406-1.66-2.926-3.268-.276-.783-.25-1.567-.128-2.25.122-.684.357-1.362.578-1.957l.194-.512c.16-.42.304-.8.427-1.19.168-.53.252-.951.252-1.296 0-.345-.084-.766-.252-1.296-.123-.39-.268-.77-.427-1.19-.063-.163-.127-.333-.194-.512-.22-.595-.456-1.273-.578-1.957-.122-.687-.148-1.475.133-2.263.527-1.543 1.93-2.498 2.92-3.151.15-.1.294-.192.433-.282.385-.25.729-.474 1.058-.718.437-.324.738-.607.928-.878.013-.02.027-.038.041-.057.214-.274.398-.653.573-1.168.135-.394.243-.796.363-1.247l.13-.478c.31-1.128.78-2.757 2.128-3.71 1.298-1.034 3.035-.998 4.225-.95.225.009.436.02.638.03.427.022.814.041 1.21.04.565-.002.988-.051 1.308-.157.33-.108.704-.319 1.157-.641.32-.228.622-.468.955-.733.154-.123.314-.25.486-.384zm.173 3.383c-.546.389-1.184.782-1.901 1.018-.728.24-1.49.294-2.169.296-.473.002-.984-.024-1.446-.047-.184-.01-.36-.018-.524-.025-1.343-.055-2.02.05-2.392.356a1.349 1.349 0 0 1-.099.074c-.428.294-.717.915-1.067 2.187l-.106.395c-.126.47-.268 1-.435 1.491-.218.64-.517 1.336-.99 1.952-.435.611-.998 1.095-1.53 1.489-.404.3-.853.591-1.257.853l-.358.234c-1.1.725-1.646 1.214-1.82 1.732l-.01.028c-.063.173-.09.431-.016.844.075.419.232.896.447 1.474l.161.426c.169.443.356.935.505 1.407.203.642.381 1.377.381 2.135 0 .759-.178 1.493-.38 2.135-.15.472-.337.964-.506 1.407l-.161.426c-.215.578-.372 1.055-.447 1.474-.073.413-.047.671.015.844l.018.054c.185.584.748 1.108 1.813 1.81.153.1.326.211.507.327.357.229.746.478 1.082.715.53.373 1.102.833 1.545 1.416l.032.043c.428.612.706 1.304.914 1.936.14.423.27.891.388 1.318.053.19.103.372.151.538.362 1.25.68 1.9 1.124 2.204.485.331 1.254.414 2.562.378l.46-.015c.472-.016.993-.035 1.483-.024.67.014 1.412.08 2.125.315.717.236 1.355.63 1.9 1.018.383.272.78.587 1.139.873.14.111.274.218.4.316 1.03.804 1.69 1.172 2.268 1.172.579 0 1.238-.368 2.268-1.172.126-.098.26-.205.4-.316.36-.286.756-.6 1.139-.873.546-.389 1.184-.782 1.9-1.018.728-.24 1.491-.294 2.17-.296.472-.002.983.024 1.446.047.184.01.36.019.523.025 1.343.055 2.02-.05 2.392-.356.032-.026.065-.051.1-.074.428-.294.717-.915 1.066-2.187l.107-.395c.126-.47.267-1 .435-1.491.218-.64.517-1.336.99-1.952.435-.611.997-1.095 1.529-1.489.404-.3.853-.59 1.257-.853.125-.08.245-.16.359-.234 1.1-.724 1.646-1.214 1.82-1.731.17-.504.035-1.188-.42-2.392-.051-.137-.108-.284-.167-.437-.166-.429-.351-.907-.498-1.363-.205-.635-.384-1.362-.384-2.123 0-.758.178-1.493.381-2.135.15-.472.337-.964.505-1.407l.161-.426c.215-.578.373-1.055.447-1.474.074-.413.048-.67-.015-.844l-.002-.005-.008-.023c-.174-.518-.72-1.007-1.82-1.732a62.518 62.518 0 0 0-.359-.234c-.404-.262-.853-.553-1.257-.853-.54-.4-1.112-.893-1.55-1.518-.429-.612-.706-1.304-.915-1.936-.14-.423-.27-.891-.387-1.318-.053-.19-.104-.372-.152-.537-.361-1.251-.68-1.9-1.124-2.205-.485-.331-1.254-.414-2.561-.378l-.46.015c-.473.017-.994.035-1.484.024-.67-.014-1.412-.08-2.125-.315-.716-.236-1.354-.63-1.9-1.018a27.794 27.794 0 0 1-1.138-.873 57.81 57.81 0 0 0-.4-.316c-1.03-.804-1.69-1.172-2.269-1.172-.578 0-1.238.368-2.268 1.172-.126.098-.26.205-.4.316-.36.286-.756.6-1.138.873z" fill="#010101"/><path d="M78.31 52.462h2.901c.77 0 1.508-.304 2.052-.845a2.872 2.872 0 0 0 0-4.075 2.911 2.911 0 0 0-2.052-.844h-2.9a5.822 5.822 0 0 1-4.104-1.688 5.744 5.744 0 0 1-1.7-4.075c0-1.53.612-2.995 1.7-4.076a5.822 5.822 0 0 1 4.103-1.688V33.73c0-.382.153-.749.425-1.019a1.455 1.455 0 0 1 2.052 0c.272.27.424.637.424 1.019v1.44c1.54 0 3.015.608 4.103 1.689a5.744 5.744 0 0 1 1.7 4.075c0 .383-.153.75-.425 1.02a1.456 1.456 0 0 1-2.052 0 1.436 1.436 0 0 1-.424-1.02c0-.764-.306-1.497-.85-2.037a2.911 2.911 0 0 0-2.052-.844h-2.9c-.77 0-1.508.303-2.052.844a2.872 2.872 0 0 0 0 4.075c.544.54 1.282.844 2.051.844h2.901c1.54 0 3.015.607 4.103 1.688a5.744 5.744 0 0 1 1.7 4.076 5.744 5.744 0 0 1-1.7 4.075 5.822 5.822 0 0 1-4.103 1.688v1.441c0 .382-.152.749-.424 1.02a1.456 1.456 0 0 1-2.052 0 1.436 1.436 0 0 1-.425-1.02v-1.44a5.822 5.822 0 0 1-4.103-1.689 5.744 5.744 0 0 1-1.7-4.075c0-.382.154-.749.426-1.02a1.456 1.456 0 0 1 2.051 0c.272.271.425.638.425 1.02 0 .764.306 1.497.85 2.038.544.54 1.282.844 2.051.844z" fill="#010101"/></svg>