<svg width="88" height="69" viewBox="0 0 88 69" fill="none" xmlns="http://www.w3.org/2000/svg">
<path d="M28.4736 12.7196H24.9062V44.6617H28.4736V12.7196Z" fill="#B69538"/>
<path d="M28.4736 12.7196H24.9062V44.6617H28.4736V12.7196Z" stroke="#010101" stroke-width="1.42879" stroke-linecap="round" stroke-linejoin="round"/>
<path d="M64.876 12.7196H61.3086V44.6617H64.876V12.7196Z" fill="#B69538"/>
<path d="M64.876 12.7196H61.3086V44.6617H64.876V12.7196Z" stroke="#010101" stroke-width="1.42879" stroke-linecap="round" stroke-linejoin="round"/>
<path d="M86 2H2V54.4891H86V2Z" stroke="#010101" stroke-width="2.85758" stroke-linecap="round" stroke-linejoin="round"/>
<path d="M60.9273 36.2489H28.4766V59.9187H60.9273V36.2489Z" fill="white"/>
<path d="M57.2325 8.23303H32.5536C30.3019 8.23303 28.4766 10.0592 28.4766 12.3118V62.7743C28.4766 65.027 30.3019 66.8531 32.5536 66.8531H57.2325C59.4842 66.8531 61.3096 65.027 61.3096 62.7743V12.3118C61.3096 10.0592 59.4842 8.23303 57.2325 8.23303Z" stroke="#010101" stroke-width="2.85758" stroke-linecap="round" stroke-linejoin="round"/>
<path d="M28.8047 14.8489H60.9369" stroke="#010101" stroke-width="2.85758" stroke-linecap="round" stroke-linejoin="round"/>
<path d="M60.9752 60.4293H28.8047" stroke="#010101" stroke-width="2.85758" stroke-linecap="round" stroke-linejoin="round"/>
<path d="M48.7352 11.4832H41.0781" stroke="#010101" stroke-width="2.85758" stroke-linecap="round" stroke-linejoin="round"/>
<path d="M52.7852 49.7347H55.6136V47.1982" stroke="#010101" stroke-width="1.42879" stroke-linecap="round" stroke-linejoin="round"/>
<path d="M34.0938 47.1982V49.7347H36.9222" stroke="#010101" stroke-width="1.42879" stroke-linecap="round" stroke-linejoin="round"/>
<path d="M37.1516 27.3401H34.0938V30.0805" stroke="#010101" stroke-width="1.42879" stroke-linecap="round" stroke-linejoin="round"/>
<path d="M55.844 30.0038V27.4673H53.0156" stroke="#010101" stroke-width="1.42879" stroke-linecap="round" stroke-linejoin="round"/>
<path d="M53.4086 29.8124H36.3359V46.8924H53.4086V29.8124Z" fill="#B69538"/>
<path d="M53.4086 29.8124H36.3359V46.8924H53.4086V29.8124Z" stroke="#010101" stroke-width="1.42879" stroke-linecap="round" stroke-linejoin="round"/>
<path d="M47.394 33.1013H43.9922" stroke="#010101" stroke-width="1.42879" stroke-miterlimit="10"/>
<path d="M47.9453 37.3712V35.8672" stroke="#010101" stroke-width="1.42879" stroke-miterlimit="10"/>
<path d="M50.6836 34.4644V36.7842" stroke="#010101" stroke-width="1.42879" stroke-miterlimit="10"/>
<path d="M46.2251 42.8389H44.9766" stroke="#010101" stroke-width="1.42879" stroke-miterlimit="10"/>
<path d="M42.4766 38.5692V40.9018" stroke="#010101" stroke-width="1.42879" stroke-miterlimit="10"/>
<path d="M45.5977 38.7727V41.1053" stroke="#010101" stroke-width="1.42879" stroke-miterlimit="10"/>
<path d="M41.1536 44.2406H38.8984" stroke="#010101" stroke-width="1.42879" stroke-miterlimit="10"/>
<path d="M44.5391 35.6884V36.7973" stroke="#010101" stroke-width="1.42879" stroke-miterlimit="10"/>
<path d="M39.0469 39.7423V41.3738" stroke="#010101" stroke-width="1.42879" stroke-miterlimit="10"/>
<path d="M44.2604 44.6621H42.7188" stroke="#010101" stroke-width="1.42879" stroke-miterlimit="10"/>
<path d="M50.1602 32.0431V32.7951" stroke="#010101" stroke-width="1.42879" stroke-miterlimit="10"/>
<path d="M41.9416 32.6545H38.6289V36.2617H41.9416V32.6545Z" stroke="#010101" stroke-width="1.42879" stroke-miterlimit="10"/>
<path d="M51.2188 40.2266H47.9062V43.8338H51.2188V40.2266Z" stroke="#010101" stroke-width="1.42879" stroke-miterlimit="10"/>
<path d="M2 59.3459H86" stroke="#010101" stroke-width="1.42879" stroke-linecap="round" stroke-linejoin="round"/>
</svg>
