<svg width="88" height="69" fill="none" xmlns="http://www.w3.org/2000/svg"><path d="M28.474 12.72h-3.568v31.942h3.568V12.72z" fill="#B69538"/><path d="M28.474 12.72h-3.568v31.942h3.568V12.72z" stroke="#010101" stroke-width="1.429" stroke-linecap="round" stroke-linejoin="round"/><path d="M64.876 12.72h-3.567v31.942h3.567V12.72z" fill="#B69538"/><path d="M64.876 12.72h-3.567v31.942h3.567V12.72z" stroke="#010101" stroke-width="1.429" stroke-linecap="round" stroke-linejoin="round"/><path d="M86 2H2v52.49h84V2z" stroke="#010101" stroke-width="2.858" stroke-linecap="round" stroke-linejoin="round"/><path d="M60.927 36.249h-32.45v23.67h32.45v-23.67z" fill="#fff"/><path d="M57.233 8.233h-24.68a4.078 4.078 0 0 0-4.076 4.079v50.462a4.078 4.078 0 0 0 4.077 4.08h24.678a4.078 4.078 0 0 0 4.078-4.08V12.312a4.078 4.078 0 0 0-4.078-4.079zm-28.428 6.616h32.132m.038 45.58h-32.17m19.93-48.946h-7.657" stroke="#010101" stroke-width="2.858" stroke-linecap="round" stroke-linejoin="round"/><path d="M52.785 49.735h2.829v-2.537m-21.52 0v2.537h2.828m.23-22.395h-3.058v2.74m21.75-.076v-2.537h-2.828" stroke="#010101" stroke-width="1.429" stroke-linecap="round" stroke-linejoin="round"/><path d="M53.409 29.812H36.336v17.08h17.073v-17.08z" fill="#B69538"/><path d="M53.409 29.812H36.336v17.08h17.073v-17.08z" stroke="#010101" stroke-width="1.429" stroke-linecap="round" stroke-linejoin="round"/><path d="M47.394 33.101h-3.402m3.953 4.27v-1.504m2.739-1.403v2.32m-4.459 6.055h-1.248m-2.5-4.27v2.333m3.12-2.13v2.333m-4.443 3.136h-2.256m5.641-8.553v1.11m-5.492 2.944v1.632m5.213 3.288H42.72m7.441-12.619v.752m-8.218-.14h-3.313v3.607h3.313v-3.608zm9.277 7.572h-3.313v3.607h3.313v-3.607z" stroke="#010101" stroke-width="1.429" stroke-miterlimit="10"/><path d="M2 59.346h84" stroke="#010101" stroke-width="1.429" stroke-linecap="round" stroke-linejoin="round"/></svg>