<svg width="70" height="58" fill="none" xmlns="http://www.w3.org/2000/svg"><path d="M70 57.559H25.688V0h31.177L70 13.136v44.422z" fill="#fff"/><path d="M68.637 15.069H54.93V1.36h2.721l10.986 10.986v2.722zM5.332 57.76A5.316 5.316 0 0 1 1.56 56.2a5.34 5.34 0 0 1 0-7.543l12.055-12.055 7.544 7.544L9.104 56.2a5.323 5.323 0 0 1-3.772 1.56z" fill="#B69538"/><path d="M70 57.559H25.688V0h31.177L70 13.136v44.422zm-41.59-2.722h38.87V14.265L55.737 2.722H28.41v52.115z" fill="#010101"/><path d="M62.466 34.72h-4.72v2.722h4.72V34.72zm-7.389.424h-5.694v2.722h5.694v-2.722zm.002 7.464H33.656v2.722H55.08v-2.722zm7.388-23.662h-4.053v2.722h4.053v-2.722zm0 7.888H51.578v2.721h10.889v-2.721zM5.332 57.76A5.316 5.316 0 0 1 1.56 56.2a5.34 5.34 0 0 1 0-7.543l12.055-12.055 7.544 7.544L9.104 56.2a5.323 5.323 0 0 1-3.772 1.56zm8.283-17.31L3.485 50.582a2.615 2.615 0 0 0 0 3.694 2.615 2.615 0 0 0 3.693 0l10.131-10.13-3.694-3.694z" fill="#010101"/><path d="M30.08 50.953c-.001 0 0 0 0 0-6.225 0-12.071-2.42-16.463-6.81-9.078-9.078-9.078-23.85 0-32.927 9.078-9.078 23.848-9.077 32.926 0 9.077 9.078 9.077 23.849 0 32.926-4.392 4.393-10.239 6.81-16.463 6.81z" fill="#fff"/><path d="M30.084 40.216a12.536 12.536 0 0 1-8.925-3.691c-4.92-4.921-4.92-12.928 0-17.849 4.921-4.92 12.928-4.92 17.849 0 4.92 4.921 4.92 12.928 0 17.849a12.536 12.536 0 0 1-8.924 3.691z" fill="#B69538"/><path d="M30.078 48.344c-5.528 0-10.72-2.147-14.618-6.046-8.061-8.061-8.061-21.177 0-29.237 8.061-8.06 21.177-8.06 29.238 0 8.06 8.061 8.06 21.177 0 29.238-3.9 3.898-9.092 6.045-14.62 6.045zm0-38.608c-4.597 0-9.194 1.75-12.694 5.25-7 7-7 18.388 0 25.388 3.386 3.385 7.894 5.248 12.694 5.248 4.8 0 9.309-1.864 12.694-5.248 7-7 7-18.389 0-25.388-3.5-3.5-8.097-5.25-12.694-5.25z" fill="#010101"/><path d="M30.083 42.097a14.384 14.384 0 0 1-10.2-4.217 14.327 14.327 0 0 1-4.219-10.2c0-3.857 1.498-7.48 4.219-10.2a14.327 14.327 0 0 1 10.2-4.22c3.857 0 7.48 1.499 10.2 4.22 5.624 5.624 5.624 14.775 0 20.399a14.38 14.38 0 0 1-10.2 4.218zm0-26.114c-3.13 0-6.069 1.214-8.276 3.421a11.62 11.62 0 0 0-3.421 8.276c0 3.13 1.215 6.068 3.421 8.275 4.563 4.563 11.988 4.563 16.55 0 4.563-4.562 4.563-11.987 0-16.55a11.62 11.62 0 0 0-8.274-3.422z" fill="#010101"/><path d="M25.905 23.505l-1.925-1.924a8.567 8.567 0 0 1 6.1-2.524c2.306 0 4.473.896 6.099 2.524l-1.925 1.924a5.865 5.865 0 0 0-4.174-1.726c-1.579 0-3.061.613-4.175 1.726zm42.732-8.436H54.93V1.36h2.721v10.986h10.986v2.722z" fill="#010101"/></svg>