<svg width="324" height="237" fill="none" xmlns="http://www.w3.org/2000/svg"><path d="M162.023 31.242a33.576 33.576 0 0 0-4.101 66.9v-8.878a5.418 5.418 0 0 1 5.408-5.147 5.415 5.415 0 0 1 5.408 5.147v8.44a33.575 33.575 0 0 0-6.715-66.475v.013zm6.901 9.024a31.252 31.252 0 0 0-29.671 21.515 31.276 31.276 0 0 0-1.397 12.884 25.691 25.691 0 0 1 5.068-29.607 25.693 25.693 0 0 1 29.69-4.566 30.786 30.786 0 0 0-3.69-.226zm2.884 114.398l14.692 6.769 3.118-6.769-18.075-8.334.265 8.334zm-.882-27.392l11.147 5.123.983.451 3.118-6.755-15.514-7.153.266 8.334zm1.798 55.474l19.031 8.772 3.119-6.768-22.429-10.325.279 8.321z" fill="#414042" stroke="#fff" stroke-width="4.44"/><path d="M163.279 208.413l-3.517-6.57.491-.265 31.307-16.735 3.517 6.569-31.798 17.001zm-.315-32.713h-.929v-3.743l-1.765-3.278 26.038-13.921 3.517 6.569-26.861 14.373zm-.178-30.339l-3.516-6.569 23.596-12.621 3.49 6.596-.809.424-22.761 12.17z" fill="#414042" stroke="#fff" stroke-width="4.44"/><path d="M132.295 191.518l-3.119-6.768 31.293-14.413 1.553 3.384 2.707 2.575-.491.517-.663.292-31.28 14.413zm29.172-49.326l-27.037 12.453 3.12 6.774 27.037-12.453-3.12-6.774zm-20.472-9.346l-3.132-6.755.982-.464 21.619-9.94 3.119 6.768-22.588 10.391z" fill="#414042" stroke="#fff" stroke-width="4.44"/><path d="M160.761 208.413l-.491-.266-31.293-16.735 3.516-6.569 31.798 17-3.53 6.57zm1.274-32.713h-.942l-.823-.451-26.051-13.922 3.517-6.569 26.038 13.921-1.752 3.278.013 3.743zm-.77-30.339l-23.57-12.594 3.491-6.596.809.438 22.774 12.183-3.504 6.569z" fill="#414042" stroke="#fff" stroke-width="4.44"/><path d="M162.02 233.902a5.71 5.71 0 0 1-1.505-.198 4.416 4.416 0 0 1-1.274-.563 2.826 2.826 0 0 1-.85-.844 1.85 1.85 0 0 1-.295-.993V87.957c-.03-.353.05-.706.234-1.038.184-.331.469-.635.837-.892a4.37 4.37 0 0 1 1.302-.6 5.733 5.733 0 0 1 1.557-.212c.535 0 1.064.072 1.556.212.491.14.935.344 1.303.6.367.257.652.56.836.892.184.332.264.685.235 1.038v143.347c0 .689-.415 1.35-1.153 1.837-.738.487-1.739.761-2.783.761zm41.879-15.126L177.396 85.374c-2.31.9-4.803 1.573-7.41 2l26.202 131.902c.126.625.564 1.21 1.237 1.653.673.444 1.539.718 2.448.775.235.017.47.018.702.003a5.05 5.05 0 0 0 1.441-.298c.443-.165.83-.39 1.138-.662.309-.272.534-.586.662-.925.128-.338.156-.693.083-1.046zm-61.64-127.24l-19.764 119.099c-.104.633.25 1.208.986 1.6.736.392 1.793.568 2.939.49.261-.017.523-.048.784-.094 1.011-.168 1.958-.52 2.677-.992.719-.473 1.164-1.037 1.258-1.595l19.538-117.766c-2.937-.024-5.769-.273-8.418-.741zM54.974 66.464l-6.078 10.153 63.954-8.44-50.178-.664 6.436-10.737L1 65.76l53.974.703zm7.537 38.553l-1.99 11.653 56.535-31.068-46.993 17.597 2.096-12.342-60.198 33.099 50.55-18.939zm.628-80.278l-9.555 6.954 62.176 17.213-45.932-20.199 10.113-7.365L13.73 3l49.408 21.738zm204.757 41.725l6.078 10.153-63.954-8.44 50.178-.664-6.436-10.737 68.108 8.985-53.974.703zm-7.537 38.553l1.991 11.653-56.549-31.068 47.007 17.597-2.111-12.342 60.212 33.099-50.55-18.939zm-.635-80.278l9.556 6.954-62.163 17.213 45.932-20.199-10.126-7.365L309.133 3l-49.409 21.738z" fill="#414042" stroke="#fff" stroke-width="4.44"/><path d="M163.773 32.99a33.576 33.576 0 0 0-4.101 66.901v-8.878a5.418 5.418 0 0 1 5.408-5.147 5.415 5.415 0 0 1 5.408 5.147v8.44a33.575 33.575 0 0 0 15.807-57.808 33.577 33.577 0 0 0-22.522-8.668v.014zm6.901 9.025a31.252 31.252 0 0 0-31.068 34.4 25.691 25.691 0 0 1 5.068-29.608 25.694 25.694 0 0 1 29.69-4.566 30.786 30.786 0 0 0-3.69-.226zm2.888 114.397l14.692 6.769 3.118-6.769-18.075-8.334.265 8.334zm-.882-27.391l11.147 5.123.982.451 3.119-6.755-15.514-7.153.266 8.334zm1.798 55.475l19.031 8.772 3.119-6.768-22.429-10.325.279 8.321z" fill="#414042"/><path d="M165.029 210.162l-3.517-6.57.491-.265 31.307-16.735 3.517 6.569-31.798 17.001zm-.315-32.714h-.929v-3.743l-1.765-3.278 26.038-13.921 3.517 6.569-26.861 14.373zm-.178-30.338l-3.516-6.569 23.596-12.621 3.49 6.596-.809.424-22.761 12.17z" fill="#414042"/><path d="M134.041 193.268l-3.119-6.768 31.294-14.413 1.552 3.384 2.708 2.575-.491.517-.664.292-31.28 14.413zm29.172-49.326l-27.037 12.453 3.12 6.774 27.037-12.453-3.12-6.774zm-20.464-9.347l-3.132-6.755.982-.464 21.619-9.94 3.119 6.768-22.588 10.391z" fill="#414042"/><path d="M162.511 210.162l-.491-.266-31.293-16.735 3.516-6.569 31.798 17-3.53 6.57zm1.27-32.714h-.942l-.823-.451-26.051-13.922 3.517-6.569 26.038 13.921-1.752 3.278.013 3.743zm-.77-30.338l-23.57-12.594 3.491-6.596.809.438 22.774 12.183-3.504 6.569z" fill="#414042"/><path d="M163.766 232.154a5.836 5.836 0 0 1-1.505-.194 4.466 4.466 0 0 1-1.274-.55 2.794 2.794 0 0 1-.85-.823 1.78 1.78 0 0 1-.295-.971V89.642c-.03-.344.05-.689.234-1.013a2.68 2.68 0 0 1 .837-.87c.368-.251.811-.451 1.303-.587a5.85 5.85 0 0 1 1.556-.207c.535 0 1.064.07 1.556.207.492.136.935.336 1.303.586.367.25.652.547.836.871.184.324.264.669.235 1.013v139.974c0 .673-.415 1.319-1.153 1.794-.738.476-1.739.744-2.783.744zm39.376-13.575l-21.645-125.53c-2.642.596-5.474.964-8.418 1.094l21.398 124.119c.104.588.558 1.171 1.285 1.647.727.477 1.681.817 2.695.961.262.039.525.063.786.073a6.698 6.698 0 0 0 1.632-.129 4.227 4.227 0 0 0 1.314-.495c.362-.219.633-.486.796-.785a1.42 1.42 0 0 0 .157-.955zM143.288 91.761l-20.613 117.501c-.109.624.241 1.193.974 1.582s1.788.566 2.934.493c.261-.017.524-.047.785-.091 1.012-.163 1.961-.507 2.683-.972.722-.464 1.171-1.02 1.269-1.57l20.377-116.187c-2.936-.032-5.765-.286-8.409-.756z" fill="#414042"/><path d="M56.72 68.213l-6.078 10.153 63.954-8.44-50.178-.664 6.436-10.737L2.746 67.51l53.974.703zm7.541 38.552l-1.99 11.653 56.535-31.068-46.993 17.597 2.096-12.342-60.198 33.099 50.55-18.939zm.628-80.277l-9.555 6.955 62.176 17.212-45.932-20.199 10.113-7.365L15.48 4.75l49.408 21.738zm204.76 41.725l6.079 10.153-63.955-8.44 50.179-.664-6.436-10.737 68.108 8.985-53.975.703zm-7.536 38.552l1.991 11.653-56.549-31.068 47.006 17.597-2.11-12.342 60.212 33.099-50.55-18.939zm-.642-80.277l9.555 6.955-62.163 17.212 45.932-20.199-10.126-7.365 66.21-18.341-49.408 21.738z" fill="#B69538"/><path d="M66.48 178.645H54.118v-18.89h4.21v14.866h8.152v4.024zm6.325 0h-4.263v-18.89h4.263v18.89zm10.83-5.595l4.502-13.295h4.476l-6.9 18.89H81.37l-6.927-18.89h4.636l4.556 13.295zm22.623 5.595H94.269v-18.89h11.963v3.97h-7.753v3.596h7.033v3.704h-7.033v3.623h7.779v3.997zm109.115 0h-11.989v-18.89h11.963v3.97h-7.753v3.596h7.033v3.704h-7.033v3.623h7.779v3.997zm10.415-5.595l4.502-13.295h4.476l-6.9 18.89h-4.343l-6.927-18.89h4.636l4.556 13.295zm22.623 5.595h-11.989v-18.89h11.963v3.97h-7.753v3.596h7.033v3.704h-7.033v3.623h7.779v3.997zm19.29 0h-4.45l-7.779-12.416v12.416h-4.183v-18.89h5.115l7.087 11.483v-11.483h4.21v18.89zm17.705-14.867h-5.835v14.867h-4.209v-14.867h-5.808v-4.023h15.852v4.023z" fill="#414042"/><path d="M207.535 187.68c.196-1.133.875-1.426 1.411-1.433 20.356-.221 40.702.093 61.058.093 1.377.138 2.62-.122 3.883-.115 1.194.007 2.343.128 3.537.389 0 0 2.327.493 2.209 2.25-.093 1.388.242.575-.448 1.12-2.987 1.09-.459-2.332-1.379 0-.026-.002-.064-.003 0 0-.132-.01.708-2.606 0 0 .021-.143.415-1.052 0 0-14.509-.731-29.875.437-44.385.437-8.107 0-16.214.179-24.321.187-.724 0-1.72-.726-1.611-2.518.009-.147.024-.284.046-.41zm-160.963 0c.202-1.133.902-1.426 1.454-1.433 20.983-.221 41.955.093 62.937.093 1.42.138 2.701-.122 4.003-.115 1.23.007 2.415.128 3.645.389 0 0 2.399.493 2.277 2.25-.096 1.388.249.575-.461 1.12-3.08 1.09-.474-2.332-1.422 0-.027-.002-.066-.003 0 0-.136-.01.73-2.606 0 0 .022-.143.428-1.052 0 0-14.955-.731-30.794.437-45.75.437-8.357 0-16.713.179-25.07.187-.746 0-1.773-.726-1.661-2.518.01-.147.025-.284.048-.41zm156.525-37.744c.208-1.133.929-1.426 1.498-1.433 21.609-.222 43.207.093 64.815.093 1.462.138 2.782-.123 4.123-.116 1.266.007 2.486.128 3.754.39 0 0 2.47.492 2.345 2.25-.099 1.388.256.575-.475 1.12-3.172 1.09-.488-2.332-1.464 0-.028-.002-.069-.004 0 0-.141-.011.751-2.606 0 0 .022-.144.44-1.052 0 0-15.402-.731-31.714.436-47.117.436-8.606 0-17.212.18-25.817.188-.769 0-1.826-.726-1.711-2.518.009-.147.026-.284.049-.41zm-155.412 0c.214-1.133.956-1.426 1.54-1.433 22.236-.222 44.46.093 66.694.093 1.505.138 2.863-.123 4.243-.116a19.86 19.86 0 0 1 3.863.39s2.542.492 2.413 2.25c-.102 1.388.264.575-.489 1.12-3.264 1.09-.502-2.332-1.506 0-.029-.002-.071-.004 0 0-.145-.011.773-2.606 0 0 .022-.144.452-1.052 0 0-15.849-.731-32.634.436-48.483.436-8.855 0-17.71.18-26.565.188-.792 0-1.88-.726-1.761-2.518a3.33 3.33 0 0 1 .05-.41z" fill="#B69538"/></svg>